<svg width="16" height="17" viewBox="0 0 16 17" fill="none" xmlns="http://www.w3.org/2000/svg">
<rect width="16" height="17" rx="3" fill="#35B56B"/>
<path fill-rule="evenodd" clip-rule="evenodd" d="M8.4322 6.19089C8.31952 6.06866 8.16671 6 8.00738 6C7.84805 6 7.69525 6.06866 7.58257 6.19089L4.18344 9.87908C4.12605 9.93922 4.08027 10.0112 4.04878 10.0907C4.01729 10.1702 4.00072 10.2558 4.00002 10.3424C3.99933 10.4289 4.01453 10.5148 4.04474 10.5949C4.07496 10.675 4.11957 10.7478 4.17599 10.809C4.23241 10.8703 4.2995 10.9187 4.37334 10.9515C4.44719 10.9842 4.52631 11.0007 4.60609 11C4.68588 10.9992 4.76472 10.9812 4.83803 10.9471C4.91134 10.9129 4.97764 10.8632 5.03307 10.801L8.00738 7.57371L10.9817 10.801C11.095 10.9197 11.2468 10.9854 11.4043 10.984C11.5619 10.9825 11.7126 10.9139 11.824 10.793C11.9354 10.6721 11.9986 10.5086 12 10.3377C12.0013 10.1667 11.9408 10.002 11.8313 9.87908L8.4322 6.19089Z" fill="white"/>
</svg>
