<svg width="16" height="17" viewBox="0 0 16 17" fill="none" xmlns="http://www.w3.org/2000/svg">
<rect x="16" y="17" width="16" height="17" rx="3" transform="rotate(180 16 17)" fill="#35B56B"/>
<path fill-rule="evenodd" clip-rule="evenodd" d="M7.5678 10.8091C7.68048 10.9313 7.83329 11 7.99262 11C8.15195 11 8.30475 10.9313 8.41743 10.8091L11.8166 7.12092C11.874 7.06078 11.9197 6.98884 11.9512 6.9093C11.9827 6.82975 11.9993 6.7442 12 6.65763C12.0007 6.57107 11.9855 6.48522 11.9553 6.40509C11.925 6.32497 11.8804 6.25217 11.824 6.19096C11.7676 6.12974 11.7005 6.08133 11.6267 6.04855C11.5528 6.01577 11.4737 5.99927 11.3939 6.00002C11.3141 6.00078 11.2353 6.01876 11.162 6.05293C11.0887 6.0871 11.0224 6.13677 10.9669 6.19904L7.99262 9.42629L5.0183 6.19904C4.90498 6.08028 4.7532 6.01456 4.59565 6.01605C4.4381 6.01753 4.2874 6.0861 4.17599 6.20698C4.06458 6.32786 4.00139 6.49138 4.00002 6.66233C3.99865 6.83327 4.05922 6.99796 4.16867 7.12092L7.5678 10.8091Z" fill="white"/>
</svg>
