<svg width="229" height="97" viewBox="0 0 229 97" fill="none" xmlns="http://www.w3.org/2000/svg">
<path d="M88.4703 41.904C89.4063 40.5173 90.689 39.3907 92.3183 38.524C93.9823 37.6573 95.8716 37.224 97.9863 37.224C100.448 37.224 102.666 37.8307 104.642 39.044C106.653 40.2573 108.23 41.9907 109.374 44.244C110.553 46.4627 111.142 49.0453 111.142 51.992C111.142 54.9387 110.553 57.556 109.374 59.844C108.23 62.0973 106.653 63.848 104.642 65.096C102.666 66.344 100.448 66.968 97.9863 66.968C95.837 66.968 93.9476 66.552 92.3183 65.72C90.7236 64.8533 89.441 63.744 88.4703 62.392V66.5H81.1903V28.02H88.4703V41.904ZM103.706 51.992C103.706 50.2587 103.342 48.768 102.614 47.52C101.921 46.2373 100.985 45.2667 99.8063 44.608C98.6623 43.9493 97.4143 43.62 96.0623 43.62C94.745 43.62 93.497 43.9667 92.3183 44.66C91.1743 45.3187 90.2383 46.2893 89.5103 47.572C88.817 48.8547 88.4703 50.3627 88.4703 52.096C88.4703 53.8293 88.817 55.3373 89.5103 56.62C90.2383 57.9027 91.1743 58.8907 92.3183 59.584C93.497 60.2427 94.745 60.572 96.0623 60.572C97.4143 60.572 98.6623 60.2253 99.8063 59.532C100.985 58.8387 101.921 57.8507 102.614 56.568C103.342 55.2853 103.706 53.76 103.706 51.992Z" fill="black"/>
<path d="M124.882 34.26C123.6 34.26 122.525 33.8613 121.658 33.064C120.826 32.232 120.41 31.2093 120.41 29.996C120.41 28.7827 120.826 27.7773 121.658 26.98C122.525 26.148 123.6 25.732 124.882 25.732C126.165 25.732 127.222 26.148 128.054 26.98C128.921 27.7773 129.354 28.7827 129.354 29.996C129.354 31.2093 128.921 32.232 128.054 33.064C127.222 33.8613 126.165 34.26 124.882 34.26ZM128.47 37.692V66.5H121.19V37.692H128.47Z" fill="black"/>
<path d="M147.47 28.02V66.5H140.19V28.02H147.47Z" fill="black"/>
<path d="M166.47 28.02V66.5H159.19V28.02H166.47Z" fill="black"/>
<path d="M181.882 34.26C180.6 34.26 179.525 33.8613 178.658 33.064C177.826 32.232 177.41 31.2093 177.41 29.996C177.41 28.7827 177.826 27.7773 178.658 26.98C179.525 26.148 180.6 25.732 181.882 25.732C183.165 25.732 184.222 26.148 185.054 26.98C185.921 27.7773 186.354 28.7827 186.354 29.996C186.354 31.2093 185.921 32.232 185.054 33.064C184.222 33.8613 183.165 34.26 181.882 34.26ZM185.47 37.692V66.5H178.19V37.692H185.47Z" fill="black"/>
<path d="M213.154 37.276C216.586 37.276 219.36 38.368 221.474 40.552C223.589 42.7013 224.646 45.7173 224.646 49.6V66.5H217.366V50.588C217.366 48.3 216.794 46.5493 215.65 45.336C214.506 44.088 212.946 43.464 210.97 43.464C208.96 43.464 207.365 44.088 206.186 45.336C205.042 46.5493 204.47 48.3 204.47 50.588V66.5H197.19V37.692H204.47V41.28C205.441 40.032 206.672 39.0613 208.162 38.368C209.688 37.64 211.352 37.276 213.154 37.276Z" fill="black"/>
<circle cx="124.751" cy="29.75" r="4.75" fill="#35B56B"/>
<circle cx="181.751" cy="29.75" r="4.75" fill="#35B56B"/>
<path d="M14.8145 33.9697L0 41.771V73.2408L30.0993 89.2401L59.4932 73.2408V53.6714L48.3235 47.589L30.0993 57.5059L40.5635 63.5883L30.0993 69.274L14.8145 61.4727V33.9697Z" fill="black"/>
<path d="M0 22.3483V41.7862L29.8643 26.4327L40.9164 32.2507L29.8643 38.0686V47.9194V57.7702L59.4933 42.0354V22.2015L29.9819 6.46664L0 22.3483Z" fill="#35B56B"/>
</svg>
