<svg width="180" height="84" viewBox="0 0 180 84" fill="none" xmlns="http://www.w3.org/2000/svg">
<path d="M11.704 35.512C12.712 34.0187 14.0933 32.8053 15.848 31.872C17.64 30.9387 19.6747 30.472 21.952 30.472C24.6027 30.472 26.992 31.1253 29.12 32.432C31.2853 33.7387 32.984 35.6053 34.216 38.032C35.4853 40.4213 36.12 43.2027 36.12 46.376C36.12 49.5493 35.4853 52.368 34.216 54.832C32.984 57.2587 31.2853 59.144 29.12 60.488C26.992 61.832 24.6027 62.504 21.952 62.504C19.6373 62.504 17.6027 62.056 15.848 61.16C14.1307 60.2267 12.7493 59.032 11.704 57.576V62H3.864V20.56H11.704V35.512ZM28.112 46.376C28.112 44.5093 27.72 42.904 26.936 41.56C26.1893 40.1787 25.1813 39.1333 23.912 38.424C22.68 37.7147 21.336 37.36 19.88 37.36C18.4613 37.36 17.1173 37.7333 15.848 38.48C14.616 39.1893 13.608 40.2347 12.824 41.616C12.0773 42.9973 11.704 44.6213 11.704 46.488C11.704 48.3547 12.0773 49.9787 12.824 51.36C13.608 52.7413 14.616 53.8053 15.848 54.552C17.1173 55.2613 18.4613 55.616 19.88 55.616C21.336 55.616 22.68 55.2427 23.912 54.496C25.1813 53.7493 26.1893 52.6853 26.936 51.304C27.72 49.9227 28.112 48.28 28.112 46.376Z" fill="white"/>
<path d="M53.84 27.28C52.4587 27.28 51.3013 26.8507 50.368 25.992C49.472 25.096 49.024 23.9947 49.024 22.688C49.024 21.3813 49.472 20.2987 50.368 19.44C51.3013 18.544 52.4587 18.096 53.84 18.096C55.2213 18.096 56.36 18.544 57.256 19.44C58.1893 20.2987 58.656 21.3813 58.656 22.688C58.656 23.9947 58.1893 25.096 57.256 25.992C56.36 26.8507 55.2213 27.28 53.84 27.28ZM57.704 30.976V62H49.864V30.976H57.704Z" fill="white"/>
<path d="M81.704 20.56V62H73.864V20.56H81.704Z" fill="white"/>
<path d="M105.704 20.56V62H97.864V20.56H105.704Z" fill="white"/>
<path d="M125.84 27.28C124.459 27.28 123.301 26.8507 122.368 25.992C121.472 25.096 121.024 23.9947 121.024 22.688C121.024 21.3813 121.472 20.2987 122.368 19.44C123.301 18.544 124.459 18.096 125.84 18.096C127.221 18.096 128.36 18.544 129.256 19.44C130.189 20.2987 130.656 21.3813 130.656 22.688C130.656 23.9947 130.189 25.096 129.256 25.992C128.36 26.8507 127.221 27.28 125.84 27.28ZM129.704 30.976V62H121.864V30.976H129.704Z" fill="white"/>
<path d="M163.056 30.528C166.752 30.528 169.739 31.704 172.016 34.056C174.293 36.3707 175.432 39.6187 175.432 43.8V62H167.592V44.864C167.592 42.4 166.976 40.5147 165.744 39.208C164.512 37.864 162.832 37.192 160.704 37.192C158.539 37.192 156.821 37.864 155.552 39.208C154.32 40.5147 153.704 42.4 153.704 44.864V62H145.864V30.976H153.704V34.84C154.749 33.496 156.075 32.4507 157.68 31.704C159.323 30.92 161.115 30.528 163.056 30.528Z" fill="white"/>
</svg>
