<svg width="111" height="110" viewBox="0 0 111 110" fill="none" xmlns="http://www.w3.org/2000/svg">
<rect x="0.5" width="110" height="109.25" rx="14" fill="#EBC75A"/>
<path d="M74.3356 36.5605H39.599C36 36.5605 34.5 36.8438 34.5 42.2384V68.2369C34.5 72.3438 36.5 72.7194 39.599 72.7194H79.1159L79.7533 42.2384C79.7533 37.3438 77.5 36.5605 74.3356 36.5605Z" fill="white" stroke="white"/>
<path d="M45 36.7812C45 32.7812 50 32.7812 50 36.7812H45Z" stroke="white"/>
<path d="M64 37C64 33 69 33 69 37H64Z" stroke="white"/>
<path d="M46.6797 57.4326C46.6797 58.4098 45.9251 59.1826 45.0176 59.1826C44.1101 59.1826 43.3555 58.4098 43.3555 57.4326C43.3555 56.4554 44.1101 55.6826 45.0176 55.6826C45.9251 55.6826 46.6797 56.4554 46.6797 57.4326Z" fill="#EBC75A" stroke="#EBC75A" stroke-width="0.5"/>
<path d="M58.1523 57.4326C58.1523 58.4098 57.3977 59.1826 56.4902 59.1826C55.5827 59.1826 54.8281 58.4098 54.8281 57.4326C54.8281 56.4554 55.5827 55.6826 56.4902 55.6826C57.3977 55.6826 58.1523 56.4554 58.1523 57.4326Z" fill="#EBC75A" stroke="#EBC75A" stroke-width="0.5"/>
<path d="M58.1523 48.4688C58.1523 49.446 57.3977 50.2188 56.4902 50.2188C55.5827 50.2188 54.8281 49.446 54.8281 48.4688C54.8281 47.4915 55.5827 46.7188 56.4902 46.7188C57.3977 46.7188 58.1523 47.4915 58.1523 48.4688Z" fill="#EBC75A" stroke="#EBC75A" stroke-width="0.5"/>
<path d="M68.9844 48.4688C68.9844 49.446 68.2298 50.2188 67.3223 50.2188C66.4148 50.2188 65.6602 49.446 65.6602 48.4688C65.6602 47.4915 66.4148 46.7188 67.3223 46.7188C68.2298 46.7188 68.9844 47.4915 68.9844 48.4688Z" fill="#EBC75A" stroke="#EBC75A" stroke-width="0.5"/>
<path d="M46.6797 48.4688C46.6797 49.446 45.9251 50.2188 45.0176 50.2188C44.1101 50.2188 43.3555 49.446 43.3555 48.4688C43.3555 47.4915 44.1101 46.7188 45.0176 46.7188C45.9251 46.7188 46.6797 47.4915 46.6797 48.4688Z" fill="#EBC75A" stroke="#EBC75A" stroke-width="0.5"/>
<path d="M70.5183 57.1381C70.5183 57.9589 69.8038 58.6512 68.8881 58.6512C67.9723 58.6512 67.2578 57.9589 67.2578 57.1381C67.2578 56.3173 67.9723 55.625 68.8881 55.625C69.8038 55.625 70.5183 56.3173 70.5183 57.1381Z" fill="#EBC75A" stroke="#EBC75A" stroke-width="0.5"/>
<rect x="62.1836" y="57.4688" width="19.209" height="19" rx="9.5" fill="#35B56B"/>
<rect x="62.1836" y="57.4688" width="19.209" height="19" rx="9.5" stroke="#EBC75A" stroke-width="2"/>
<path d="M75.6987 63.7111C75.5471 63.6388 75.3802 63.5928 75.2078 63.5758C75.0354 63.5588 74.8608 63.5711 74.694 63.6119C74.5271 63.6528 74.3712 63.7215 74.2353 63.8141C74.0994 63.9066 73.9861 64.0212 73.9018 64.1513L71.4489 67.9376L70.0451 66.7335C69.9232 66.6252 69.7774 66.5389 69.6162 66.4795C69.455 66.4201 69.2816 66.3889 69.1062 66.3875C68.9307 66.3862 68.7568 66.4149 68.5944 66.4719C68.432 66.5289 68.2845 66.613 68.1604 66.7194C68.0364 66.8258 67.9383 66.9524 67.8718 67.0916C67.8054 67.2309 67.772 67.3801 67.7735 67.5306C67.775 67.6811 67.8115 67.8298 67.8807 67.968C67.95 68.1063 68.0506 68.2314 68.1768 68.3359L70.8193 70.6024C71.069 70.8172 71.406 70.935 71.7535 70.935L71.9364 70.9237C72.139 70.8994 72.3321 70.8351 72.5008 70.7359C72.6694 70.6367 72.8089 70.5053 72.9082 70.352L76.2114 65.2523C76.2957 65.1222 76.3494 64.9792 76.3692 64.8313C76.3891 64.6835 76.3748 64.5337 76.3272 64.3906C76.2796 64.2475 76.1996 64.1138 76.0918 63.9972C75.9839 63.8806 75.8504 63.7834 75.6987 63.7111Z" fill="white"/>
</svg>
