<svg width="60" height="60" viewBox="0 0 60 60" fill="none" xmlns="http://www.w3.org/2000/svg">
<circle cx="30" cy="30" r="30" fill="#C70000" fill-opacity="0.08"/>
<rect x="8" y="7" width="43" height="46" rx="21.5" fill="#C70000" fill-opacity="0.04"/>
<rect x="18.5" y="18.5" width="23" height="23" rx="11.5" fill="#C70000" fill-opacity="0.05"/>
<rect x="18.5" y="18.5" width="23" height="23" rx="11.5" stroke="#C70000"/>
<path d="M30 21.75C29.5941 21.75 29.2228 22.095 29.25 22.5L29.625 32.625C29.625 32.7245 29.6645 32.8198 29.7348 32.8902C29.8052 32.9605 29.9005 33 30 33C30.0995 33 30.1948 32.9605 30.2652 32.8902C30.3355 32.8198 30.375 32.7245 30.375 32.625L30.75 22.5C30.7772 22.095 30.4059 21.75 30 21.75Z" fill="#C70000"/>
<path d="M30 38.25C30.4142 38.25 30.75 37.9142 30.75 37.5C30.75 37.0858 30.4142 36.75 30 36.75C29.5858 36.75 29.25 37.0858 29.25 37.5C29.25 37.9142 29.5858 38.25 30 38.25Z" fill="#C70000"/>
</svg>
