<svg width="20" height="22" viewBox="0 0 20 22" fill="none" xmlns="http://www.w3.org/2000/svg">
<path opacity="0.4" fill-rule="evenodd" clip-rule="evenodd" d="M6.66079 3.43292H13.3793V1.86862H6.66079V3.43292ZM5.13243 1.93286V1.94065C4.60797 1.98835 4.08914 2.0925 3.58438 2.24923V2.24339C3.56937 2.2497 3.55524 2.25455 3.54169 2.25921C3.52389 2.26533 3.50707 2.27111 3.49056 2.2794C3.45022 2.28914 3.41081 2.30374 3.37328 2.32223C3.26257 2.35825 3.15186 2.40108 3.04772 2.44489C3.02004 2.45559 2.99237 2.468 2.96469 2.48042L2.96469 2.48042C2.93701 2.49283 2.90933 2.50524 2.88166 2.51595C2.84366 2.53395 2.80402 2.55367 2.76438 2.57338C2.72474 2.59309 2.6851 2.6128 2.6471 2.63081L2.45946 2.73886C2.42477 2.75655 2.39265 2.77731 2.35988 2.79848C2.34037 2.81109 2.32063 2.82385 2.29997 2.8362C2.01756 3.01824 1.7558 3.23142 1.51937 3.4738L1.5053 3.4884C1.47425 3.5246 1.44332 3.55972 1.41282 3.59437C1.3613 3.65289 1.31097 3.71005 1.26324 3.76875L1.24917 3.78238C0.481707 4.84147 0.0970391 6.14684 0.163652 7.46973V7.88927H1.67887V7.46583C1.67887 5.62216 2.26619 4.47449 3.57312 3.88653C4.07225 3.6753 4.59953 3.54486 5.13619 3.49716H5.15026V1.93968L5.13243 1.93286ZM18.7478 3.76291L18.7544 3.77654C19.5209 4.8366 19.9037 6.14294 19.8361 7.46583V7.88928H18.3218V7.45513C18.3537 6.67444 18.1971 5.89764 17.8649 5.1958C17.5459 4.59519 17.0355 4.12892 16.4191 3.87583C15.9285 3.66459 15.4087 3.53318 14.8786 3.48646V1.93676C15.4031 1.98543 15.9219 2.08861 16.4276 2.24533V2.23755C16.456 2.25044 16.4777 2.2581 16.5149 2.27126L16.5214 2.27356C16.5387 2.27967 16.5548 2.28577 16.5707 2.29181C16.5929 2.30021 16.6147 2.30846 16.6387 2.31639C16.7424 2.35043 16.8394 2.39054 16.9392 2.43181L16.9567 2.43905C17.0028 2.45522 17.0462 2.47529 17.0853 2.49337C17.098 2.49922 17.1102 2.50487 17.1219 2.51011C17.2044 2.54612 17.2889 2.58895 17.3564 2.62497C17.4015 2.64835 17.4454 2.67337 17.4865 2.69684C17.5088 2.70952 17.5302 2.72175 17.5506 2.73302C17.5842 2.75158 17.6135 2.77145 17.6416 2.79055C17.6621 2.8045 17.682 2.81804 17.7026 2.83036C17.986 3.01337 18.2505 3.22752 18.4898 3.46796L18.4982 3.48256C18.5864 3.57114 18.6699 3.66459 18.7478 3.76291Z" fill="#5669FF"/>
<path d="M14.9217 0.84664V4.29363C14.9217 4.72794 14.5693 5.07972 14.1342 5.07972C13.6991 5.07972 13.3467 4.72794 13.3467 4.29363V0.854501C13.3428 0.420188 13.6932 0.0654664 14.1283 0.0625185C14.5634 0.0595707 14.9188 0.408397 14.9217 0.842709V0.84664Z" fill="#5669FF"/>
<path d="M6.65312 0.859134V4.2976C6.65312 4.7338 6.30029 5.08747 5.86513 5.08747C5.42998 5.08747 5.07812 4.7338 5.07812 4.2976V0.859134C5.07812 0.42294 5.42998 0.0702515 5.86513 0.0702515C6.30029 0.0702515 6.65312 0.42294 6.65312 0.859134Z" fill="#5669FF"/>
<path fill-rule="evenodd" clip-rule="evenodd" d="M0.15625 16.3705V7.88928H19.8438V16.3705C19.8438 20.0689 17.7783 21.9375 13.685 21.9375H6.30566C2.2217 21.9375 0.15625 20.0689 0.15625 16.3705ZM4.59699 12.6043C4.59699 13.1174 5.00069 13.5337 5.49828 13.5337C6.00525 13.5337 6.40895 13.1077 6.39956 12.5946C6.39956 12.0815 5.99586 11.6652 5.50766 11.6652H5.49828C5.00069 11.6652 4.59699 12.0912 4.59699 12.6043ZM9.09403 12.6043C9.09403 13.1174 9.50712 13.5337 10.0047 13.5337C10.5023 13.5337 10.906 13.1174 10.906 12.5946C10.906 12.0912 10.5023 11.6748 10.0047 11.6652H9.99532C9.49773 11.6748 9.09403 12.0912 9.09403 12.6043ZM14.5018 13.5337C14.0042 13.5337 13.6005 13.1174 13.6005 12.6043C13.6005 12.0912 13.9948 11.6749 14.5018 11.6749C14.9993 11.6749 15.403 12.0912 15.403 12.6043C15.403 13.1174 14.9993 13.5337 14.5018 13.5337ZM14.5018 17.5032C14.0042 17.5032 13.6005 17.0869 13.5911 16.5738C13.5911 16.0607 13.9948 15.6444 14.4924 15.6444H14.5018C14.9993 15.6444 15.4031 16.0607 15.4031 16.5738C15.4031 17.0869 14.9993 17.5032 14.5018 17.5032ZM10.0047 17.5033C9.50712 17.5033 9.09403 17.0869 9.09403 16.5738C9.09403 16.0607 9.49773 15.6444 9.99532 15.6347H10.0047C10.5023 15.6444 10.8966 16.0607 10.906 16.5641C10.906 17.0869 10.5023 17.5033 10.0047 17.5033ZM5.49826 17.5033C5.00067 17.5033 4.59697 17.0869 4.59697 16.5738C4.58758 16.0607 4.99128 15.6347 5.49826 15.6347C5.99584 15.6347 6.39955 16.051 6.39955 16.5641C6.39955 17.0773 5.99584 17.5033 5.49826 17.5033Z" fill="#5669FF"/>
</svg>
