<svg width="120" height="46" viewBox="0 0 120 46" fill="none" xmlns="http://www.w3.org/2000/svg">
<rect x="0.5" y="0.5" width="119" height="45" rx="4.5" stroke="black" stroke-opacity="0.19"/>
<path d="M25.75 16.5H45.25V29.5H25.75V16.5ZM35.5 19.75C36.362 19.75 37.1886 20.0924 37.7981 20.7019C38.4076 21.3114 38.75 22.138 38.75 23C38.75 23.862 38.4076 24.6886 37.7981 25.2981C37.1886 25.9076 36.362 26.25 35.5 26.25C34.638 26.25 33.8114 25.9076 33.2019 25.2981C32.5924 24.6886 32.25 23.862 32.25 23C32.25 22.138 32.5924 21.3114 33.2019 20.7019C33.8114 20.0924 34.638 19.75 35.5 19.75ZM30.0833 18.6667C30.0833 19.2413 29.8551 19.7924 29.4487 20.1987C29.0424 20.6051 28.4913 20.8333 27.9167 20.8333V25.1667C28.4913 25.1667 29.0424 25.3949 29.4487 25.8013C29.8551 26.2076 30.0833 26.7587 30.0833 27.3333H40.9167C40.9167 26.7587 41.1449 26.2076 41.5513 25.8013C41.9576 25.3949 42.5087 25.1667 43.0833 25.1667V20.8333C42.5087 20.8333 41.9576 20.6051 41.5513 20.1987C41.1449 19.7924 40.9167 19.2413 40.9167 18.6667H30.0833Z" fill="black"/>
<path d="M68.0753 21.6293H66.5241C66.4645 21.2978 66.3535 21.0062 66.1911 20.7543C66.0286 20.5024 65.8298 20.2886 65.5945 20.1129C65.3591 19.9373 65.0956 19.8047 64.804 19.7152C64.5156 19.6257 64.209 19.581 63.8842 19.581C63.2976 19.581 62.7723 19.7285 62.3082 20.0234C61.8475 20.3184 61.483 20.7509 61.2145 21.321C60.9493 21.8911 60.8168 22.5871 60.8168 23.4091C60.8168 24.2377 60.9493 24.937 61.2145 25.5071C61.483 26.0772 61.8492 26.508 62.3132 26.7997C62.7772 27.0914 63.2992 27.2372 63.8793 27.2372C64.2008 27.2372 64.5057 27.1941 64.794 27.108C65.0857 27.0185 65.3492 26.8875 65.5845 26.7152C65.8198 26.5429 66.0187 26.3324 66.1811 26.0838C66.3468 25.8319 66.4612 25.5436 66.5241 25.2188L68.0753 25.2237C67.9924 25.7242 67.8317 26.1849 67.593 26.6058C67.3577 27.0234 67.0545 27.3847 66.6832 27.6896C66.3153 27.9912 65.8944 28.2249 65.4205 28.3906C64.9465 28.5563 64.4295 28.6392 63.8693 28.6392C62.9877 28.6392 62.2022 28.4304 61.5128 28.0128C60.8234 27.5919 60.2798 26.9903 59.8821 26.2081C59.4877 25.4259 59.2905 24.4929 59.2905 23.4091C59.2905 22.322 59.4893 21.389 59.8871 20.6101C60.2848 19.8279 60.8284 19.228 61.5178 18.8104C62.2071 18.3894 62.991 18.179 63.8693 18.179C64.4096 18.179 64.9134 18.2569 65.3807 18.4126C65.8513 18.5651 66.2739 18.7905 66.6484 19.0888C67.023 19.3838 67.3329 19.745 67.5781 20.1726C67.8234 20.5968 67.9891 21.0824 68.0753 21.6293ZM72.0165 28.669C71.5326 28.669 71.0951 28.5795 70.704 28.4006C70.3129 28.2183 70.003 27.9548 69.7743 27.6101C69.5489 27.2654 69.4363 26.8428 69.4363 26.3423C69.4363 25.9115 69.5191 25.5568 69.6848 25.2784C69.8506 25 70.0743 24.7796 70.356 24.6172C70.6377 24.4548 70.9526 24.3321 71.3006 24.2493C71.6486 24.1664 72.0033 24.1035 72.3645 24.0604C72.8219 24.0073 73.1931 23.9643 73.4782 23.9311C73.7632 23.8946 73.9703 23.8366 74.0996 23.7571C74.2289 23.6776 74.2935 23.5483 74.2935 23.3693V23.3345C74.2935 22.9003 74.1709 22.5639 73.9256 22.3253C73.6837 22.0866 73.3224 21.9673 72.8418 21.9673C72.3413 21.9673 71.9469 22.0784 71.6586 22.3004C71.3735 22.5192 71.1763 22.7628 71.0669 23.0312L69.6699 22.7131C69.8356 22.2491 70.0776 21.8745 70.3958 21.5895C70.7173 21.3011 71.0868 21.0923 71.5044 20.9631C71.9221 20.8305 72.3612 20.7642 72.8219 20.7642C73.1268 20.7642 73.45 20.8007 73.7914 20.8736C74.1361 20.9432 74.4576 21.0724 74.7559 21.2614C75.0575 21.4503 75.3044 21.7204 75.4966 22.0717C75.6889 22.4197 75.785 22.8722 75.785 23.429V28.5H74.3333V27.456H74.2736C74.1775 27.6482 74.0333 27.8371 73.8411 28.0227C73.6489 28.2083 73.4019 28.3625 73.1003 28.4851C72.7987 28.6077 72.4374 28.669 72.0165 28.669ZM72.3397 27.4759C72.7507 27.4759 73.102 27.3946 73.3936 27.2322C73.6886 27.0698 73.9123 26.8577 74.0648 26.5959C74.2206 26.3307 74.2985 26.0473 74.2985 25.7457V24.7614C74.2454 24.8144 74.1427 24.8641 73.9902 24.9105C73.8411 24.9536 73.6704 24.9917 73.4782 25.0249C73.2859 25.0547 73.0987 25.0829 72.9164 25.1094C72.7341 25.1326 72.5816 25.1525 72.459 25.169C72.1706 25.2055 71.9071 25.2668 71.6685 25.353C71.4332 25.4392 71.2443 25.5634 71.1017 25.7259C70.9625 25.8849 70.8929 26.0971 70.8929 26.3622C70.8929 26.7301 71.0288 27.0085 71.3006 27.1974C71.5724 27.383 71.9187 27.4759 72.3397 27.4759ZM83.4872 22.728L82.1399 22.9666C82.0836 22.7943 81.9941 22.6302 81.8714 22.4744C81.7521 22.3187 81.5897 22.1911 81.3842 22.0916C81.1787 21.9922 80.9219 21.9425 80.6136 21.9425C80.1927 21.9425 79.8414 22.0369 79.5597 22.2259C79.2779 22.4115 79.1371 22.6518 79.1371 22.9467C79.1371 23.2019 79.2315 23.4074 79.4205 23.5632C79.6094 23.719 79.9143 23.8466 80.3352 23.946L81.5483 24.2244C82.2509 24.3868 82.7746 24.6371 83.1193 24.9751C83.464 25.3132 83.6364 25.7524 83.6364 26.2926C83.6364 26.75 83.5038 27.1577 83.2386 27.5156C82.9768 27.8703 82.6106 28.1487 82.1399 28.3509C81.6726 28.553 81.1307 28.6541 80.5142 28.6541C79.6591 28.6541 78.9614 28.4718 78.4212 28.1072C77.8809 27.7393 77.5495 27.2173 77.4268 26.5412L78.8636 26.3224C78.9531 26.697 79.1371 26.9804 79.4155 27.1726C79.6939 27.3615 80.0568 27.456 80.5043 27.456C80.9915 27.456 81.3809 27.3549 81.6726 27.1527C81.9643 26.9472 82.1101 26.697 82.1101 26.402C82.1101 26.1634 82.0206 25.9628 81.8416 25.8004C81.666 25.638 81.3958 25.5154 81.0312 25.4325L79.7386 25.1491C79.026 24.9867 78.4991 24.7282 78.1577 24.3736C77.8196 24.0189 77.6506 23.5698 77.6506 23.0263C77.6506 22.5755 77.7765 22.1811 78.0284 21.843C78.2803 21.505 78.6283 21.2415 79.0724 21.0526C79.5166 20.8603 80.0253 20.7642 80.5987 20.7642C81.424 20.7642 82.0736 20.9432 82.5476 21.3011C83.0215 21.6558 83.3348 22.1314 83.4872 22.728ZM86.7573 23.9659V28.5H85.2708V18.3182H86.7374V22.1065H86.8319C87.0108 21.6955 87.2843 21.3691 87.6522 21.1271C88.0201 20.8852 88.5007 20.7642 89.0939 20.7642C89.6176 20.7642 90.075 20.8719 90.4661 21.0874C90.8605 21.3028 91.1654 21.6243 91.3809 22.0518C91.5996 22.4761 91.709 23.0064 91.709 23.6428V28.5H90.2225V23.8217C90.2225 23.2616 90.0783 22.8274 89.79 22.5192C89.5016 22.2076 89.1006 22.0518 88.5868 22.0518C88.2355 22.0518 87.9206 22.1264 87.6422 22.2756C87.3671 22.4247 87.15 22.6435 86.9909 22.9318C86.8352 23.2169 86.7573 23.5616 86.7573 23.9659Z" fill="black"/>
</svg>
