<svg width="111" height="110" viewBox="0 0 111 110" fill="none" xmlns="http://www.w3.org/2000/svg">
<rect x="0.5" y="0.375275" width="110" height="109.25" rx="14" fill="#587291"/>
<path d="M31.2003 29.0001L31.2004 83.4044L85.0001 83.4045" stroke="white" stroke-width="2" stroke-linecap="round"/>
<rect x="37.2739" y="64.624" width="6.51549" height="12.7052" fill="white"/>
<rect x="49.6533" y="54.525" width="6.51549" height="22.8042" fill="white"/>
<rect x="62.0327" y="60.389" width="6.51549" height="16.9403" fill="white"/>
<rect x="74.0864" y="48.3353" width="6.51549" height="28.9939" fill="white"/>
<path d="M53.0741 45.2405L53.2852 44.7873L53.0072 44.6578L52.7658 44.8469L53.0741 45.2405ZM64.9644 50.7783L64.7533 51.2316L65.0618 51.3752L65.3086 51.141L64.9644 50.7783ZM81.4274 35.6429C81.4346 35.3669 81.2167 35.1372 80.9407 35.13L76.4422 35.0122C76.1662 35.005 75.9365 35.2229 75.9293 35.499C75.9221 35.775 76.14 36.0046 76.416 36.0119L80.4147 36.1166L80.31 40.1152C80.3027 40.3913 80.5206 40.6209 80.7967 40.6281C81.0727 40.6354 81.3024 40.4174 81.3096 40.1414L81.4274 35.6429ZM39.8625 56.2215L53.3824 45.6342L52.7658 44.8469L39.246 55.4342L39.8625 56.2215ZM52.863 45.6938L64.7533 51.2316L65.1755 50.3251L53.2852 44.7873L52.863 45.6938ZM65.3086 51.141L81.2718 35.9925L80.5834 35.2671L64.6202 50.4156L65.3086 51.141Z" fill="white"/>
<circle cx="40.3689" cy="55.0137" r="1.79176" fill="white"/>
<circle cx="65.1277" cy="51.4302" r="1.79176" fill="white"/>
<circle cx="52.7483" cy="45.2405" r="1.79176" fill="white"/>
</svg>
