<svg width="52" height="52" viewBox="0 0 52 52" fill="none" xmlns="http://www.w3.org/2000/svg">
<g clip-path="url(#clip0_57_935)">
<path d="M46.222 11.5556H35.6776L34.1464 7.62667C33.937 7.08374 33.5684 6.61674 33.089 6.28683C32.6096 5.95693 32.0417 5.7795 31.4598 5.77778H20.5398C19.9554 5.77658 19.3844 5.95266 18.9021 6.28275C18.4199 6.61285 18.0491 7.08144 17.8387 7.62667L16.322 11.5556H5.77756C5.01138 11.5556 4.27658 11.8599 3.73481 12.4017C3.19304 12.9435 2.88867 13.6783 2.88867 14.4444V43.3333C2.88867 44.0995 3.19304 44.8343 3.73481 45.3761C4.27658 45.9179 5.01138 46.2222 5.77756 46.2222H46.222C46.9882 46.2222 47.723 45.9179 48.2648 45.3761C48.8065 44.8343 49.1109 44.0995 49.1109 43.3333V14.4444C49.1109 13.6783 48.8065 12.9435 48.2648 12.4017C47.723 11.8599 46.9882 11.5556 46.222 11.5556ZM46.222 43.3333H5.77756V14.4444H18.3009L20.5398 8.66667H31.4598L33.6987 14.4444H46.222V43.3333Z" fill="#747688"/>
<path d="M12.9998 27.4445C12.9998 30.0156 13.7622 32.529 15.1907 34.6669C16.6191 36.8047 18.6494 38.471 21.0249 39.4549C23.4003 40.4388 26.0142 40.6963 28.5359 40.1947C31.0577 39.6931 33.3741 38.4549 35.1921 36.6368C37.0102 34.8188 38.2484 32.5024 38.75 29.9806C39.2516 27.4589 38.9941 24.845 38.0102 22.4696C37.0263 20.0941 35.36 18.0638 33.2222 16.6354C31.0843 15.2069 28.5709 14.4445 25.9998 14.4445C22.5519 14.4445 19.2453 15.8141 16.8074 18.2521C14.3694 20.69 12.9998 23.9966 12.9998 27.4445ZM36.6886 27.4445C36.6886 29.5585 36.0618 31.6251 34.8872 33.3829C33.7127 35.1407 32.0434 36.5107 30.0902 37.3197C28.1371 38.1287 25.9879 38.3404 23.9145 37.928C21.841 37.5155 19.9364 36.4975 18.4416 35.0026C16.9467 33.5078 15.9287 31.6032 15.5163 29.5298C15.1038 27.4563 15.3155 25.3071 16.1245 23.354C16.9335 21.4009 18.3035 19.7315 20.0613 18.557C21.8191 17.3825 23.8857 16.7556 25.9998 16.7556C28.8335 16.7594 31.55 17.8868 33.5537 19.8905C35.5574 21.8942 36.6848 24.6108 36.6886 27.4445Z" fill="#747688"/>
<path d="M13.5341 18.5322C13.5341 18.2258 13.4124 17.9318 13.1957 17.7151C12.979 17.4984 12.685 17.3767 12.3786 17.3767H8.9119C8.60543 17.3767 8.31151 17.4984 8.0948 17.7151C7.87809 17.9318 7.75635 18.2258 7.75635 18.5322C7.75635 18.8387 7.87809 19.1326 8.0948 19.3493C8.31151 19.566 8.60543 19.6878 8.9119 19.6878H12.3786C12.685 19.6878 12.979 19.566 13.1957 19.3493C13.4124 19.1326 13.5341 18.8387 13.5341 18.5322Z" fill="#747688"/>
<path d="M17.8242 27.4445C17.8404 28.9679 18.2889 30.4554 19.1174 31.7339C19.9459 33.0124 21.1203 34.0295 22.5042 34.6667L23.732 32.6878C22.9049 32.4108 22.1512 31.9501 21.5275 31.3403C20.9038 30.7305 20.4263 29.9874 20.1308 29.1668C19.8352 28.3461 19.7293 27.4692 19.821 26.6018C19.9127 25.7344 20.1995 24.8989 20.6601 24.1582C21.1207 23.4175 21.743 22.7906 22.4804 22.3247C23.2178 21.8588 24.0511 21.5658 24.9178 21.4679C25.7846 21.3699 26.6622 21.4694 27.485 21.759C28.3078 22.0486 29.0543 22.5208 29.6686 23.14L30.9108 21.1467C29.7283 20.1886 28.2979 19.5862 26.7863 19.4098C25.2746 19.2333 23.7439 19.49 22.3725 20.15C21.0011 20.8099 19.8455 21.846 19.0402 23.1374C18.235 24.4289 17.8132 25.9226 17.8242 27.4445Z" fill="#747688"/>
</g>
<defs>
<clipPath id="clip0_57_935">
<rect width="52" height="52" fill="white" transform="translate(-0.000244141)"/>
</clipPath>
</defs>
</svg>
