<svg width="176" height="185" viewBox="0 0 176 185" fill="none" xmlns="http://www.w3.org/2000/svg">
<path d="M15.3814 155.957L16.61 157.118C19.6664 160.004 23.3164 162.189 27.3048 163.518C30.249 164.5 33.3322 165 36.4356 165H39.8695C44.106 165 48.3254 164.462 52.4263 163.399L53.9635 163C57.8124 162.002 61.5572 160.639 65.1471 158.93L69.1307 157.033C69.6501 156.786 70.25 157.164 70.25 157.74V165L70.6828 168.462C71.0542 171.433 72.2126 174.251 74.0383 176.625C75.496 178.52 77.3412 180.082 79.4507 181.207L80.1648 181.588C82.532 182.85 85.1235 183.637 87.7931 183.904L90.7153 184.197C92.7321 184.398 94.7651 184.373 96.7763 184.122C100.064 183.711 103.249 182.701 106.173 181.141L106.648 180.888C108.379 179.965 110.014 178.875 111.532 177.633L116.142 173.861C118.798 171.688 122.125 170.5 125.558 170.5C127.662 170.5 129.742 170.054 131.661 169.19L138.75 166L141.179 164.532C146.703 161.191 151.769 157.147 156.25 152.5L161.512 146.537C163.001 144.849 164.333 143.029 165.49 141.099L167.366 137.974C168.936 135.357 169.907 132.425 170.211 129.389C170.564 125.856 170.002 122.291 168.579 119.038L168.444 118.728C167.653 116.92 166.589 115.244 165.289 113.759C164.267 112.591 163.107 111.55 161.835 110.66L159.085 108.734C158.928 108.625 158.938 108.39 159.102 108.293L161.319 106.989C165.209 104.701 168.451 101.459 170.739 97.5691C171.743 95.8617 172.553 94.0473 173.154 92.1597L174.414 88.1992C175.295 85.4306 175.584 82.5079 175.263 79.6203L175.15 78.5961C174.886 76.2281 174.102 73.9476 172.854 71.9185C171.472 69.6737 169.562 67.8013 167.29 66.4649L163.977 64.516C162.828 63.8401 161.62 63.2708 160.367 62.8152C157.974 61.9451 155.448 61.5 152.902 61.5H148.592C148.289 61.5 148.143 61.1304 148.363 60.9232L149.026 60.2986C153.829 55.7781 158.156 50.7769 161.939 45.3735L163.25 43.5L164.875 40.9728C166.765 38.0328 167.931 34.6869 168.279 31.2091C168.59 28.1048 168.24 24.9699 167.253 22.0102L166.412 19.4859C165.646 17.1878 164.404 15.0771 162.767 13.2914C160.788 11.1328 158.292 9.51406 155.514 8.58805L154.26 8.17006C152.923 7.72435 151.547 7.40623 150.15 7.21996L148.778 7.03709C146.101 6.68011 143.392 6.61806 140.701 6.85205L133.25 7.5L122.25 10L106.25 16L89.7457 24.7376C89.5409 24.846 89.3 24.6747 89.3353 24.4457L89.8272 21.248C90.1074 19.4267 90.1065 17.5672 89.8263 15.7459C89.4471 13.281 88.5586 10.9136 87.2198 8.80961C86.2455 7.27867 85.0454 5.90382 83.6601 4.73167L82.3255 3.60231C80.3159 1.90193 77.8677 0.802533 75.2618 0.430256C73.2771 0.146727 71.2546 0.292753 69.3313 0.858455L67.9424 1.26696C65.178 2.07999 62.6143 3.4622 60.4158 5.3248L27.75 33C20.434 39.3184 13.7077 46.3874 7.75 54L5.21946 58.2176C3.91042 60.3993 2.84408 62.7178 2.0395 65.1315L1.15177 67.7947C0.554497 69.5865 0.25 71.4629 0.25 73.3517C0.25 76.0797 0.885166 78.7703 2.1052 81.2104L2.2876 81.5752C2.92722 82.8544 3.70705 84.0586 4.61272 85.1656L5.4046 86.1334C6.96248 88.0375 8.74491 89.7462 10.7131 91.2223L17.75 96.5L29.4206 103.969C29.7926 104.207 29.7719 104.757 29.383 104.967L26.5557 106.489C24.6882 107.495 22.9036 108.647 21.2187 109.936L19.5387 111.22C16.7043 113.388 14.2981 116.064 12.4429 119.112C9.70051 123.617 8.25 128.79 8.25 134.064V137V139.413C8.25 142.763 8.9896 146.072 10.416 149.103C11.6279 151.678 13.3122 154.003 15.3814 155.957Z" fill="#F5FBF7"/>
</svg>
