<svg width="22" height="21" viewBox="0 0 22 21" fill="none" xmlns="http://www.w3.org/2000/svg">
<path d="M20.7167 21C18.1704 21 15.6546 20.4703 13.1694 19.411C10.6843 18.3517 8.42315 16.8494 6.38611 14.9042C4.34907 12.9589 2.77567 10.8006 1.66589 8.42917C0.556111 6.05772 0.000814815 3.65633 0 1.225C0 0.875 0.122222 0.583333 0.366667 0.35C0.611111 0.116667 0.916667 0 1.28333 0H6.23333C6.51852 0 6.77315 0.0925554 6.99722 0.277667C7.2213 0.462778 7.3537 0.681333 7.39444 0.933333L8.18889 5.01667C8.22963 5.32778 8.21944 5.59028 8.15833 5.80417C8.09722 6.01806 7.98518 6.20278 7.82222 6.35833L4.85833 9.21667C5.26574 9.93611 5.74933 10.6311 6.30911 11.3015C6.86889 11.9719 7.4853 12.6187 8.15833 13.2417C8.78981 13.8444 9.45185 14.4037 10.1444 14.9193C10.837 15.435 11.5704 15.9063 12.3444 16.3333L15.2167 13.5917C15.4 13.4167 15.6396 13.2856 15.9353 13.1985C16.2311 13.1114 16.5212 13.0869 16.8056 13.125L21.0222 13.9417C21.3074 14.0194 21.5417 14.1606 21.725 14.3652C21.9083 14.5697 22 14.798 22 15.05V19.775C22 20.125 21.8778 20.4167 21.6333 20.65C21.3889 20.8833 21.0833 21 20.7167 21Z" fill="#5669FF"/>
</svg>
