<svg width="120" height="46" viewBox="0 0 120 46" fill="none" xmlns="http://www.w3.org/2000/svg">
<rect width="120" height="46" rx="5" fill="white"/>
<rect x="0.5" y="0.5" width="119" height="45" rx="4.5" stroke="black" stroke-opacity="0.19"/>
<path d="M21.0357 24.7857C20.8936 24.7857 20.7573 24.8421 20.6569 24.9426C20.5564 25.0431 20.5 25.1793 20.5 25.3214C20.5 25.4635 20.5564 25.5998 20.6569 25.7002C20.7573 25.8007 20.8936 25.8571 21.0357 25.8571H23.5357C23.6778 25.8571 23.814 25.8007 23.9145 25.7002C24.015 25.5998 24.0714 25.4635 24.0714 25.3214C24.0714 25.1793 24.015 25.0431 23.9145 24.9426C23.814 24.8421 23.6778 24.7857 23.5357 24.7857H21.0357ZM9.4314 19.25C9.4314 18.5396 9.7136 17.8583 10.2159 17.3559C10.7183 16.8536 11.3996 16.5714 12.11 16.5714H23.8928C24.6032 16.5714 25.2845 16.8536 25.7869 17.3559C26.2892 17.8583 26.5714 18.5396 26.5714 19.25V26.75C26.5714 27.4604 26.2892 28.1417 25.7869 28.644C25.2845 29.1463 24.6032 29.4286 23.8928 29.4286H12.1107C11.4003 29.4286 10.719 29.1463 10.2166 28.644C9.71432 28.1417 9.43211 27.4604 9.43211 26.75L9.4314 19.25ZM12.11 17.6428C11.6837 17.6428 11.2749 17.8122 10.9735 18.1136C10.6721 18.415 10.5028 18.8237 10.5028 19.25V19.7857H25.5V19.25C25.5 18.8237 25.3306 18.415 25.0292 18.1136C24.7278 17.8122 24.3191 17.6428 23.8928 17.6428H12.11ZM10.5028 26.75C10.5028 27.1762 10.6721 27.585 10.9735 27.8864C11.2749 28.1878 11.6837 28.3571 12.11 28.3571H23.8928C24.3191 28.3571 24.7278 28.1878 25.0292 27.8864C25.3306 27.585 25.5 27.1762 25.5 26.75V20.8571H10.5035L10.5028 26.75Z" fill="black"/>
<path d="M44.5753 21.6293H43.0241C42.9645 21.2978 42.8535 21.0062 42.6911 20.7543C42.5286 20.5024 42.3298 20.2886 42.0945 20.1129C41.8591 19.9373 41.5956 19.8047 41.304 19.7152C41.0156 19.6257 40.709 19.581 40.3842 19.581C39.7976 19.581 39.2723 19.7285 38.8082 20.0234C38.3475 20.3184 37.983 20.7509 37.7145 21.321C37.4493 21.8911 37.3168 22.5871 37.3168 23.4091C37.3168 24.2377 37.4493 24.937 37.7145 25.5071C37.983 26.0772 38.3492 26.508 38.8132 26.7997C39.2772 27.0914 39.7992 27.2372 40.3793 27.2372C40.7008 27.2372 41.0057 27.1941 41.294 27.108C41.5857 27.0185 41.8492 26.8875 42.0845 26.7152C42.3198 26.5429 42.5187 26.3324 42.6811 26.0838C42.8468 25.8319 42.9612 25.5436 43.0241 25.2188L44.5753 25.2237C44.4924 25.7242 44.3317 26.1849 44.093 26.6058C43.8577 27.0234 43.5545 27.3847 43.1832 27.6896C42.8153 27.9912 42.3944 28.2249 41.9205 28.3906C41.4465 28.5563 40.9295 28.6392 40.3693 28.6392C39.4877 28.6392 38.7022 28.4304 38.0128 28.0128C37.3234 27.5919 36.7798 26.9903 36.3821 26.2081C35.9877 25.4259 35.7905 24.4929 35.7905 23.4091C35.7905 22.322 35.9893 21.389 36.3871 20.6101C36.7848 19.8279 37.3284 19.228 38.0178 18.8104C38.7071 18.3894 39.491 18.179 40.3693 18.179C40.9096 18.179 41.4134 18.2569 41.8807 18.4126C42.3513 18.5651 42.7739 18.7905 43.1484 19.0888C43.523 19.3838 43.8329 19.745 44.0781 20.1726C44.3234 20.5968 44.4891 21.0824 44.5753 21.6293ZM46.2942 28.5V20.8636H47.731V22.0767H47.8105C47.9498 21.6657 48.195 21.3426 48.5463 21.1072C48.901 20.8686 49.302 20.7493 49.7495 20.7493C49.8423 20.7493 49.9516 20.7526 50.0776 20.7592C50.2069 20.7659 50.3079 20.7741 50.3809 20.7841V22.206C50.3212 22.1894 50.2151 22.1712 50.0627 22.1513C49.9102 22.1281 49.7578 22.1165 49.6053 22.1165C49.254 22.1165 48.9408 22.1911 48.6657 22.3402C48.3939 22.486 48.1784 22.6899 48.0194 22.9517C47.8603 23.2102 47.7807 23.5052 47.7807 23.8366V28.5H46.2942ZM54.685 28.6541C53.9326 28.6541 53.2847 28.4934 52.7411 28.1719C52.2009 27.8471 51.7833 27.3913 51.4883 26.8047C51.1966 26.2147 51.0508 25.5237 51.0508 24.7315C51.0508 23.9493 51.1966 23.2599 51.4883 22.6634C51.7833 22.0668 52.1942 21.6011 52.7212 21.2663C53.2515 20.9316 53.8713 20.7642 54.5806 20.7642C55.0115 20.7642 55.4291 20.8355 55.8335 20.978C56.2378 21.1205 56.6007 21.3442 56.9222 21.6491C57.2437 21.9541 57.4973 22.3501 57.6829 22.8374C57.8685 23.3213 57.9613 23.9096 57.9613 24.6023V25.1293H51.891V24.0156H56.5046C56.5046 23.6245 56.4251 23.2782 56.266 22.9766C56.1069 22.6716 55.8832 22.4313 55.5948 22.2557C55.3098 22.08 54.975 21.9922 54.5906 21.9922C54.1729 21.9922 53.8084 22.0949 53.4968 22.3004C53.1886 22.5026 52.9499 22.7678 52.7809 23.0959C52.6152 23.4207 52.5323 23.7737 52.5323 24.1548V25.0249C52.5323 25.5353 52.6218 25.9695 52.8008 26.3274C52.9831 26.6854 53.2366 26.9588 53.5614 27.1477C53.8862 27.3333 54.2657 27.4261 54.6999 27.4261C54.9817 27.4261 55.2385 27.3864 55.4705 27.3068C55.7025 27.224 55.9031 27.1013 56.0721 26.9389C56.2411 26.7765 56.3704 26.576 56.4599 26.3374L57.8668 26.5909C57.7541 27.0052 57.552 27.3681 57.2603 27.6797C56.9719 27.9879 56.609 28.2282 56.1715 28.4006C55.7373 28.5696 55.2418 28.6541 54.685 28.6541ZM62.4693 28.6491C61.8528 28.6491 61.3026 28.4917 60.8187 28.1768C60.3381 27.8587 59.9603 27.4062 59.6852 26.8196C59.4134 26.2296 59.2775 25.522 59.2775 24.6967C59.2775 23.8714 59.4151 23.1655 59.6902 22.5788C59.9686 21.9922 60.3497 21.5431 60.8336 21.2315C61.3175 20.92 61.8661 20.7642 62.4792 20.7642C62.9532 20.7642 63.3343 20.8438 63.6227 21.0028C63.9144 21.1586 64.1397 21.3409 64.2988 21.5497C64.4612 21.7585 64.5872 21.9425 64.6767 22.1016H64.7662V18.3182H66.2527V28.5H64.801V27.3118H64.6767C64.5872 27.4742 64.4579 27.6598 64.2889 27.8686C64.1232 28.0774 63.8945 28.2597 63.6028 28.4155C63.3111 28.5713 62.9333 28.6491 62.4693 28.6491ZM62.7974 27.3814C63.225 27.3814 63.5862 27.2687 63.8812 27.0433C64.1795 26.8146 64.4049 26.4981 64.5574 26.0938C64.7131 25.6894 64.791 25.2187 64.791 24.6818C64.791 24.1515 64.7148 23.6875 64.5623 23.2898C64.4099 22.892 64.1861 22.5821 63.8912 22.3601C63.5962 22.138 63.2316 22.027 62.7974 22.027C62.35 22.027 61.9771 22.143 61.6788 22.375C61.3805 22.607 61.1551 22.9235 61.0027 23.3246C60.8535 23.7256 60.7789 24.178 60.7789 24.6818C60.7789 25.1922 60.8552 25.6513 61.0076 26.0589C61.1601 26.4666 61.3855 26.7898 61.6838 27.0284C61.9854 27.2637 62.3566 27.3814 62.7974 27.3814ZM68.3743 28.5V20.8636H69.8608V28.5H68.3743ZM69.125 19.6854C68.8665 19.6854 68.6444 19.5992 68.4588 19.4268C68.2765 19.2512 68.1854 19.0424 68.1854 18.8004C68.1854 18.5552 68.2765 18.3464 68.4588 18.174C68.6444 17.9983 68.8665 17.9105 69.125 17.9105C69.3835 17.9105 69.6039 17.9983 69.7862 18.174C69.9718 18.3464 70.0646 18.5552 70.0646 18.8004C70.0646 19.0424 69.9718 19.2512 69.7862 19.4268C69.6039 19.5992 69.3835 19.6854 69.125 19.6854ZM75.4252 20.8636V22.0568H71.2541V20.8636H75.4252ZM72.3727 19.0341H73.8592V26.2578C73.8592 26.5462 73.9023 26.7633 73.9885 26.9091C74.0746 27.0516 74.1857 27.1494 74.3216 27.2024C74.4608 27.2521 74.6116 27.277 74.774 27.277C74.8933 27.277 74.9977 27.2687 75.0872 27.2521C75.1767 27.2356 75.2463 27.2223 75.296 27.2124L75.5645 28.4403C75.4783 28.4735 75.3556 28.5066 75.1966 28.5398C75.0375 28.5762 74.8386 28.5961 74.6 28.5994C74.2089 28.6061 73.8443 28.5365 73.5062 28.3906C73.1681 28.2448 72.8947 28.0194 72.6859 27.7145C72.4771 27.4096 72.3727 27.0268 72.3727 26.5661V19.0341ZM89.3507 21.6293H87.7995C87.7399 21.2978 87.6288 21.0062 87.4664 20.7543C87.304 20.5024 87.1052 20.2886 86.8699 20.1129C86.6345 19.9373 86.371 19.8047 86.0794 19.7152C85.791 19.6257 85.4844 19.581 85.1596 19.581C84.573 19.581 84.0476 19.7285 83.5836 20.0234C83.1229 20.3184 82.7583 20.7509 82.4899 21.321C82.2247 21.8911 82.0922 22.5871 82.0922 23.4091C82.0922 24.2377 82.2247 24.937 82.4899 25.5071C82.7583 26.0772 83.1246 26.508 83.5886 26.7997C84.0526 27.0914 84.5746 27.2372 85.1547 27.2372C85.4761 27.2372 85.7811 27.1941 86.0694 27.108C86.3611 27.0185 86.6246 26.8875 86.8599 26.7152C87.0952 26.5429 87.2941 26.3324 87.4565 26.0838C87.6222 25.8319 87.7366 25.5436 87.7995 25.2188L89.3507 25.2237C89.2678 25.7242 89.1071 26.1849 88.8684 26.6058C88.6331 27.0234 88.3298 27.3847 87.9586 27.6896C87.5907 27.9912 87.1698 28.2249 86.6958 28.3906C86.2219 28.5563 85.7048 28.6392 85.1447 28.6392C84.2631 28.6392 83.4776 28.4304 82.7882 28.0128C82.0988 27.5919 81.5552 26.9903 81.1575 26.2081C80.7631 25.4259 80.5659 24.4929 80.5659 23.4091C80.5659 22.322 80.7647 21.389 81.1625 20.6101C81.5602 19.8279 82.1038 19.228 82.7931 18.8104C83.4825 18.3894 84.2664 18.179 85.1447 18.179C85.685 18.179 86.1887 18.2569 86.6561 18.4126C87.1267 18.5651 87.5493 18.7905 87.9238 19.0888C88.2984 19.3838 88.6083 19.745 88.8535 20.1726C89.0988 20.5968 89.2645 21.0824 89.3507 21.6293ZM93.2919 28.669C92.808 28.669 92.3705 28.5795 91.9794 28.4006C91.5883 28.2183 91.2784 27.9548 91.0497 27.6101C90.8243 27.2654 90.7116 26.8428 90.7116 26.3423C90.7116 25.9115 90.7945 25.5568 90.9602 25.2784C91.1259 25 91.3497 24.7796 91.6314 24.6172C91.9131 24.4548 92.228 24.3321 92.576 24.2493C92.924 24.1664 93.2786 24.1035 93.6399 24.0604C94.0973 24.0073 94.4685 23.9643 94.7536 23.9311C95.0386 23.8946 95.2457 23.8366 95.375 23.7571C95.5043 23.6776 95.5689 23.5483 95.5689 23.3693V23.3345C95.5689 22.9003 95.4463 22.5639 95.201 22.3253C94.959 22.0866 94.5978 21.9673 94.1172 21.9673C93.6167 21.9673 93.2223 22.0784 92.9339 22.3004C92.6489 22.5192 92.4517 22.7628 92.3423 23.0312L90.9453 22.7131C91.111 22.2491 91.353 21.8745 91.6712 21.5895C91.9927 21.3011 92.3622 21.0923 92.7798 20.9631C93.1974 20.8305 93.6366 20.7642 94.0973 20.7642C94.4022 20.7642 94.7254 20.8007 95.0668 20.8736C95.4115 20.9432 95.733 21.0724 96.0312 21.2614C96.3329 21.4503 96.5798 21.7204 96.772 22.0717C96.9643 22.4197 97.0604 22.8722 97.0604 23.429V28.5H95.6087V27.456H95.549C95.4529 27.6482 95.3087 27.8371 95.1165 28.0227C94.9242 28.2083 94.6773 28.3625 94.3757 28.4851C94.0741 28.6077 93.7128 28.669 93.2919 28.669ZM93.6151 27.4759C94.026 27.4759 94.3774 27.3946 94.669 27.2322C94.964 27.0698 95.1877 26.8577 95.3402 26.5959C95.496 26.3307 95.5739 26.0473 95.5739 25.7457V24.7614C95.5208 24.8144 95.4181 24.8641 95.2656 24.9105C95.1165 24.9536 94.9458 24.9917 94.7536 25.0249C94.5613 25.0547 94.3741 25.0829 94.1918 25.1094C94.0095 25.1326 93.857 25.1525 93.7344 25.169C93.446 25.2055 93.1825 25.2668 92.9439 25.353C92.7086 25.4392 92.5196 25.5634 92.3771 25.7259C92.2379 25.8849 92.1683 26.0971 92.1683 26.3622C92.1683 26.7301 92.3042 27.0085 92.576 27.1974C92.8478 27.383 93.1941 27.4759 93.6151 27.4759ZM99.0403 28.5V20.8636H100.477V22.0767H100.557C100.696 21.6657 100.941 21.3426 101.292 21.1072C101.647 20.8686 102.048 20.7493 102.496 20.7493C102.588 20.7493 102.698 20.7526 102.824 20.7592C102.953 20.7659 103.054 20.7741 103.127 20.7841V22.206C103.067 22.1894 102.961 22.1712 102.809 22.1513C102.656 22.1281 102.504 22.1165 102.351 22.1165C102 22.1165 101.687 22.1911 101.412 22.3402C101.14 22.486 100.925 22.6899 100.765 22.9517C100.606 23.2102 100.527 23.5052 100.527 23.8366V28.5H99.0403ZM106.999 28.6491C106.382 28.6491 105.832 28.4917 105.348 28.1768C104.867 27.8587 104.49 27.4062 104.214 26.8196C103.943 26.2296 103.807 25.522 103.807 24.6967C103.807 23.8714 103.944 23.1655 104.219 22.5788C104.498 21.9922 104.879 21.5431 105.363 21.2315C105.847 20.92 106.395 20.7642 107.009 20.7642C107.482 20.7642 107.864 20.8438 108.152 21.0028C108.444 21.1586 108.669 21.3409 108.828 21.5497C108.991 21.7585 109.116 21.9425 109.206 22.1016H109.295V18.3182H110.782V28.5H109.33V27.3118H109.206C109.116 27.4742 108.987 27.6598 108.818 27.8686C108.652 28.0774 108.424 28.2597 108.132 28.4155C107.84 28.5713 107.463 28.6491 106.999 28.6491ZM107.327 27.3814C107.754 27.3814 108.116 27.2687 108.411 27.0433C108.709 26.8146 108.934 26.4981 109.087 26.0938C109.242 25.6894 109.32 25.2187 109.32 24.6818C109.32 24.1515 109.244 23.6875 109.092 23.2898C108.939 22.892 108.715 22.5821 108.42 22.3601C108.125 22.138 107.761 22.027 107.327 22.027C106.879 22.027 106.506 22.143 106.208 22.375C105.91 22.607 105.684 22.9235 105.532 23.3246C105.383 23.7256 105.308 24.178 105.308 24.6818C105.308 25.1922 105.384 25.6513 105.537 26.0589C105.689 26.4666 105.915 26.7898 106.213 27.0284C106.515 27.2637 106.886 27.3814 107.327 27.3814Z" fill="black"/>
</svg>
