<svg width="56" height="62" viewBox="0 0 56 62" fill="none" xmlns="http://www.w3.org/2000/svg">
<path d="M17.8456 54.4824L24.223 56.1359V44.8327C24.223 43.367 23.8163 41.9301 23.0481 40.6818C22.4493 39.7087 21.6469 38.8766 20.6962 38.2428L19.9974 37.7769C18.8306 36.999 17.5298 36.444 16.1609 36.1398L15.9622 36.0956C14.3716 35.7421 12.7204 35.7639 11.1396 36.1591C9.97241 36.4509 8.86408 36.9412 7.86304 37.6085L7.39037 37.9236C6.12853 38.7649 5.0926 39.9031 4.3736 41.2384C3.89134 42.134 3.55994 43.103 3.39271 44.1063L0.519531 61.3454L16.5662 54.5757C16.9709 54.405 17.4205 54.3722 17.8456 54.4824Z" fill="#35B56B"/>
<path d="M50.5715 45.7368L52.6764 43.1961L51.9091 41.589C50.8526 39.3762 49.0497 37.6068 46.8175 36.592C45.3352 35.9181 43.7156 35.601 42.0886 35.666L41.936 35.6721C40.5711 35.7266 39.2281 36.0334 37.975 36.577L37.7378 36.6798C36.2429 37.3282 34.9195 38.3158 33.8724 39.5643C33.0993 40.4861 32.4904 41.534 32.0724 42.6622L31.8685 43.2123C31.3414 44.6349 31.051 46.1342 31.0089 47.6508L30.9925 48.2391C30.9668 49.1656 31.0149 50.0927 31.1365 51.0116L31.7798 55.8754L38.2925 54.3123L39.3009 53.9138C43.6864 52.1807 47.5631 49.368 50.5715 45.7368Z" fill="#35B56B"/>
<circle cx="28.3917" cy="30.8698" r="4.6886" fill="black" fill-opacity="0.72"/>
<circle cx="13.8058" cy="26.7023" r="4.6886" fill="#35B56B"/>
<circle cx="41.9347" cy="26.7023" r="4.6886" fill="#35B56B"/>
<path d="M1.56287 38.1631L4.94908 34.256L4.76356 33.0501C4.54026 31.5986 4.42813 30.1323 4.42813 28.6637V28.0312C4.42813 26.4548 4.59182 24.8826 4.91657 23.3401L4.93476 23.2537C5.29038 21.5645 5.84337 19.923 6.58234 18.3629L6.65485 18.2098C7.42457 16.5849 8.40246 15.067 9.5639 13.6944C10.3064 12.8168 11.1206 12.0026 11.9981 11.2601L12.4547 10.8738C13.527 9.96645 14.671 9.14742 15.8755 8.42472C17.2708 7.58758 18.7414 6.88314 20.2682 6.32064L20.8849 6.09342C22.2397 5.59428 23.6403 5.22949 25.0665 5.00431C26.9286 4.7103 28.8207 4.65642 30.6965 4.844L30.9975 4.87411C32.3838 5.01273 33.7556 5.26988 35.0979 5.64275L35.6494 5.79594C37.0583 6.1873 38.4191 6.73468 39.7065 7.42792C40.6708 7.94717 41.59 8.54613 42.4546 9.21853L43.4998 10.0315L45.5836 12.1153L45.8806 12.4123C47.4112 13.9429 48.7147 15.685 49.7513 17.5854C50.9579 20.5156 51.6517 23.6315 51.8024 26.7969L51.8351 27.4835V28.4292C51.8351 30.5691 51.5727 32.7009 51.0537 34.7769L54.7004 37.9026L54.9637 36.7441C55.6542 33.7057 56.0028 30.5995 56.0028 27.4835L55.9388 26.3324C55.8083 23.9828 55.3924 21.6578 54.7004 19.4087L54.5394 18.9901C53.7813 17.0191 52.7857 15.1478 51.5746 13.4177C49.8543 11.1813 47.924 9.07283 45.8441 7.16625C43.9372 5.7794 41.919 4.55248 39.81 3.498L39.3322 3.25908L36.7579 2.27841C34.8358 1.54619 32.8253 1.07157 30.7787 0.866911C29.3643 0.725465 27.9398 0.713693 26.5232 0.831743L26.0056 0.87488C23.6121 1.07433 21.2533 1.57448 18.9849 2.3635C17.2723 2.9592 15.6201 3.71643 14.0509 4.62495L13.6307 4.8682C12.1875 5.70374 10.8267 6.67411 9.56646 7.7663C8.22812 8.92619 7.00985 10.2178 5.93004 11.6215L4.94908 12.8968L4.01456 14.392C2.90551 16.1665 2.02544 18.0741 1.3953 20.0696C0.986745 21.3633 0.685013 22.6884 0.493141 24.0315L0.446892 24.3553C0.149856 26.4345 0.081271 28.5401 0.242361 30.6342L0.283175 31.1648C0.44136 33.2212 0.788357 35.2587 1.31978 37.2515L1.56287 38.1631Z" fill="#C70000"/>
<path d="M36.0857 55.1972L38.8123 54.3128V49.0007C38.8123 47.535 38.4056 46.0981 37.6374 44.8498C37.0386 43.8766 36.2362 43.0446 35.2855 42.4108L34.5867 41.9449C33.4199 41.167 32.1191 40.6119 30.7502 40.3077L30.5515 40.2636C28.9609 39.9101 27.3097 39.9318 25.7289 40.327C24.5617 40.6188 23.4534 41.1091 22.4523 41.7765L21.2192 42.5986C20.4502 43.1112 19.7704 43.7465 19.207 44.479C18.0697 45.9574 17.4531 47.7703 17.4531 49.6355V54.3128L22.1417 55.6152C26.7347 56.806 31.5722 56.661 36.0857 55.1972Z" fill="black" fill-opacity="0.72"/>
</svg>
