<svg width="111" height="110" viewBox="0 0 111 110" fill="none" xmlns="http://www.w3.org/2000/svg">
<rect x="0.5" y="0.250183" width="110" height="109.25" rx="14" fill="#E85D75"/>
<circle cx="68.7718" cy="69.4597" r="10.7281" fill="#35B56B"/>
<path fill-rule="evenodd" clip-rule="evenodd" d="M70.1667 66.3335H67.8334V68.0835C67.8334 68.2382 67.7719 68.3866 67.6625 68.496C67.5531 68.6054 67.4048 68.6668 67.25 68.6668C67.0953 68.6668 66.947 68.6054 66.8376 68.496C66.7282 68.3866 66.6667 68.2382 66.6667 68.0835V66.3335H65.5C65.3531 66.3335 65.2116 66.3889 65.1038 66.4888C64.996 66.5886 64.9298 66.7254 64.9185 66.8719L64.3835 73.8276C64.3713 73.9878 64.3922 74.1489 64.4451 74.3007C64.498 74.4524 64.5816 74.5916 64.6908 74.7096C64.8 74.8275 64.9324 74.9216 65.0797 74.9859C65.227 75.0502 65.386 75.0835 65.5467 75.0835H72.4534C72.6141 75.0835 72.7731 75.0502 72.9204 74.9859C73.0676 74.9216 73.2 74.8275 73.3093 74.7096C73.4185 74.5916 73.5021 74.4524 73.555 74.3007C73.6079 74.1489 73.6288 73.9878 73.6165 73.8276L73.0816 66.8719C73.0703 66.7254 73.0041 66.5886 72.8963 66.4888C72.7885 66.3889 72.647 66.3335 72.5 66.3335H71.3334V68.0835C71.3334 68.2382 71.2719 68.3866 71.1625 68.496C71.0531 68.6054 70.9048 68.6668 70.75 68.6668C70.5953 68.6668 70.447 68.6054 70.3376 68.496C70.2282 68.3866 70.1667 68.2382 70.1667 68.0835V66.3335ZM69 64.5835C68.6906 64.5835 68.3939 64.7064 68.1751 64.9252C67.9563 65.144 67.8334 65.4407 67.8334 65.7501V66.3335H66.6667V65.7501C66.6667 65.1313 66.9125 64.5378 67.3501 64.1002C67.7877 63.6626 68.3812 63.4168 69 63.4168C69.6189 63.4168 70.2124 63.6626 70.65 64.1002C71.0875 64.5378 71.3334 65.1313 71.3334 65.7501V66.3335H70.1667V65.7501C70.1667 65.4407 70.0438 65.144 69.825 64.9252C69.6062 64.7064 69.3095 64.5835 69 64.5835Z" fill="white"/>
<path d="M47.1997 75.6645L42.1312 74.6107C41.6064 74.5016 41.0912 74.3506 40.5906 74.1591L40.2333 74.0225C39.6609 73.8037 39.1193 73.5116 38.6221 73.1536L38.2991 72.921C38.0482 72.7404 37.8202 72.53 37.62 72.2944L37.463 72.1098C37.1178 71.7037 36.8893 71.2117 36.8017 70.686C36.775 70.5259 36.7616 70.3639 36.7616 70.2016V65.1104C36.9814 61.4468 38.8613 58.0837 41.8669 55.9773L43.2091 55.0365C43.6652 54.7169 44.1455 54.4331 44.6455 54.1878L45.3643 53.8352C46.4318 53.3115 47.5364 52.8671 48.6692 52.5056L49.6933 52.1787L49.0209 51.781C42.3165 47.8146 42.0854 38.1959 48.5915 33.912C52.1503 31.3206 56.9755 31.3248 60.5299 33.9222L60.5953 33.97L60.9087 34.2341C63.3126 36.2603 64.8416 39.1364 65.1765 42.2625L65.1209 43.0412C65.0423 44.1414 64.826 45.2275 64.4772 46.274C64.1722 47.1892 63.7231 48.0499 63.1469 48.8236L62.9015 49.1532C62.2948 49.9677 61.5772 50.6934 60.7693 51.3089L59.3195 52.1787L61.0899 52.6213C61.4555 52.7127 61.8137 52.8317 62.1614 52.9773C63.4721 53.5259 64.7233 54.2074 65.8952 55.011L68.1919 56.5859L67.7412 56.6245C58.2295 57.4391 52.8356 67.9117 57.6958 76.1284H52.5348L47.1997 75.6645Z" fill="white"/>
</svg>
