<svg width="22" height="23" viewBox="0 0 22 23" fill="none" xmlns="http://www.w3.org/2000/svg">
<path d="M21.4169 13.5641C20.9715 13.823 20.4964 14.0424 19.9923 14.2225C19.1403 14.527 18.2462 14.6783 17.313 14.6783H17.3128C14.7113 14.6773 12.4882 13.7204 10.6721 11.8241C8.85687 9.92875 7.94875 7.61835 7.94875 4.92279C7.94875 3.95921 8.09263 3.03359 8.3821 2.14836C8.56169 1.59918 8.78221 1.07961 9.04401 0.590327C6.71595 1.04763 4.74668 2.2232 3.12336 4.13305C1.37505 6.18993 0.5 8.61437 0.5 11.4306C0.5 14.5207 1.53047 17.1273 3.59241 19.2802C5.6535 21.4323 8.13989 22.5 11.0802 22.5L21.4169 13.5641ZM21.4169 13.5641C20.992 16.0105 19.8677 18.0731 18.0383 19.7684C16.0705 21.5918 13.7602 22.499 11.0803 22.5L21.4169 13.5641Z" stroke="#87868B"/>
</svg>
