<svg width="111" height="110" viewBox="0 0 111 110" fill="none" xmlns="http://www.w3.org/2000/svg">
<rect x="0.5" width="110" height="109.25" rx="14" fill="#D24A3D"/>
<path fill-rule="evenodd" clip-rule="evenodd" d="M93.5745 48.0974C93.4754 48.0974 88.8714 46.9891 88.8714 46.9891C84.5194 44.7553 79.6528 42.2703 74.8063 41.0406C73.5778 40.7288 72.3536 40.4583 71.1356 40.3392C69.6341 40.1927 61.0493 39.7851 56.6862 40.1438C52.3232 40.5025 49.4188 41.0564 47.9173 41.692C46.4157 42.3277 34.4598 49.3359 34.3321 49.4334C34.2045 49.5313 33.9143 49.6618 33.9143 49.6618C33.9143 49.6618 24.664 50.7943 22.3975 51.7397C20.131 52.6851 17.5032 54.3557 17.0355 54.8281C16.5681 55.3008 15.9093 56.8165 15.7747 57.4277C15.64 58.0388 15.64 58.2832 15.64 58.2832C15.64 58.2832 15.0946 58.7479 15.0663 59.0248C15.038 59.3021 14.9247 61.0132 15.0806 62.5943C15.2365 64.1754 15.4206 64.7946 15.4206 64.7946C15.4206 64.7946 15.0948 64.974 15.2365 65.4792C15.3781 65.9844 17.1772 66.718 18.8771 66.9299C20.5771 67.1417 21.9936 67.3536 21.9936 67.3536H22.2911C22.2911 67.3536 22.3692 67.9648 22.454 67.9403C22.5391 67.9158 23.4596 67.7529 23.4596 67.7529L34.8916 67.647L35.6848 67.2232L72.4166 67.0438L73.6066 67.2068L85.0244 65.4138L86.1293 65.7722C86.1293 65.7722 92.4048 64.5173 93.6231 64.1425C94.8415 63.7677 95.5781 62.5618 95.6489 62.4475C95.7197 62.3335 95.9182 62.1216 95.989 61.8118C96.0598 61.502 95.7658 61.1027 95.7658 61.1027C95.7658 61.1027 95.8969 57.5376 95.7483 57.2768C95.5997 57.016 94.9339 56.4457 94.7071 55.4838C94.4804 54.5223 94.6506 52.6318 94.2963 51.1486C93.9419 49.6654 94.1121 48.8994 93.921 48.5246C93.7298 48.1507 93.5745 48.0974 93.5745 48.0974Z" fill="white"/>
<path fill-rule="evenodd" clip-rule="evenodd" d="M56.2882 50.4306C46.6859 50.9355 37.5413 51.3905 37.5547 51.305C37.583 51.1256 38.1072 49.9847 39.8212 48.469C41.5352 46.9533 46.0116 43.9709 48.9582 42.8625C51.4921 41.9094 54.8015 41.5108 57.904 41.3867L56.2882 50.4306Z" fill="#D24A3D"/>
<path fill-rule="evenodd" clip-rule="evenodd" d="M78.1506 47.043C78.2214 47.1653 78.4129 47.2713 78.4411 47.6947C78.4694 48.1185 78.1436 49.1943 78.0658 49.2349C78.0291 49.254 69.0541 49.7532 59.5625 50.2574C59.7242 48.3837 60.1616 43.5228 60.349 41.3399C63.7432 41.3356 68.008 41.534 69.4172 41.7868C70.9613 42.0637 73.6812 43.4654 74.8995 44.2479C76.1178 45.0301 78.1506 47.043 78.1506 47.043Z" fill="#D24A3D"/>
<path fill-rule="evenodd" clip-rule="evenodd" d="M92.2428 53.0805C92.2933 53.1442 93.6844 52.9041 94.5134 52.7593C94.4781 52.2105 94.4181 51.656 94.2972 51.1491C94.067 50.1849 94.0582 49.5237 94.0279 49.0762C93.9495 49.0933 93.8796 49.1097 93.8435 49.1197C93.7301 49.1523 93.6736 49.2582 93.1776 49.7474C92.6817 50.2362 91.3716 50.9777 91.2865 51.1246C91.2017 51.2711 92.172 52.9906 92.2428 53.0805Z" fill="#D24A3D"/>
<path d="M17.2879 55.263L17.3855 55.2227C17.9379 54.9946 18.8546 54.7407 19.8246 54.6409L19.8246 54.6409C20.6141 54.5599 21.2772 54.4933 21.7589 54.4766C21.9983 54.4683 22.2092 54.4715 22.375 54.4959C22.4578 54.5081 22.5431 54.5274 22.6202 54.5611C22.6954 54.5939 22.7909 54.6528 22.851 54.7606L17.2879 55.263ZM17.2879 55.263L17.2371 55.3555M17.2879 55.263L17.2371 55.3555M17.2371 55.3555C16.8693 56.025 16.5777 56.9265 16.4814 57.3644L17.2371 55.3555ZM16.4813 57.3645C16.3985 57.7402 16.3641 57.9866 16.3499 58.1292L16.3124 58.507L16.6886 58.4561C16.7425 58.4489 16.7982 58.4413 16.8553 58.4335C17.2061 58.3855 17.6089 58.3305 17.9526 58.3027C18.301 58.2746 18.6299 58.3481 18.9005 58.4373C19.0326 58.4809 19.1471 58.5268 19.2447 58.566L19.251 58.5685C19.2987 58.5877 19.3469 58.6069 19.3884 58.6218C19.4233 58.6343 19.4815 58.6543 19.5409 58.6604C19.6067 58.6672 19.6582 58.6512 19.6793 58.6439C19.7052 58.6349 19.7262 58.6242 19.74 58.6165C19.7678 58.6011 19.7932 58.583 19.8132 58.568C19.8546 58.5368 19.9025 58.4955 19.9531 58.4496C20.0557 58.3564 20.1893 58.2255 20.3408 58.0713C20.6448 57.762 21.0323 57.3475 21.41 56.9262C21.7872 56.5055 22.1585 56.0739 22.4289 55.7309C22.5632 55.5605 22.6777 55.4055 22.756 55.2818C22.7942 55.2212 22.8306 55.1577 22.8553 55.0976C22.8675 55.0681 22.8818 55.0276 22.8888 54.9814C22.8948 54.9415 22.9023 54.8525 22.8511 54.7607L16.4813 57.3645Z" fill="#D24A3D" stroke="white" stroke-width="0.6"/>
<path fill-rule="evenodd" clip-rule="evenodd" d="M16.9373 62.9172C16.7036 62.7462 15.818 62.6973 15.818 62.6973C15.818 62.6973 15.7615 62.8196 15.7967 62.95C15.8323 63.0805 16.5121 65.3133 16.8522 65.5332C17.1922 65.7531 18.97 65.8755 19.0478 65.8427C19.1259 65.8101 17.171 63.0885 16.9373 62.9172Z" fill="#D24A3D"/>
<path fill-rule="evenodd" clip-rule="evenodd" d="M37.456 50.0246C38.1076 49.2424 39.3 48.639 39.8227 48.468C40.3458 48.297 40.8275 51.7847 40.6008 52.0455C40.3741 52.3064 37.1725 53.3168 36.7477 52.6647C36.3228 52.013 37.456 50.0246 37.456 50.0246Z" fill="white"/>
<path d="M32.302 70.5938C35.2712 68.4632 36.1396 64.0049 34.3245 60.6565C32.5093 57.308 28.6474 56.2441 25.6782 58.3747C22.7089 60.5053 21.8405 64.9637 23.6557 68.3121C25.4708 71.6605 29.3328 72.7244 32.302 70.5938Z" fill="white" stroke="#D24A3D"/>
<path d="M33.4088 65.4615C33.8761 62.6617 32.2822 59.9561 29.8486 59.4184C27.4151 58.8807 25.0635 60.7146 24.5962 63.5144C24.1288 66.3143 25.7228 69.0199 28.1563 69.5575C30.5898 70.0952 32.9414 68.2614 33.4088 65.4615Z" fill="#D24A3D"/>
<path fill-rule="evenodd" clip-rule="evenodd" d="M28.9848 69.0226C31.1536 69.0226 32.923 66.9873 32.923 64.4919C32.923 61.9966 31.1539 59.9609 28.9848 59.9609C26.8156 59.9609 25.0469 61.9963 25.0469 64.4919C25.0469 66.9876 26.8156 69.0226 28.9848 69.0226Z" fill="white"/>
<path fill-rule="evenodd" clip-rule="evenodd" d="M32.3511 62.1379C32.1014 63.0035 31.4755 63.5047 30.754 63.735C31.3703 62.8462 31.6635 61.9431 31.5446 60.7536C31.148 60.4518 30.4635 59.9858 29.918 60.0904C30.2735 60.9054 30.1389 61.7691 29.7703 62.519C29.6601 61.3892 29.3122 60.5118 28.4969 59.7676C28.0312 59.8769 27.2605 60.1042 26.9391 60.6218C27.6915 60.9088 28.1271 61.6293 28.3273 62.459C27.5548 61.7496 26.7698 61.4127 25.7359 61.5495C25.4736 62.0058 25.0686 62.7933 25.1595 63.4209C25.8679 63.0119 26.6185 63.1668 27.2704 63.5909C26.2884 63.7179 25.5258 64.1182 24.8789 65.0559C24.9739 65.592 25.1715 66.4784 25.6214 66.8482C25.8708 65.9826 26.497 65.4814 27.2182 65.251C26.6016 66.1398 26.3088 67.043 26.4277 68.2325C26.8243 68.5342 27.5087 69.0002 28.0542 68.8956C27.6987 68.0806 27.8334 67.217 28.202 66.467C28.3121 67.5968 28.6603 68.4742 29.4754 69.2185C29.9413 69.1092 30.7118 68.8819 31.0332 68.3642C30.2808 68.0769 29.8451 67.3568 29.645 66.527C30.4174 67.2361 31.2025 67.5734 32.2363 67.4366C32.4986 66.9803 32.9036 66.1928 32.8127 65.5652C32.1043 65.9742 31.3537 65.8193 30.7019 65.3952C31.6839 65.2685 32.4464 64.8678 33.0933 63.9301C32.9986 63.3944 32.8011 62.5076 32.3511 62.1379Z" fill="#D24A3D"/>
<path fill-rule="evenodd" clip-rule="evenodd" d="M28.9906 65.4696C29.4589 65.4696 29.8406 65.0304 29.8406 64.4916C29.8406 63.9529 29.4589 63.5137 28.9906 63.5137C28.5224 63.5137 28.1406 63.9529 28.1406 64.4916C28.1406 65.0304 28.5224 65.4696 28.9906 65.4696Z" fill="white"/>
<path d="M82.1856 70.8729C85.296 69.0014 86.4471 64.6289 84.8622 61.1421C83.2773 57.6554 79.4993 56.2486 76.3889 58.1201C73.2784 59.9916 72.1274 64.3641 73.7123 67.8509C75.2972 71.3377 79.0751 72.7444 82.1856 70.8729Z" fill="white" stroke="#D24A3D"/>
<path d="M80.3182 69.5316C82.7307 68.881 84.228 66.1036 83.6625 63.328C83.0971 60.5524 80.683 58.8297 78.2705 59.4802C75.858 60.1308 74.3607 62.9083 74.9262 65.6839C75.4916 68.4595 77.9057 70.1822 80.3182 69.5316Z" fill="#D24A3D"/>
<path fill-rule="evenodd" clip-rule="evenodd" d="M79.2937 69.0246C81.4628 69.0246 83.2319 66.9892 83.2319 64.4939C83.2319 61.9986 81.4628 59.9629 79.2937 59.9629C77.1245 59.9629 75.3555 61.9982 75.3555 64.4939C75.3555 66.9896 77.1245 69.0246 79.2937 69.0246Z" fill="white"/>
<path fill-rule="evenodd" clip-rule="evenodd" d="M82.6597 62.1398C82.41 63.0054 81.7841 63.5066 81.0626 63.737C81.6792 62.8482 81.9723 61.945 81.8532 60.7555C81.4566 60.4538 80.7721 59.9878 80.2266 60.0924C80.5821 60.9074 80.4475 61.771 80.0789 62.521C79.9687 61.3912 79.6208 60.5138 78.8055 59.7695C78.3395 59.8788 77.5691 60.1061 77.2477 60.6238C78 60.9107 78.4357 61.6312 78.6359 62.461C77.8634 61.7516 77.0784 61.4146 76.0445 61.5514C75.7822 62.0077 75.3772 62.7952 75.4681 63.4228C76.1768 63.0138 76.9271 63.1687 77.579 63.5928C76.597 63.7199 75.8344 64.1202 75.1875 65.0579C75.2825 65.594 75.4801 66.4804 75.93 66.8502C76.1797 65.9845 76.8056 65.4833 77.5271 65.253C76.9108 66.1418 76.6174 67.045 76.7365 68.2344C77.1331 68.5362 77.8176 69.0022 78.3631 68.8976C78.0076 68.0826 78.1423 67.219 78.5109 66.469C78.6213 67.5988 78.9689 68.4762 79.7843 69.2204C80.2499 69.1111 81.0207 68.8838 81.3421 68.3662C80.5897 68.0789 80.154 67.3587 79.9538 66.529C80.7263 67.2381 81.5114 67.5753 82.5452 67.4385C82.8075 66.9823 83.2125 66.1947 83.1216 65.5671C82.4132 65.9762 81.6626 65.8213 81.0107 65.3972C81.9927 65.2704 82.7553 64.8698 83.4022 63.9321C83.3072 63.3963 83.1097 62.5096 82.6597 62.1398Z" fill="#D24A3D"/>
<path fill-rule="evenodd" clip-rule="evenodd" d="M79.2953 65.4725C79.7636 65.4725 80.1453 65.0333 80.1453 64.4945C80.1453 63.9558 79.7636 63.5166 79.2953 63.5166C78.8273 63.5166 78.4453 63.9558 78.4453 64.4945C78.4453 65.0333 78.8273 65.4725 79.2953 65.4725Z" fill="white"/>
<path d="M75.0162 41.2772L75.0162 41.2772C74.9736 41.2564 74.9402 41.2375 74.9142 41.221C79.502 42.3428 83.848 44.5764 88.1437 46.7841C88.2714 46.8498 88.3991 46.9154 88.5268 46.981C88.4599 46.9788 88.3784 46.9703 88.2816 46.9546C87.9285 46.8971 87.4253 46.7517 86.8134 46.5394C85.5924 46.1157 83.9688 45.436 82.3127 44.7014C79.1122 43.2817 75.8048 41.6631 75.0817 41.3092C75.0567 41.297 75.0349 41.2863 75.0162 41.2772Z" fill="#D24A3D" stroke="white" stroke-width="0.3"/>
</svg>
