<svg width="21" height="21" viewBox="0 0 21 21" fill="none" xmlns="http://www.w3.org/2000/svg">
<path d="M10.3533 2H3.35327C2.82284 2 2.31413 2.21071 1.93906 2.58579C1.56399 2.96086 1.35327 3.46957 1.35327 4V18C1.35327 18.5304 1.56399 19.0391 1.93906 19.4142C2.31413 19.7893 2.82284 20 3.35327 20H17.3533C17.8837 20 18.3924 19.7893 18.7675 19.4142C19.1426 19.0391 19.3533 18.5304 19.3533 18V11" stroke="#3D50DF" stroke-linecap="round" stroke-linejoin="round"/>
<path d="M16.7284 1.625C17.1262 1.22717 17.6658 1.00368 18.2284 1.00368C18.791 1.00368 19.3305 1.22717 19.7284 1.625C20.1262 2.02282 20.3497 2.56239 20.3497 3.125C20.3497 3.68761 20.1262 4.22717 19.7284 4.625L10.7154 13.639C10.4779 13.8762 10.1846 14.0499 9.86237 14.144L6.98936 14.984C6.90332 15.0091 6.8121 15.0106 6.72527 14.9884C6.63844 14.9661 6.55919 14.9209 6.49581 14.8576C6.43243 14.7942 6.38725 14.7149 6.36501 14.6281C6.34276 14.5413 6.34427 14.45 6.36936 14.364L7.20937 11.491C7.30389 11.169 7.4779 10.8761 7.71537 10.639L16.7284 1.625Z" stroke="#3D50DF" stroke-linecap="round" stroke-linejoin="round"/>
</svg>
