<svg width="24" height="19" viewBox="0 0 24 19" fill="none" xmlns="http://www.w3.org/2000/svg">
<path d="M2.15467 19C1.54044 19 1.028 18.791 0.617333 18.373C0.206667 17.955 0.000888889 17.433 0 16.8069V2.19314C0 1.56795 0.205778 1.04636 0.617333 0.628357C1.02889 0.210357 1.54089 0.000904762 2.15333 0H21.8467C22.46 0 22.972 0.209452 23.3827 0.628357C23.7933 1.04726 23.9991 1.56886 24 2.19314V16.8082C24 17.4325 23.7942 17.9541 23.3827 18.373C22.9711 18.7919 22.4591 19.0009 21.8467 19H2.15467ZM12 9.65743L22.6667 2.55821L22.256 1.35714L12 8.14286L1.744 1.35714L1.33333 2.55821L12 9.65743Z" fill="#5669FF"/>
</svg>
