<svg width="141" height="139" viewBox="0 0 141 139" fill="none" xmlns="http://www.w3.org/2000/svg">
<path d="M3.68162 29.9142L41.8096 67.5771C42.6022 68.3601 42.6022 69.6399 41.8096 70.4229L3.65535 108.112C2.8764 108.881 2.86096 110.134 3.62071 110.922L27.3785 135.577C28.1385 136.365 29.3917 136.396 30.1893 135.645L69.8371 98.3298C70.6242 97.589 71.8576 97.6076 72.622 98.372L109.836 135.586C110.617 136.367 111.883 136.367 112.664 135.586L137.327 110.923C138.112 110.138 138.108 108.865 137.318 108.086L99.1904 70.4229C98.3978 69.6399 98.3978 68.3601 99.1904 67.5771L137.292 29.9406C138.091 29.1508 138.083 27.8574 137.274 27.0776L112.638 3.33777C111.863 2.59113 110.637 2.59134 109.862 3.33824L70.6637 41.1367C69.8788 41.8936 68.6323 41.8823 67.8613 41.1113L30.1642 3.41421C29.3832 2.63316 28.1168 2.63316 27.3358 3.41421L3.67292 27.0771C2.88848 27.8615 2.89238 29.1345 3.68162 29.9142Z" stroke="#FE0000" stroke-width="5"/>
</svg>
