<svg width="20" height="13" viewBox="0 0 20 13" fill="none" xmlns="http://www.w3.org/2000/svg">
<path d="M10 9C11.6569 9 13 7.88071 13 6.5C13 5.11929 11.6569 4 10 4C8.34315 4 7 5.11929 7 6.5C7 7.88071 8.34315 9 10 9Z" fill="#979797"/>
<path d="M19.7857 5.79313C18.6832 4.13075 17.2528 2.71863 15.6495 1.70909C13.8757 0.591094 11.9174 0 9.98659 0C8.21494 0 6.47287 0.493594 4.80871 1.46697C3.11164 2.45944 1.57415 3.90934 0.238746 5.77606C0.0879907 5.98703 0.00496385 6.23693 0.000215679 6.49401C-0.0045325 6.7511 0.0692124 7.00375 0.21208 7.21987C1.31249 8.89891 2.72873 10.3131 4.30705 11.3088C6.08412 12.4312 7.99661 13 9.98659 13C11.9328 13 13.8953 12.4138 15.6616 11.3051C17.264 10.2988 18.6915 8.88144 19.7899 7.20525C19.9278 6.99415 20.0007 6.7489 20 6.49859C19.9993 6.24829 19.9249 6.00345 19.7857 5.79313ZM10.0008 10.4C9.20964 10.4 8.43629 10.1713 7.7785 9.74273C7.1207 9.31419 6.60802 8.7051 6.30527 7.99247C6.00252 7.27983 5.92331 6.49567 6.07765 5.73915C6.23199 4.98262 6.61295 4.28771 7.17235 3.74228C7.73176 3.19686 8.44449 2.82542 9.2204 2.67494C9.99632 2.52446 10.8006 2.60169 11.5315 2.89687C12.2624 3.19205 12.8871 3.69192 13.3266 4.33328C13.7661 4.97463 14.0007 5.72865 14.0007 6.5C13.9995 7.53398 13.5777 8.52527 12.8278 9.25641C12.078 9.98755 11.0612 10.3988 10.0008 10.4Z" fill="#979797"/>
</svg>
