<svg width="29" height="24" viewBox="0 0 29 24" fill="none" xmlns="http://www.w3.org/2000/svg">
<path fill-rule="evenodd" clip-rule="evenodd" d="M13.2629 17.9607C13.6042 17.9865 13.956 18 14.3186 18C20.0485 18 24.8233 12 24.8233 12C24.8233 12 24.0418 11.0179 22.7316 9.84836L13.2629 17.9607Z" fill="#979797"/>
<path fill-rule="evenodd" clip-rule="evenodd" d="M17.2426 6.49485C16.3117 6.18695 15.3301 6 14.3186 6C6.67883 6 3.8139 12 3.8139 12C3.8139 12 4.68937 13.8335 6.76295 15.4734L10.8171 12C10.8171 10.3431 12.3848 9 14.3186 9L17.2426 6.49485Z" fill="#979797"/>
<rect opacity="0.3" width="20.6495" height="2.17363" transform="matrix(0.759401 -0.650622 0.759401 0.650622 6.26501 18.435)" fill="#979797"/>
</svg>
