<svg width="40" height="40" viewBox="0 0 40 40" fill="none" xmlns="http://www.w3.org/2000/svg">
<rect width="40" height="40" rx="9" fill="#F2F2F2"/>
<path d="M30.171 10.9806C31.3423 12.2459 32 13.959 32 15.7449C32 17.5307 31.3423 19.2438 30.171 20.5092L20.4972 31L10.8234 20.5085C9.95329 19.5663 9.36086 18.3688 9.12029 17.0661C8.87972 15.7633 9.00169 14.4131 9.47095 13.1846C9.94021 11.9561 10.7359 10.9037 11.7584 10.1594C12.7809 9.41507 13.9847 9.01178 15.2192 9.00002C16.8699 9.01032 18.4499 9.72196 19.6151 10.9799C19.9552 11.3422 20.2515 11.7491 20.4972 12.191C20.7429 11.7493 21.0393 11.3427 21.3793 10.9806C21.9535 10.3535 22.6379 9.85556 23.3926 9.51567C24.1473 9.17578 24.9573 9.00074 25.7755 9.00074C26.5936 9.00074 27.4036 9.17578 28.1583 9.51567C28.913 9.85556 29.5968 10.3535 30.171 10.9806Z" stroke="#87868B" stroke-width="1.5" stroke-linecap="round" stroke-linejoin="round"/>
</svg>
