<svg width="111" height="110" viewBox="0 0 111 110" fill="none" xmlns="http://www.w3.org/2000/svg">
<rect x="0.5" width="110" height="109.25" rx="14" fill="#008080"/>
<ellipse cx="34.5085" cy="31.3594" rx="6.98511" ry="6.35938" fill="white"/>
<ellipse cx="34.5085" cy="68.3594" rx="6.98511" ry="6.35938" fill="white"/>
<path d="M44.9404 49.8594C46.5973 49.8594 47.9793 48.4906 47.5188 46.8991C46.908 44.7881 45.6496 42.8397 43.8486 41.2747C41.2287 38.9978 37.6753 37.7188 33.9702 37.7188C30.2651 37.7187 26.7117 38.9978 24.0918 41.2747C22.2909 42.8397 21.0324 44.7881 20.4216 46.8991C19.9611 48.4906 21.3431 49.8594 23 49.8594L33.9702 49.8594H44.9404Z" fill="white"/>
<path d="M44.9404 86.8594C46.5973 86.8594 47.9793 85.4906 47.5188 83.8991C46.908 81.7881 45.6496 79.8397 43.8486 78.2747C41.2287 75.9978 37.6753 74.7188 33.9702 74.7188C30.2651 74.7187 26.7117 75.9978 24.0918 78.2747C22.2909 79.8397 21.0324 81.7881 20.4216 83.8991C19.9611 85.4906 21.3431 86.8594 23 86.8594L33.9702 86.8594H44.9404Z" fill="white"/>
<path d="M52.2422 59.2188C52.2422 57.5619 53.5853 56.2188 55.2422 56.2188H73.9587C75.6156 56.2188 76.9587 57.5619 76.9587 59.2188V71.7188C76.9587 73.3756 75.6156 74.7188 73.9587 74.7188H55.2422C53.5853 74.7188 52.2422 73.3756 52.2422 71.7188V59.2188Z" fill="white"/>
<path d="M57.4279 79.915L56.5359 74.7185H61.7812L57.4279 79.915Z" fill="white"/>
<path d="M51.9531 36.6904L88.5928 36.3249C90.2656 36.3082 91.6338 37.6628 91.6338 39.3356L91.6338 60.1188C91.6338 61.7713 90.2973 63.1077 88.6447 63.1077L82.7305 63.1077" stroke="white" stroke-width="2.5"/>
<path d="M56.7627 32.1765L50.3436 36.8086L56.8873 41.3113" stroke="white" stroke-width="2.5" stroke-linecap="round"/>
</svg>
