<svg width="40" height="40" viewBox="0 0 40 40" fill="none" xmlns="http://www.w3.org/2000/svg">
<rect width="40" height="40" rx="9" fill="#F2F2F2"/>
<path d="M22.2002 22.8H16.7002" stroke="#87868B" stroke-width="1.5" stroke-linecap="round"/>
<path d="M9 14.6925C9 13.677 9 13.1699 9.077 12.7467C9.24115 11.838 9.66345 11.0021 10.2888 10.3482C10.9142 9.69415 11.7136 9.25239 12.5827 9.0805C12.9886 9 13.4748 9 14.445 9C14.8696 9 15.083 9 15.2876 9.01955C16.1688 9.10606 17.0045 9.46837 17.6856 10.0591C17.844 10.196 17.9936 10.3524 18.295 10.6675L18.9 11.3C19.7976 12.2384 20.2464 12.7076 20.7832 13.0192C21.0782 13.1912 21.3912 13.327 21.716 13.4241C22.3078 13.6 22.9425 13.6 24.2108 13.6H24.6222C27.5174 13.6 28.9661 13.6 29.9066 14.4855C29.9939 14.566 30.076 14.6519 30.153 14.7431C31 15.7263 31 17.2409 31 20.2677V22.8C31 27.1366 31 29.3055 29.7108 30.6522C28.4216 31.9988 26.3481 32 22.2 32H17.8C13.6519 32 11.5773 32 10.2892 30.6522C9.0011 29.3044 9 27.1366 9 22.8V14.6925Z" stroke="#87868B" stroke-width="1.5"/>
</svg>
