<svg width="24" height="25" viewBox="0 0 24 25" fill="none" xmlns="http://www.w3.org/2000/svg">
<path d="M14.2002 14.8H8.7002" stroke="#87868B" stroke-width="1.5" stroke-linecap="round"/>
<path d="M1 6.6925C1 5.67705 1 5.1699 1.077 4.7467C1.24115 3.83802 1.66345 3.00215 2.28882 2.34815C2.91418 1.69415 3.71358 1.25239 4.5827 1.0805C4.9886 1 5.4748 1 6.445 1C6.8696 1 7.083 1 7.2876 1.01955C8.16875 1.10606 9.00447 1.46837 9.6856 2.05915C9.844 2.196 9.9936 2.3524 10.295 2.6675L10.9 3.3C11.7976 4.2384 12.2464 4.7076 12.7832 5.01925C13.0782 5.19117 13.3912 5.327 13.716 5.42405C14.3078 5.6 14.9425 5.6 16.2108 5.6H16.6222C19.5174 5.6 20.9661 5.6 21.9066 6.4855C21.9939 6.566 22.076 6.65187 22.153 6.7431C23 7.72635 23 9.2409 23 12.2677V14.8C23 19.1366 23 21.3055 21.7108 22.6522C20.4216 23.9988 18.3481 24 14.2 24H9.8C5.6519 24 3.5773 24 2.2892 22.6522C1.0011 21.3044 1 19.1366 1 14.8V6.6925Z" stroke="#87868B" stroke-width="1.5"/>
</svg>
