<svg width="17" height="9" viewBox="0 0 17 9" fill="none" xmlns="http://www.w3.org/2000/svg">
<g clip-path="url(#clip0_2640_11522)">
<path d="M8.5 8.74999C8.43442 8.75079 8.36941 8.73786 8.30913 8.71202C8.24885 8.68619 8.19465 8.64803 8.15 8.59999L3.65 4.09999C3.45 3.89999 3.45 3.58999 3.65 3.38999C3.85 3.18999 4.16 3.18999 4.36 3.38999L8.51 7.53999L12.65 3.39999C12.85 3.19999 13.16 3.19999 13.36 3.39999C13.56 3.59999 13.56 3.90999 13.36 4.10999L8.86 8.60999C8.76 8.70999 8.63 8.75999 8.51 8.75999L8.5 8.74999Z" fill="black"/>
</g>
<defs>
<clipPath id="clip0_2640_11522">
<rect width="16" height="8.52" fill="white" transform="translate(0.5 0.23999)"/>
</clipPath>
</defs>
</svg>
