<svg width="24" height="25" viewBox="0 0 24 25" fill="none" xmlns="http://www.w3.org/2000/svg">
<path fill-rule="evenodd" clip-rule="evenodd" d="M2.57129 11.7649H21.4284V20.5045C21.4284 21.4316 21.0973 22.3208 20.5079 22.9764C19.9185 23.632 19.1191 24.0003 18.2856 24.0003H5.71415C4.88061 24.0003 4.08121 23.632 3.49181 22.9764C2.90241 22.3208 2.57129 21.4316 2.57129 20.5045V11.7649Z" stroke="#87868B" stroke-linecap="round" stroke-linejoin="round"/>
<path d="M12 6.52083H7.28571C6.05843 5.15571 6.05843 2.6422 7.28571 1.27708C8.513 -0.0880418 12 3.89896 12 6.52083ZM12 6.52083H16.7143C17.9416 5.15571 17.9416 2.6422 16.7143 1.27708C15.487 -0.0880418 12 3.89896 12 6.52083ZM2.57143 6.52083H21.4286C21.8453 6.52083 22.245 6.70499 22.5397 7.03279C22.8344 7.36058 23 7.80517 23 8.26875V10.0167C23 10.4802 22.8344 10.9248 22.5397 11.2526C22.245 11.5804 21.8453 11.7646 21.4286 11.7646H2.57143C2.15466 11.7646 1.75496 11.5804 1.46026 11.2526C1.16556 10.9248 1 10.4802 1 10.0167V8.26875C1 7.80517 1.16556 7.36058 1.46026 7.03279C1.75496 6.70499 2.15466 6.52083 2.57143 6.52083Z" stroke="#87868B" stroke-linecap="round" stroke-linejoin="round"/>
<path d="M9 12V17.6764C9 17.8251 9.15646 17.9218 9.28944 17.8553L11.9106 16.5447C11.9669 16.5166 12.0331 16.5166 12.0894 16.5447L14.7106 17.8553C14.8435 17.9218 15 17.8251 15 17.6764V12" stroke="#87868B" stroke-width="0.5"/>
</svg>
