<svg width="40" height="40" viewBox="0 0 40 40" fill="none" xmlns="http://www.w3.org/2000/svg">
<rect width="40" height="40" rx="9" fill="#F2F2F2"/>
<path fill-rule="evenodd" clip-rule="evenodd" d="M10.5713 18.7649H29.4284V27.5045C29.4284 28.4316 29.0973 29.3208 28.5079 29.9764C27.9185 30.632 27.1191 31.0003 26.2856 31.0003H13.7141C12.8806 31.0003 12.0812 30.632 11.4918 29.9764C10.9024 29.3208 10.5713 28.4316 10.5713 27.5045V18.7649Z" stroke="#87868B" stroke-linecap="round" stroke-linejoin="round"/>
<path d="M20 13.5208H15.2857C14.0584 12.1557 14.0584 9.6422 15.2857 8.27708C16.513 6.91196 20 10.899 20 13.5208ZM20 13.5208H24.7143C25.9416 12.1557 25.9416 9.6422 24.7143 8.27708C23.487 6.91196 20 10.899 20 13.5208ZM10.5714 13.5208H29.4286C29.8453 13.5208 30.245 13.705 30.5397 14.0328C30.8344 14.3606 31 14.8052 31 15.2687V17.0167C31 17.4802 30.8344 17.9248 30.5397 18.2526C30.245 18.5804 29.8453 18.7646 29.4286 18.7646H10.5714C10.1547 18.7646 9.75496 18.5804 9.46026 18.2526C9.16556 17.9248 9 17.4802 9 17.0167V15.2687C9 14.8052 9.16556 14.3606 9.46026 14.0328C9.75496 13.705 10.1547 13.5208 10.5714 13.5208Z" stroke="#87868B" stroke-linecap="round" stroke-linejoin="round"/>
<path d="M17 19V24.6764C17 24.8251 17.1565 24.9218 17.2894 24.8553L19.9106 23.5447C19.9669 23.5166 20.0331 23.5166 20.0894 23.5447L22.7106 24.8553C22.8435 24.9218 23 24.8251 23 24.6764V19" stroke="#87868B" stroke-width="0.5"/>
</svg>
