<?xml version="1.0" encoding="iso-8859-1"?>
<!-- Generator: Adobe Illustrator 25.2.3, SVG Export Plug-In . SVG Version: 6.00 Build 0)  -->
<svg version="1.1" baseProfile="basic" id="fluent" xmlns="http://www.w3.org/2000/svg" xmlns:xlink="http://www.w3.org/1999/xlink"
	 x="0px" y="0px" viewBox="0 0 48 48" xml:space="preserve">
<path style="fill:#BDBDBD;" d="M42,11v4l-6,1l1-10C39.76,6,42,8.24,42,11z"/>
<polygon style="fill:#29B6F6;" points="42,15 42,24 36,25 37,15 "/>
<path style="fill:#00C853;" d="M42,33v4c0,2.76-2.24,5-5,5l-1-10L42,33z"/>
<polygon style="fill:#FF9800;" points="42,24 42,33 36,33 37,24 "/>
<path style="fill:#D7CCC8;" d="M37,6v36H11c-2.76,0-5-2.24-5-5V11c0-2.76,2.24-5,5-5H37z"/>
<path style="fill:#9E9E9E;" d="M22,36c-6.617,0-12-5.383-12-12s5.383-12,12-12s12,5.383,12,12S28.617,36,22,36z M22,14
	c-5.514,0-10,4.486-10,10s4.486,10,10,10s10-4.486,10-10S27.514,14,22,14z"/>
<path style="fill:#9E9E9E;" d="M30.36,31.15C28.35,33.51,25.35,35,22,35s-6.35-1.49-8.36-3.85C14.96,29.31,18.2,28,22,28
	S29.04,29.31,30.36,31.15z"/>
<circle style="fill:#9E9E9E;" cx="22" cy="22" r="4"/>
</svg>