<svg width="9" height="9" viewBox="0 0 9 9" fill="none" xmlns="http://www.w3.org/2000/svg">
<path fill-rule="evenodd" clip-rule="evenodd" d="M4.24314 0.88396C2.36097 1.01572 0.875 2.58433 0.875 4.5C0.875 6.50203 2.49797 8.125 4.5 8.125C6.10394 8.125 7.46484 7.08309 7.94241 5.63933C7.57487 5.79118 7.17206 5.875 6.75 5.875C5.02411 5.875 3.625 4.47589 3.625 2.75C3.625 2.05043 3.85506 1.40454 4.24314 0.88396ZM0.125 4.5C0.125 2.08375 2.08375 0.125 4.5 0.125C4.72481 0.125 4.94589 0.141988 5.16197 0.17481C5.31146 0.197514 5.43268 0.307767 5.46942 0.454431C5.50616 0.601094 5.45123 0.755476 5.33011 0.845971C4.74962 1.27967 4.375 1.97104 4.375 2.75C4.375 4.06168 5.43832 5.125 6.75 5.125C7.31712 5.125 7.8369 4.9267 8.24527 4.59532C8.36262 4.5001 8.52565 4.48462 8.65882 4.55605C8.792 4.62748 8.86928 4.77187 8.85485 4.9223C8.64216 7.1406 6.77385 8.875 4.5 8.875C2.08375 8.875 0.125 6.91624 0.125 4.5Z" fill="#24272C"/>
</svg>
