<?xml version="1.0" encoding="utf-8"?>
<!-- Svg Vector Icons : http://www.onlinewebfonts.com/icon -->
<!DOCTYPE svg PUBLIC "-//W3C//DTD SVG 1.1//EN" "http://www.w3.org/Graphics/SVG/1.1/DTD/svg11.dtd">
<svg version="1.1" xmlns="http://www.w3.org/2000/svg" xmlns:xlink="http://www.w3.org/1999/xlink" x="0px" y="0px" viewBox="0 0 256 256" enable-background="new 0 0 256 256" xml:space="preserve">
<metadata> Svg Vector Icons : http://www.onlinewebfonts.com/icon </metadata>
<g><g><path fill="#000000" d="M114.4,76.9h100.9v18.8H114.4V76.9L114.4,76.9z"/><path fill="#000000" d="M148,105.6h67.2v18.8H148V105.6L148,105.6z"/><path fill="#000000" d="M169.7,134.1h45.6v18.8h-45.6V134.1L169.7,134.1z"/><path fill="#000000" d="M229.8,31H87.5c-8.9,0-16.1,7.1-16.1,16v71.4c-3.5,1-6.9,2.2-10.2,3.5c-4.7,1.9-9.2,4-13.4,6.8c-4,2.7-7.7,5.8-11.1,9.2C22.9,151.8,15,170.9,12.2,190c-0.8,5.3-1.2,10.6-1.6,15.9c-0.1,1-0.7,2.2,0.3,0c-0.5,1.2-0.8,2.2-0.8,3.5c0,1.2,0,2.5,0,3.7c0,3.2-0.3,6.3,1.1,9.2c2.1,4.4,9.4,3.3,10.3-1.3c0-0.1,0-0.2,0.1-0.3c0.2-0.4,0.4-0.8,0.6-1.2c0.4-0.9,0.9-1.8,1.3-2.6c1-1.9,2-3.8,3.1-5.7c2-3.6,4.2-7,6.6-10.4c2.4-3.5,4.1-5.7,7-9c2.6-3.1,5.5-6,8.5-8.7c0.7-0.7,1.4-1.3,2.2-1.9c0.3-0.2,0.6-0.5,0.9-0.7c0,0,0.8-0.6,0.9-0.7c1.6-1.2,3.2-2.3,4.9-3.4c1.6-1,3.2-1.9,4.9-2.8c2.1-1.1,3.3-1.6,5-2.2c1.3-0.5,2.7-0.9,4.1-1.2v19c0,8.9,7.2,16.3,16.1,16.3h142.4c8.9,0,16.1-7.4,16.1-16.3V47C246,38,238.8,31,229.8,31z M84.6,190.8c-2.2-2.6-3.5-5.9-3.5-9.5V169c1,0,2,0,3.1,0.1c0.3,0,0.6,0,1,0.1C84.9,176.4,84.8,183.6,84.6,190.8z M92.3,159c-4.5-0.8-8.9-1.4-13.5-1.3c-4.7,0.2-9.5,1-14.1,2.5c-8.7,2.9-16.5,8-23.4,14c-6.8,5.9-12.6,13-17.8,20.3c-0.3,0.4-0.6,0.8-0.8,1.2c0-0.4,0.1-0.8,0.1-1.2c0.4-4,1.6-9.5,2.9-14.2c0.6-2.3,1.3-4.5,2.1-6.7c0.4-1,0.7-2.1,1.1-3.1c0.2-0.5,0.4-1,0.6-1.5c0.1-0.3,0.2-0.6,0.3-0.8c0-0.1,0.1-0.2,0.1-0.4c1.8-4.2,4-8.2,6.5-12c2.5-3.9,4.6-6.4,8.1-9.9c1.5-1.6,3.1-3,4.8-4.4c0.4-0.4,0.8-0.7,1.3-1c0.1-0.1,0.1-0.1,0.2-0.1c0.1,0,0.2-0.1,0.4-0.3c1-0.7,2-1.5,3.1-2.2c1.8-1.2,3.7-2.2,5.7-3.2c2.6-1.3,3.9-1.8,6.4-2.7c4.6-1.8,9.5-3.2,14.4-4c0.1,0,0.2,0,0.3,0c0.4,0,0.8-0.1,1.2-0.1c1-0.1,2-0.1,3-0.2c1.9-0.1,3.6-0.2,5.5-0.5c3.1-0.4,5.6-2.3,5.6-5.7c0-5.9,0-11.7,0-17.6c8.7,6.6,17.4,13,26.1,19.6c9.1,6.9,18.2,13.7,27.3,20.7c-17.8,13.2-35.7,26.5-53.5,39.7c0.1-6.5,0.3-12.9,0.4-19.4C96.5,162.1,94.8,159.4,92.3,159z M236.2,181.3c0,7.9-6.4,14.5-14.3,14.5H98.8c21-15.6,42-31.2,63-46.7c3.7-2.7,3.6-7.1,0-9.8c-11.1-8.5-22.1-16.9-33.2-25.2c-11.1-8.4-22.6-16.7-33-25.1c0,0-0.1,0-0.2,0c-1-0.9-2.4-1.4-3.8-1.4c-0.3,0-0.6,0-0.9,0c-3.1,0-5.8,2.4-5.8,5.5c0,7.8,0,15.5,0,23.3c-1.3,0.1-2.6,0.2-3.9,0.3V54.9c0-7.9,6.4-14.3,14.3-14.3H222c7.9,0,14.3,6.3,14.3,14.3L236.2,181.3L236.2,181.3z"/></g></g>
</svg>