<svg width="111" height="110" viewBox="0 0 111 110" fill="none" xmlns="http://www.w3.org/2000/svg">
<rect x="0.5" width="110" height="109.25" rx="14" fill="#B47459"/>
<circle cx="68.023" cy="69.2095" r="9.98" fill="#35B56B"/>
<path d="M67.1605 71.4397V71.3105C67.1638 70.7106 67.2202 70.2333 67.3295 69.8786C67.4422 69.524 67.6013 69.239 67.8068 69.0235C68.0123 68.8048 68.2625 68.6043 68.5575 68.422C68.7597 68.296 68.9403 68.1585 69.0994 68.0093C69.2618 67.8569 69.3894 67.6878 69.4822 67.5022C69.575 67.3133 69.6214 67.1028 69.6214 66.8708C69.6214 66.609 69.5601 66.382 69.4375 66.1897C69.3149 65.9975 69.1491 65.8483 68.9403 65.7423C68.7348 65.6362 68.5045 65.5832 68.2493 65.5832C68.014 65.5832 67.7902 65.6346 67.5781 65.7373C67.3693 65.8367 67.1953 65.9892 67.0561 66.1947C66.9202 66.3969 66.844 66.6537 66.8274 66.9653H65.0575C65.0741 66.3356 65.2266 65.8086 65.5149 65.3843C65.8066 64.9601 66.1911 64.6419 66.6683 64.4298C67.1489 64.2177 67.6792 64.1116 68.2592 64.1116C68.8923 64.1116 69.4491 64.2226 69.9297 64.4447C70.4136 64.6668 70.7898 64.9833 71.0582 65.3943C71.33 65.8019 71.4659 66.2858 71.4659 66.846C71.4659 67.2238 71.4046 67.5619 71.282 67.8602C71.1626 68.1585 70.992 68.4236 70.7699 68.6556C70.5478 68.8876 70.2843 69.0948 69.9794 69.2771C69.7109 69.4428 69.4905 69.6151 69.3182 69.7941C69.1491 69.9731 69.0232 70.1836 68.9403 70.4255C68.8608 70.6642 68.8194 70.9591 68.8161 71.3105V71.4397H67.1605ZM68.0256 74.542C67.7273 74.542 67.4704 74.4359 67.255 74.2238C67.0395 74.0117 66.9318 73.7532 66.9318 73.4482C66.9318 73.1499 67.0395 72.8947 67.255 72.6826C67.4704 72.4705 67.7273 72.3644 68.0256 72.3644C68.3205 72.3644 68.5758 72.4705 68.7912 72.6826C69.0099 72.8947 69.1193 73.1499 69.1193 73.4482C69.1193 73.6504 69.0679 73.8344 68.9652 74.0001C68.8658 74.1658 68.7332 74.2984 68.5675 74.3978C68.4051 74.4939 68.2244 74.542 68.0256 74.542Z" fill="white"/>
<path d="M47.1997 76.1623L42.1312 75.1084C41.6064 74.9993 41.0912 74.8483 40.5906 74.6569L40.2333 74.5203C39.6609 74.3014 39.1193 74.0093 38.6221 73.6513L38.2991 73.4187C38.0482 73.2381 37.8202 73.0277 37.62 72.7922L37.463 72.6075C37.1178 72.2015 36.8893 71.7094 36.8017 71.1837C36.775 71.0236 36.7616 70.8616 36.7616 70.6994V65.6082C36.9814 61.9445 38.8613 58.5815 41.8669 56.475L43.2091 55.5343C43.6652 55.2146 44.1455 54.9308 44.6455 54.6855L45.3643 54.3329C46.4318 53.8092 47.5364 53.3648 48.6692 53.0033L49.6933 52.6765L49.0209 52.2787C42.3165 48.3124 42.0854 38.6936 48.5915 34.4098C52.1503 31.8184 56.9755 31.8225 60.5299 34.4199L60.5953 34.4678L60.9087 34.7319C63.3126 36.7581 64.8416 39.6342 65.1765 42.7603L65.1209 43.5389C65.0423 44.6392 64.826 45.7252 64.4772 46.7717C64.1722 47.6869 63.7231 48.5476 63.1469 49.3213L62.9015 49.6509C62.2948 50.4655 61.5772 51.1911 60.7693 51.8066L59.3195 52.6765L61.0899 53.1191C61.4555 53.2105 61.8137 53.3295 62.1614 53.475C63.4721 54.0237 64.7233 54.7052 65.8952 55.5088L68.1919 57.0837L67.7412 57.1223C58.2295 57.9368 52.8356 68.4095 57.6958 76.6262H52.5348L47.1997 76.1623Z" fill="white"/>
</svg>
