<svg width="22" height="23" viewBox="0 0 22 23" fill="none" xmlns="http://www.w3.org/2000/svg">
<path d="M3.44468 0H10.334C11.2476 0 12.1238 0.382612 12.7698 1.06367C13.4158 1.74472 13.7787 2.66842 13.7787 3.63158V8.47368H12.6305V3.63158C12.6305 2.98948 12.3885 2.37367 11.9579 1.91964C11.5272 1.4656 10.9431 1.21053 10.334 1.21053H3.44468C2.83562 1.21053 2.25151 1.4656 1.82084 1.91964C1.39017 2.37367 1.14823 2.98948 1.14823 3.63158V19.3684C1.14823 20.0105 1.39017 20.6263 1.82084 21.0804C2.25151 21.5344 2.83562 21.7895 3.44468 21.7895H10.334C10.9431 21.7895 11.5272 21.5344 11.9579 21.0804C12.3885 20.6263 12.6305 20.0105 12.6305 19.3684V14.5263H13.7787V19.3684C13.7787 20.3316 13.4158 21.2553 12.7698 21.9363C12.1238 22.6174 11.2476 23 10.334 23H3.44468C2.53109 23 1.65492 22.6174 1.00892 21.9363C0.36292 21.2553 0 20.3316 0 19.3684V3.63158C0 2.66842 0.36292 1.74472 1.00892 1.06367C1.65492 0.382612 2.53109 0 3.44468 0ZM6.88935 10.8947H19.8069L16.0752 6.96053L16.833 6.05263L22 11.5L16.833 16.9474L16.0752 16.0395L19.8069 12.1053H6.88935V10.8947Z" fill="#87868B"/>
</svg>
