<svg width="40" height="40" viewBox="0 0 40 40" fill="none" xmlns="http://www.w3.org/2000/svg">
<rect width="40" height="40" rx="9" fill="#F2F2F2"/>
<path d="M13.4447 9H20.334C21.2476 9 22.1238 9.38261 22.7698 10.0637C23.4158 10.7447 23.7787 11.6684 23.7787 12.6316V17.4737H22.6305V12.6316C22.6305 11.9895 22.3885 11.3737 21.9579 10.9196C21.5272 10.4656 20.9431 10.2105 20.334 10.2105H13.4447C12.8356 10.2105 12.2515 10.4656 11.8208 10.9196C11.3902 11.3737 11.1482 11.9895 11.1482 12.6316V28.3684C11.1482 29.0105 11.3902 29.6263 11.8208 30.0804C12.2515 30.5344 12.8356 30.7895 13.4447 30.7895H20.334C20.9431 30.7895 21.5272 30.5344 21.9579 30.0804C22.3885 29.6263 22.6305 29.0105 22.6305 28.3684V23.5263H23.7787V28.3684C23.7787 29.3316 23.4158 30.2553 22.7698 30.9363C22.1238 31.6174 21.2476 32 20.334 32H13.4447C12.5311 32 11.6549 31.6174 11.0089 30.9363C10.3629 30.2553 10 29.3316 10 28.3684V12.6316C10 11.6684 10.3629 10.7447 11.0089 10.0637C11.6549 9.38261 12.5311 9 13.4447 9ZM16.8894 19.8947H29.8069L26.0752 15.9605L26.833 15.0526L32 20.5L26.833 25.9474L26.0752 25.0395L29.8069 21.1053H16.8894V19.8947Z" fill="#87868B"/>
</svg>
