<svg width="17" height="15" viewBox="0 0 17 15" fill="none" xmlns="http://www.w3.org/2000/svg">
<g clip-path="url(#clip0_67_2416)">
<path d="M14.2413 6.38875C14.2413 10.4721 8.33306 13.9721 8.33306 13.9721C8.33306 13.9721 2.4248 10.4721 2.4248 6.38875C2.4248 4.99637 3.04728 3.66101 4.15529 2.67644C5.26331 1.69188 6.76609 1.13875 8.33306 1.13875C9.90003 1.13875 11.4028 1.69188 12.5108 2.67644C13.6188 3.66101 14.2413 4.99637 14.2413 6.38875Z" fill="#B0B1BC" stroke="#B0B1BC" stroke-width="1.5" stroke-linecap="round" stroke-linejoin="round"/>
<path d="M8.33319 8.13875C9.42087 8.13875 10.3026 7.35525 10.3026 6.38875C10.3026 5.42225 9.42087 4.63875 8.33319 4.63875C7.24551 4.63875 6.36377 5.42225 6.36377 6.38875C6.36377 7.35525 7.24551 8.13875 8.33319 8.13875Z" fill="white" stroke="white" stroke-linecap="round" stroke-linejoin="round"/>
</g>
<defs>
<clipPath id="clip0_67_2416">
<rect width="15.7554" height="14" fill="white" transform="translate(0.455566 0.55542)"/>
</clipPath>
</defs>
</svg>
