<svg width="192" height="196" viewBox="0 0 192 196" fill="none" xmlns="http://www.w3.org/2000/svg">
<rect width="192" height="196" rx="96" fill="#35B56B" fill-opacity="0.1"/>
<path d="M96 41.9375C88.2646 41.9375 80.8459 44.7251 75.3761 49.687C69.9063 54.6489 66.8334 61.3786 66.8334 68.3958V78.9792H61C57.9058 78.9792 54.9384 80.0942 52.7505 82.079C50.5625 84.0637 49.3334 86.7556 49.3334 89.5625V142.479C49.3334 145.286 50.5625 147.978 52.7505 149.963C54.9384 151.947 57.9058 153.062 61 153.062H131C134.094 153.062 137.062 151.947 139.25 149.963C141.438 147.978 142.667 145.286 142.667 142.479V89.5625C142.667 86.7556 141.438 84.0637 139.25 82.079C137.062 80.0942 134.094 78.9792 131 78.9792H125.167V68.3958C125.167 64.9213 124.412 61.4807 122.947 58.2707C121.481 55.0606 119.332 52.1438 116.624 49.687C113.916 47.2301 110.7 45.2812 107.162 43.9515C103.623 42.6219 99.8303 41.9375 96 41.9375ZM96 51.9917C105.975 51.9917 114.083 59.3471 114.083 68.3958V78.9792H77.9167V68.3958C77.9167 59.3471 86.025 51.9917 96 51.9917ZM97.1084 92.2083C102.592 92.2083 106.967 93.3196 110.117 95.4892C113.267 97.7117 114.842 100.675 114.842 104.379C114.842 106.707 113.967 108.771 112.275 110.729C110.583 112.634 108.367 114.116 105.683 115.227C104.167 116.021 103.175 116.815 102.65 117.714C102.125 118.667 101.833 119.831 101.833 121.312H90.1667C90.1667 118.667 90.75 116.867 91.8584 115.597C93.0834 114.327 95.0667 112.846 98.1 111.152C99.6167 110.412 100.842 109.459 101.833 108.295C102.65 107.184 103.117 105.861 103.117 104.379C103.117 102.792 102.592 101.627 101.542 100.728C100.492 99.7754 98.9167 99.3521 97.1084 99.3521C95.5334 99.3521 94.25 99.7225 93.0834 100.463C92.15 101.204 91.5667 102.315 91.5667 103.797H80.075C79.7834 100.146 81.4167 96.9708 84.625 95.0658C87.775 93.1608 91.9167 92.2083 97.1084 92.2083ZM90.1667 126.604H101.833V137.188H90.1667V126.604Z" fill="#35B56B"/>
</svg>
