<svg width="27" height="26" viewBox="0 0 27 26" fill="none" xmlns="http://www.w3.org/2000/svg">
<path d="M3.75 6.5H23.25V19.5H3.75V6.5ZM13.5 9.75C14.362 9.75 15.1886 10.0924 15.7981 10.7019C16.4076 11.3114 16.75 12.138 16.75 13C16.75 13.862 16.4076 14.6886 15.7981 15.2981C15.1886 15.9076 14.362 16.25 13.5 16.25C12.638 16.25 11.8114 15.9076 11.2019 15.2981C10.5924 14.6886 10.25 13.862 10.25 13C10.25 12.138 10.5924 11.3114 11.2019 10.7019C11.8114 10.0924 12.638 9.75 13.5 9.75ZM8.08333 8.66667C8.08333 9.2413 7.85506 9.7924 7.44873 10.1987C7.0424 10.6051 6.4913 10.8333 5.91667 10.8333V15.1667C6.4913 15.1667 7.0424 15.3949 7.44873 15.8013C7.85506 16.2076 8.08333 16.7587 8.08333 17.3333H18.9167C18.9167 16.7587 19.1449 16.2076 19.5513 15.8013C19.9576 15.3949 20.5087 15.1667 21.0833 15.1667V10.8333C20.5087 10.8333 19.9576 10.6051 19.5513 10.1987C19.1449 9.7924 18.9167 9.2413 18.9167 8.66667H8.08333Z" fill="black"/>
</svg>
