<svg width="22" height="25" viewBox="0 0 22 25" fill="none" xmlns="http://www.w3.org/2000/svg">
<path d="M14.6668 14.8229L10.4763 18.8065L8.55566 16.9807L9.04804 16.5126L10.4763 17.867L14.1744 14.3548L14.6668 14.8229Z" fill="#87868B"/>
<path d="M0.5 10.3871V7.93549C0.5 7.65934 0.723858 7.43549 1 7.43549H21C21.2761 7.43549 21.5 7.65934 21.5 7.93549V10.3871C21.5 10.6632 21.2761 10.8871 21 10.8871H1C0.723858 10.8871 0.5 10.6632 0.5 10.3871Z" stroke="#87868B"/>
<path d="M2.44434 11.3871V10.8871H1.80874L1.95839 11.5048L2.44434 11.3871ZM19.5554 11.3871L20.0463 11.4822L20.1617 10.8871H19.5554V11.3871ZM15.1212 0.79195C15.0063 0.540849 14.7096 0.430438 14.4585 0.545341C14.2074 0.660243 14.097 0.956949 14.2119 1.20805L15.1212 0.79195ZM7.78788 1.20805C7.90279 0.956949 7.79238 0.660243 7.54127 0.545341C7.29017 0.430438 6.99347 0.540849 6.87857 0.79195L7.78788 1.20805ZM17.2679 23.1903L17.7588 23.2854L17.2679 23.1903ZM1.95839 11.5048L4.82873 23.3532L5.80062 23.1177L2.93028 11.2694L1.95839 11.5048ZM6.28656 24.5H16.2862V23.5H6.28656V24.5ZM17.7588 23.2854L20.0463 11.4822L19.0646 11.292L16.7771 23.0951L17.7588 23.2854ZM19.5554 10.8871H2.44434V11.8871H19.5554V10.8871ZM18.1768 7.46937L15.1212 0.79195L14.2119 1.20805L17.2675 7.88547L18.1768 7.46937ZM4.73233 7.88547L7.78788 1.20805L6.87857 0.79195L3.82301 7.46937L4.73233 7.88547ZM16.2862 24.5C17.0046 24.5 17.6221 23.9907 17.7588 23.2854L16.7771 23.0951C16.7315 23.3302 16.5257 23.5 16.2862 23.5V24.5ZM4.82873 23.3532C4.99175 24.0261 5.59417 24.5 6.28656 24.5V23.5C6.05576 23.5 5.85496 23.342 5.80062 23.1177L4.82873 23.3532Z" fill="#87868B"/>
</svg>
