<svg width="40" height="40" viewBox="0 0 40 40" fill="none" xmlns="http://www.w3.org/2000/svg">
<rect width="40" height="40" rx="9" fill="#F2F2F2"/>
<path d="M23.6668 22.8229L19.4763 26.8065L17.5557 24.9807L18.048 24.5126L19.4763 25.867L23.1744 22.3548L23.6668 22.8229Z" fill="#87868B"/>
<path d="M9.5 18.3871V15.9355C9.5 15.6593 9.72386 15.4355 10 15.4355H30C30.2761 15.4355 30.5 15.6593 30.5 15.9355V18.3871C30.5 18.6632 30.2761 18.8871 30 18.8871H10C9.72386 18.8871 9.5 18.6632 9.5 18.3871Z" stroke="#87868B"/>
<path d="M11.4443 19.3871V18.8871H10.8087L10.9584 19.5048L11.4443 19.3871ZM28.5554 19.3871L29.0463 19.4822L29.1617 18.8871H28.5554V19.3871ZM24.1212 8.79195C24.0063 8.54085 23.7096 8.43044 23.4585 8.54534C23.2074 8.66024 23.097 8.95695 23.2119 9.20805L24.1212 8.79195ZM16.7879 9.20805C16.9028 8.95695 16.7924 8.66024 16.5413 8.54534C16.2902 8.43044 15.9935 8.54085 15.8786 8.79195L16.7879 9.20805ZM26.2679 31.1903L26.7588 31.2854L26.2679 31.1903ZM10.9584 19.5048L13.8287 31.3532L14.8006 31.1177L11.9303 19.2694L10.9584 19.5048ZM15.2866 32.5H25.2862V31.5H15.2866V32.5ZM26.7588 31.2854L29.0463 19.4822L28.0646 19.292L25.7771 31.0951L26.7588 31.2854ZM28.5554 18.8871H11.4443V19.8871H28.5554V18.8871ZM27.1768 15.4694L24.1212 8.79195L23.2119 9.20805L26.2675 15.8855L27.1768 15.4694ZM13.7323 15.8855L16.7879 9.20805L15.8786 8.79195L12.823 15.4694L13.7323 15.8855ZM25.2862 32.5C26.0046 32.5 26.6221 31.9907 26.7588 31.2854L25.7771 31.0951C25.7315 31.3302 25.5257 31.5 25.2862 31.5V32.5ZM13.8287 31.3532C13.9917 32.0261 14.5942 32.5 15.2866 32.5V31.5C15.0558 31.5 14.855 31.342 14.8006 31.1177L13.8287 31.3532Z" fill="#87868B"/>
</svg>
