<svg width="40" height="40" viewBox="0 0 40 40" fill="none" xmlns="http://www.w3.org/2000/svg">
<rect width="40" height="40" rx="9" fill="#F2F2F2"/>
<path d="M25 23.4998L20.6891 27.3317C20.5799 27.4288 20.4165 27.4331 20.3024 27.3418L18 25.4998L19.048 24.5126L20.2697 25.6711C20.3855 25.7809 20.567 25.7808 20.6827 25.6709L24.1744 22.3548L25 23.4998Z" fill="#87868B"/>
<path d="M10.5 18.3871V15.9355C10.5 15.6593 10.7239 15.4355 11 15.4355H31C31.2761 15.4355 31.5 15.6593 31.5 15.9355V18.3871C31.5 18.6632 31.2761 18.8871 31 18.8871H11C10.7239 18.8871 10.5 18.6632 10.5 18.3871Z" stroke="#87868B"/>
<path d="M12.4443 19.3871V18.8871H11.8087L11.9584 19.5048L12.4443 19.3871ZM29.5554 19.3871L30.0463 19.4822L30.1617 18.8871H29.5554V19.3871ZM25.1212 8.79195C25.0063 8.54085 24.7096 8.43044 24.4585 8.54534C24.2074 8.66024 24.097 8.95695 24.2119 9.20805L25.1212 8.79195ZM17.7879 9.20805C17.9028 8.95695 17.7924 8.66024 17.5413 8.54534C17.2902 8.43044 16.9935 8.54085 16.8786 8.79195L17.7879 9.20805ZM27.2679 31.1903L27.7588 31.2854L27.2679 31.1903ZM11.9584 19.5048L14.8287 31.3532L15.8006 31.1177L12.9303 19.2694L11.9584 19.5048ZM16.2866 32.5H26.2862V31.5H16.2866V32.5ZM27.7588 31.2854L30.0463 19.4822L29.0646 19.292L26.7771 31.0951L27.7588 31.2854ZM29.5554 18.8871H12.4443V19.8871H29.5554V18.8871ZM28.1768 15.4694L25.1212 8.79195L24.2119 9.20805L27.2675 15.8855L28.1768 15.4694ZM14.7323 15.8855L17.7879 9.20805L16.8786 8.79195L13.823 15.4694L14.7323 15.8855ZM26.2862 32.5C27.0046 32.5 27.6221 31.9907 27.7588 31.2854L26.7771 31.0951C26.7315 31.3302 26.5257 31.5 26.2862 31.5V32.5ZM14.8287 31.3532C14.9917 32.0261 15.5942 32.5 16.2866 32.5V31.5C16.0558 31.5 15.855 31.342 15.8006 31.1177L14.8287 31.3532Z" fill="#87868B"/>
</svg>
