<svg width="27" height="22" viewBox="0 0 27 22" fill="none" xmlns="http://www.w3.org/2000/svg">
<path d="M1 11C1 6.28625 1 3.92875 2.465 2.465C3.93 1.00125 6.28625 1 11 1H16C20.7137 1 23.0712 1 24.535 2.465C25.9987 3.93 26 6.28625 26 11C26 15.7137 26 18.0712 24.535 19.535C23.07 20.9987 20.7137 21 16 21H11C6.28625 21 3.92875 21 2.465 19.535C1.00125 18.07 1 15.7137 1 11Z" stroke="black" stroke-width="1.5"/>
<path d="M11 16H6M16 16H14.125M1 8.5H26" stroke="black" stroke-width="1.5" stroke-linecap="round"/>
</svg>
