<svg width="24" height="25" viewBox="0 0 24 25" fill="none" xmlns="http://www.w3.org/2000/svg">
<path d="M1 12.5C1 7.07919 1 4.36806 2.2892 2.68475C3.5784 1.00144 5.6519 1 9.8 1H14.2C18.3481 1 20.4227 1 21.7108 2.68475C22.9989 4.3695 23 7.07919 23 12.5C23 17.9208 23 20.6319 21.7108 22.3152C20.4216 23.9986 18.3481 24 14.2 24H9.8C5.6519 24 3.5773 24 2.2892 22.3152C1.0011 20.6305 1 17.9208 1 12.5Z" stroke="#87868B" stroke-width="1.5"/>
<path d="M9.8 18.25H5.4M14.2 18.25H12.55M1 9.625H23" stroke="#87868B" stroke-width="1.5" stroke-linecap="round"/>
</svg>
