<svg width="40" height="40" viewBox="0 0 40 40" fill="none" xmlns="http://www.w3.org/2000/svg">
<rect width="40" height="40" rx="9" fill="#F2F2F2"/>
<path d="M9 20.5C9 15.0792 9 12.3681 10.2892 10.6847C11.5784 9.00144 13.6519 9 17.8 9H22.2C26.3481 9 28.4227 9 29.7108 10.6847C30.9989 12.3695 31 15.0792 31 20.5C31 25.9208 31 28.6319 29.7108 30.3152C28.4216 31.9986 26.3481 32 22.2 32H17.8C13.6519 32 11.5773 32 10.2892 30.3152C9.0011 28.6305 9 25.9208 9 20.5Z" stroke="#87868B" stroke-width="1.5"/>
<path d="M17.8 26.25H13.4M22.2 26.25H20.55M9 17.625H31" stroke="#87868B" stroke-width="1.5" stroke-linecap="round"/>
</svg>
