<?xml version="1.0" ?>
<!-- Uploaded to: SVG Repo, www.svgrepo.com, Generator: SVG Repo Mixer Tools -->
<svg fill="#000000" width="800px" height="800px" viewBox="0 0 64 64" xmlns="http://www.w3.org/2000/svg">
<title/>
<g id="Telepon">
<path d="M48.1,60.53c-.2,0-.4,0-.61,0a6.59,6.59,0,0,1-3.9-2L33.25,48.2a1,1,0,0,1-.3-.7,1,1,0,0,1,.3-.71l8.26-8.26a29.74,29.74,0,0,0-2.13-7.63l-6.75-6.75A29.06,29.06,0,0,0,25,22l-8.26,8.26a1,1,0,0,1-1.42,0L5,19.94c-2.32-2.33-2.64-5.8-.7-7.73L8.14,8.34A14.33,14.33,0,0,1,10.25,6.6c7.17-4.82,17.82-2.86,25.32,4.65L52.28,28c7.51,7.51,9.46,18.16,4.65,25.32a15,15,0,0,1-1.74,2.11l-3.87,3.87A4.49,4.49,0,0,1,48.1,60.53Zm-12.73-13L45,57.13a4.62,4.62,0,0,0,2.71,1.37,2.6,2.6,0,0,0,2.19-.67L53.77,54a13.34,13.34,0,0,0,1.5-1.81c4.21-6.27,2.32-16.07-4.41-22.8l-16.7-16.7C27.43,5.94,17.64,4,11.37,8.26A12.14,12.14,0,0,0,9.56,9.75L5.69,13.62c-1.16,1.16-.84,3.36.71,4.9L16,28.16l7.3-7.31a.9.9,0,0,1,.09-.32,1,1,0,0,1,1-.58,30.19,30.19,0,0,1,9.18,2.43,1,1,0,0,1,.31.22l7,7a1,1,0,0,1,.21.32,30.45,30.45,0,0,1,2.44,9.18,1,1,0,0,1-.58,1,1,1,0,0,1-.33.09Z"/>
<path d="M8.85,10.05a1,1,0,0,1-.71-1.71L9.93,6.55a1,1,0,0,1,1.42,0l.17.17a1,1,0,0,1,.29.8,1,1,0,0,1-.44.74A12.14,12.14,0,0,0,9.56,9.75,1,1,0,0,1,8.85,10.05Z"/>
<path d="M54.48,55.67a1,1,0,0,1-.71-.29,1,1,0,0,1,0-1.41,13.34,13.34,0,0,0,1.5-1.81,1,1,0,0,1,.73-.44,1,1,0,0,1,.8.29l.17.17a1,1,0,0,1,0,1.41l-1.78,1.79h0A1,1,0,0,1,54.48,55.67Z"/>
</g>
</svg>