<svg width="30" height="30" viewBox="0 0 30 30" fill="none" xmlns="http://www.w3.org/2000/svg">
<g id="Iconly/Bulk/Calendar">
<path id="Vector" d="M24.7167 26C22.1704 26 19.6546 25.4703 17.1694 24.411C14.6843 23.3517 12.4231 21.8494 10.3861 19.9042C8.34907 17.9589 6.77567 15.8006 5.66589 13.4292C4.55611 11.0577 4.00081 8.65633 4 6.225C4 5.875 4.12222 5.58333 4.36667 5.35C4.61111 5.11667 4.91667 5 5.28333 5H10.2333C10.5185 5 10.7731 5.09256 10.9972 5.27767C11.2213 5.46278 11.3537 5.68133 11.3944 5.93333L12.1889 10.0167C12.2296 10.3278 12.2194 10.5903 12.1583 10.8042C12.0972 11.0181 11.9852 11.2028 11.8222 11.3583L8.85833 14.2167C9.26574 14.9361 9.74933 15.6311 10.3091 16.3015C10.8689 16.9719 11.4853 17.6187 12.1583 18.2417C12.7898 18.8444 13.4519 19.4037 14.1444 19.9193C14.837 20.435 15.5704 20.9063 16.3444 21.3333L19.2167 18.5917C19.4 18.4167 19.6396 18.2856 19.9353 18.1985C20.2311 18.1114 20.5212 18.0869 20.8056 18.125L25.0222 18.9417C25.3074 19.0194 25.5417 19.1606 25.725 19.3652C25.9083 19.5697 26 19.798 26 20.05V24.775C26 25.125 25.8778 25.4167 25.6333 25.65C25.3889 25.8833 25.0833 26 24.7167 26Z" fill="#5669FF"/>
</g>
</svg>
