<svg width="111" height="110" viewBox="0 0 111 110" fill="none" xmlns="http://www.w3.org/2000/svg">
<rect y="9.15527e-05" width="111" height="109.25" rx="14" fill="#1ABC9C"/>
<path d="M67.5 48.4766C67.5 48.7527 67.2761 48.9766 67 48.9766H45.5C45.2239 48.9766 45 48.7527 45 48.4766V45.4766C45 45.2004 45.2239 44.9766 45.5 44.9766H67C67.2761 44.9766 67.5 45.2004 67.5 45.4766V48.4766ZM42.5 45.4766C42.5 45.2004 42.2761 44.9766 42 44.9766H38C37.7239 44.9766 37.5 45.2004 37.5 45.4766V48.4766C37.5 48.7527 37.7239 48.9766 38 48.9766H42C42.2761 48.9766 42.5 48.7527 42.5 48.4766V45.4766ZM42.5 38.4766C42.5 38.2004 42.2761 37.9766 42 37.9766H38C37.7239 37.9766 37.5 38.2004 37.5 38.4766V41.4766C37.5 41.7527 37.7239 41.9766 38 41.9766H42C42.2761 41.9766 42.5 41.7527 42.5 41.4766V38.4766ZM50 38.4766C50 38.2004 49.7761 37.9766 49.5 37.9766H45.5C45.2239 37.9766 45 38.2004 45 38.4766V41.4766C45 41.7527 45.2239 41.9766 45.5 41.9766H49.5C49.7761 41.9766 50 41.7527 50 41.4766V38.4766ZM57.5 68.6705V73.4887H60C61.375 73.4887 62.5 74.5728 62.5 75.8978H79C79.5523 75.8978 80 76.3455 80 76.8978V79.716C80 80.2683 79.5523 80.716 79 80.716H62.5C62.5 82.041 61.375 83.1251 60 83.1251H50C48.625 83.1251 47.5 82.041 47.5 80.716H31C30.4477 80.716 30 80.2683 30 79.716V76.8978C30 76.3455 30.4477 75.8978 31 75.8978H47.5C47.5 74.5728 48.625 73.4887 50 73.4887H52.5V68.6705H35C32.225 68.6705 30 66.5265 30 63.8524V34.9433C30 33.6654 30.5268 32.4399 31.4645 31.5363C32.4021 30.6327 33.6739 30.1251 35 30.1251H75C77.775 30.1251 80 32.2692 80 34.9433V63.8524C80 66.5265 77.775 68.6705 75 68.6705H57.5ZM76 63.8524V33.9766H34V63.8524H76ZM52.5 41.4766C52.5 41.7527 52.7239 41.9766 53 41.9766H72C72.2761 41.9766 72.5 41.7527 72.5 41.4766V38.4766C72.5 38.2004 72.2761 37.9766 72 37.9766H62.5H53C52.7239 37.9766 52.5 38.2004 52.5 38.4766V41.4766ZM37.5 55.4766C37.5 55.7527 37.7239 55.9766 38 55.9766H52C52.2761 55.9766 52.5 55.7527 52.5 55.4766V52.4766C52.5 52.2004 52.2761 51.9766 52 51.9766H38C37.7239 51.9766 37.5 52.2004 37.5 52.4766V55.4766ZM57.5 60.4766C57.5 60.7527 57.7239 60.9766 58 60.9766H72C72.2761 60.9766 72.5 60.7527 72.5 60.4766V57.4766C72.5 57.2004 72.2761 56.9766 72 56.9766H58C57.7239 56.9766 57.5 57.2004 57.5 57.4766V60.4766Z" fill="white"/>
</svg>
