<svg width="111" height="110" viewBox="0 0 111 110" fill="none" xmlns="http://www.w3.org/2000/svg">
<rect x="0.5" y="0.375275" width="110" height="109.25" rx="14" fill="#FF7F11"/>
<path d="M36.8679 51.2655L30.5 57.9053L36.0425 60.0859M36.8679 51.2655L55.3821 58.7353M36.8679 51.2655L55.3821 45.3371L73.8962 51.2655M55.3821 58.7353L49.4858 65.3751L36.0425 60.0859M55.3821 58.7353L73.8962 51.2655M55.3821 58.7353L61.3962 65.3751L75.0755 60.0263M55.3821 58.7353V81.5004M73.8962 51.2655L80.5 57.9053L75.0755 60.0263M55.3821 81.5004L75.0755 72.8449V60.0263M55.3821 81.5004L36.0425 72.8449V60.0859M31.5613 38.223L39.1085 45.3371M44.6509 34.903L47.2453 41.78M55.3821 28.5004V40.5943M66.5849 34.903L63.6368 41.78M79.2028 38.223L72.2453 45.3371" stroke="white" stroke-width="2.5"/>
</svg>
