<svg width="18" height="20" viewBox="0 0 18 20" fill="none" xmlns="http://www.w3.org/2000/svg">
<ellipse cx="8.89651" cy="5.67153" rx="5.11214" ry="4.37986" stroke="#807A7A" stroke-width="1.5" stroke-linecap="round" stroke-linejoin="round"/>
<path fill-rule="evenodd" clip-rule="evenodd" d="M0.787615 16.1429C0.786241 15.835 0.866615 15.5309 1.02266 15.2535C1.51232 14.4145 2.89319 13.9698 4.03902 13.7684C4.86538 13.6173 5.70317 13.5164 6.54612 13.4664C8.10679 13.3489 9.67648 13.3489 11.2371 13.4664C12.08 13.517 12.9178 13.6179 13.7443 13.7684C14.8901 13.9698 16.2709 14.3725 16.7606 15.2535C17.0744 15.8189 17.0744 16.4753 16.7606 17.0407C16.2709 17.9217 14.8901 18.3245 13.7443 18.5175C12.9189 18.6748 12.0808 18.7786 11.2371 18.8279C9.96689 18.9202 8.6907 18.937 7.41773 18.8783C7.12393 18.8783 6.83992 18.8783 6.54612 18.8279C5.70566 18.7792 4.87078 18.6754 4.04881 18.5175C2.89319 18.3245 1.52212 17.9217 1.02266 17.0407C0.867412 16.7601 0.787118 16.4534 0.787615 16.1429Z" stroke="#807A7A" stroke-width="1.5" stroke-linecap="round" stroke-linejoin="round"/>
</svg>
