<svg width="111" height="110" viewBox="0 0 111 110" fill="none" xmlns="http://www.w3.org/2000/svg">
<rect y="9.15527e-05" width="111" height="109.25" rx="14" fill="#D39528"/>
<path d="M66.7526 29.8119C66.4011 29.4605 65.8313 29.4605 65.4798 29.8119C65.1283 30.1634 65.1283 30.7333 65.4798 31.0847L66.7526 29.8119ZM78.1162 42.4483L78.7526 43.0847C79.1041 42.7333 79.1041 42.1634 78.7526 41.8119L78.1162 42.4483ZM72.9798 46.312L72.3434 46.9484L73.6162 48.2212L74.2526 47.5848L72.9798 46.312ZM65.4798 31.0847L77.4798 43.0847L78.7526 41.8119L66.7526 29.8119L65.4798 31.0847ZM77.4798 41.8119L72.9798 46.312L74.2526 47.5848L78.7526 43.0847L77.4798 41.8119Z" fill="white"/>
<path d="M78.5347 49.3055H41.3027L46.6162 70.4484L73.9192 70.6965L78.5347 49.3055Z" stroke="white" stroke-width="2" stroke-linejoin="round"/>
<path d="M50.8418 57.3659H68.6885" stroke="white" stroke-width="2" stroke-linecap="round" stroke-linejoin="round"/>
<path d="M48.3804 61.706H71.1503" stroke="white" stroke-width="2" stroke-linecap="round" stroke-linejoin="round"/>
<path d="M28.0715 45.5854C27.1484 38.765 35.4564 39.075 36.3794 43.7253L43.7643 73.1766L70.8421 73.4866" stroke="white" stroke-width="2" stroke-linecap="round"/>
<path d="M50.8417 77.8268C50.8417 79.1965 49.7396 80.3069 48.3801 80.3069C47.0206 80.3069 45.9185 79.1965 45.9185 77.8268C45.9185 76.4571 47.0206 75.3467 48.3801 75.3467C49.7396 75.3467 50.8417 76.4571 50.8417 77.8268ZM47.3468 77.8268C47.3468 78.4017 47.8094 78.8678 48.3801 78.8678C48.9507 78.8678 49.4133 78.4017 49.4133 77.8268C49.4133 77.2519 48.9507 76.7858 48.3801 76.7858C47.8094 76.7858 47.3468 77.2519 47.3468 77.8268Z" fill="white"/>
<path d="M67.4574 77.8268C67.4574 79.1965 66.3553 80.3069 64.9958 80.3069C63.6363 80.3069 62.5342 79.1965 62.5342 77.8268C62.5342 76.4571 63.6363 75.3467 64.9958 75.3467C66.3553 75.3467 67.4574 76.4571 67.4574 77.8268ZM63.9626 77.8268C63.9626 78.4017 64.4252 78.8678 64.9958 78.8678C65.5664 78.8678 66.029 78.4017 66.029 77.8268C66.029 77.2519 65.5664 76.7858 64.9958 76.7858C64.4252 76.7858 63.9626 77.2519 63.9626 77.8268Z" fill="white"/>
<path d="M65.3819 29.9416L66.5174 30.9863L51.2645 47.7971L49.0629 47.8488L65.3819 29.9416Z" fill="white"/>
<path d="M69.2662 34.1152L70.4291 35.2507L58.5 47.8311L56.5 47.8311L69.2662 34.1152Z" fill="white"/>
<path d="M72.1113 83.104C78.7995 83.104 84.2225 77.6855 84.2225 71.0001C84.2225 64.3147 78.7995 58.8962 72.1113 58.8962C65.423 58.8962 60 64.3147 60 71.0001C60 77.6855 65.423 83.104 72.1113 83.104Z" fill="#35B56B" stroke="#D39528" stroke-width="2"/>
<path d="M72.9571 78.2701C72.5666 78.6606 71.9334 78.6606 71.5429 78.2701L65.1789 71.9062C64.7884 71.5156 64.7884 70.8825 65.1789 70.4919C65.5695 70.1014 66.2026 70.1014 66.5931 70.4919L72.25 76.1488L77.9069 70.4919C78.2974 70.1014 78.9305 70.1014 79.3211 70.4919C79.7116 70.8825 79.7116 71.5156 79.3211 71.9062L72.9571 78.2701ZM73.25 65.5175V77.563H71.25V65.5175H73.25Z" fill="white"/>
</svg>
