<svg width="111" height="110" viewBox="0 0 111 110" fill="none" xmlns="http://www.w3.org/2000/svg">
<rect y="9.15527e-05" width="111" height="109.25" rx="14" fill="#E3B505"/>
<path d="M64.4941 78.3462C64.073 78.0698 63.6237 78.0051 63.2165 78.0908L61.6382 76.3335C60.738 75.3312 59.1647 75.3393 58.2749 76.3508L55.9872 78.9515L53.3582 76.0305C52.3651 74.927 50.6349 74.927 49.6418 76.0305L46.9427 79.0294L46.0607 78.1474L43.7441 75.8309C42.7912 74.8779 41.2544 74.8518 40.2697 75.7718L37.7943 78.0845L37.7884 78.09L37.7826 78.0956L36.639 79.1871C36.5496 79.0381 36.5 78.8654 36.5 78.6857V31.7294C36.5 31.4533 36.7239 31.2294 37 31.2294H70.6239C70.9 31.2294 71.1239 31.4533 71.1239 31.7294V78.3748C71.1239 78.5897 71.0648 78.7971 70.9572 78.9764L70.4592 78.5463C69.6037 77.8074 68.3588 77.7346 67.423 78.3685L65.9985 79.3335L64.4941 78.3462L64.0515 79.0206L64.4941 78.3462ZM36.181 79.6243C36.1812 79.6241 36.1814 79.6239 36.1816 79.6237L36.181 79.6243Z" stroke="white" stroke-width="3"/>
<rect x="41" y="38.2081" width="17.9613" height="1.49005" rx="0.745027" fill="white"/>
<rect x="62.623" y="38.2081" width="4.53392" height="1.49005" rx="0.745027" fill="white"/>
<rect x="62.623" y="43.4233" width="4.53392" height="1.49005" rx="0.745027" fill="white"/>
<rect x="62.623" y="48.6385" width="4.53392" height="1.49005" rx="0.745027" fill="white"/>
<rect x="62.623" y="59.0688" width="4.53392" height="1.49005" rx="0.745027" fill="white"/>
<rect x="41" y="43.4233" width="17.9613" height="1.49005" rx="0.745027" fill="white"/>
<rect x="41" y="48.6385" width="17.9613" height="1.49005" rx="0.745027" fill="white"/>
<rect x="41" y="59.0688" width="17.9613" height="1.49005" rx="0.745027" fill="white"/>
<circle cx="69.772" cy="71.5427" r="11.7281" fill="#35B56B" stroke="#E3B505" stroke-width="2"/>
<path d="M68.6699 66.1495V70.4408H64.4367L64.4097 70.46C63.6356 71.013 63.6495 72.1682 64.4367 72.7024H68.6699V76.8776C69.0609 77.8447 70.4425 77.8517 70.8156 76.8776V72.7024H75.1648C76.0324 72.3196 76.1506 71.1366 75.3759 70.5898L75.1648 70.4408H70.8156V66.1495L70.7967 66.1227C70.2753 65.3818 69.1725 65.3957 68.6699 66.1495Z" fill="white"/>
</svg>
