<svg width="111" height="110" viewBox="0 0 111 110" fill="none" xmlns="http://www.w3.org/2000/svg">
<rect y="9.15527e-05" width="111" height="109.25" rx="14" fill="#513C46"/>
<path d="M48.1857 72.6833L35.0286 66.7301C32.5127 64.5369 31.2637 61.2287 31.7022 57.92L31.8571 56.751L50.9286 64.4173L51.2117 66.8227C51.3613 68.0934 51.9395 69.2752 52.851 70.1732L53.0785 70.3974C53.9445 71.2506 55.2106 71.5562 56.3704 71.1919C58.0533 70.6634 59.4789 69.5268 60.3689 68.0039L61.3283 66.3625C61.6515 65.8093 61.9215 65.2267 62.1345 64.6225L71.1143 39.1484L49.5571 34.8656L41.6729 55.8904C41.5883 56.116 41.4361 56.31 41.2372 56.4461C40.2439 57.1252 38.8817 56.5389 38.6921 55.3507L38.6783 55.2641C38.6457 55.0596 38.6661 54.8502 38.7374 54.6558L46.7286 32.8955C47.0407 31.7918 48.1633 31.1266 49.2813 31.383L49.9 31.5249L73.1714 36.0648C74.5442 36.1479 75.4151 37.5721 74.8635 38.832L74.8 38.9771L64.9025 66.7524C64.5026 67.8747 63.9563 68.9394 63.2778 69.9188L62.9063 70.455C62.2959 71.3361 61.5589 72.1224 60.7192 72.7884L60.5724 72.9048C59.7217 73.5796 58.7558 74.0948 57.7214 74.4255C56.6331 74.7736 55.4847 74.8938 54.3479 74.7788L54.1854 74.7623C53.1914 74.6617 52.2185 74.4105 51.3001 74.0171L48.1857 72.6833Z" fill="white" stroke="white"/>
<ellipse cx="51.4428" cy="42.1892" rx="1.71429" ry="1.71315" fill="white"/>
<ellipse cx="48.8715" cy="49.2133" rx="1.71429" ry="1.71315" fill="white"/>
<ellipse cx="46.1283" cy="55.5518" rx="1.71429" ry="1.71315" fill="white"/>
<rect width="10.8766" height="3.35991" rx="1.67996" transform="matrix(0.961993 0.273074 -0.27341 0.961897 55.4561 41.6716)" fill="white"/>
<rect width="10.8764" height="3.35996" rx="1.67998" transform="matrix(0.950895 0.309512 -0.309885 0.950774 52.6555 48.6136)" fill="white"/>
<rect width="10.8764" height="3.35996" rx="1.67998" transform="matrix(0.950895 0.309512 -0.309885 0.950774 49.9128 55.4661)" fill="white"/>
<circle cx="62.7718" cy="70.3468" r="11.7281" fill="#35B56B" stroke="#513C46" stroke-width="2"/>
<path d="M61.6699 64.9536V69.2448H57.4367L57.4097 69.2641C56.6356 69.8171 56.6495 70.9722 57.4367 71.5064H61.6699V75.6817C62.0609 76.6488 63.4425 76.6558 63.8156 75.6817V71.5064H68.1648C69.0324 71.1237 69.1506 69.9407 68.3759 69.3938L68.1648 69.2448H63.8156V64.9536L63.7967 64.9268C63.2753 64.1859 62.1725 64.1998 61.6699 64.9536Z" fill="white"/>
</svg>
