<svg width="111" height="110" viewBox="0 0 111 110" fill="none" xmlns="http://www.w3.org/2000/svg">
<rect x="0.5" width="110" height="109.25" rx="14" fill="#801A86"/>
<path fill-rule="evenodd" clip-rule="evenodd" d="M69.924 34.1251H41.076L31.5 43.6678V75.1251H79.5V43.6678L69.924 34.1251ZM37.3526 42.6668L42.4954 37.5418H68.5046L73.6474 42.6668H37.3526ZM51.0669 54.6251L53.2851 52.4179L50.8611 49.9989L42.7903 58.0418H62.3571C62.8118 58.0418 63.2478 58.2217 63.5693 58.5421C63.8908 58.8625 64.0714 59.297 64.0714 59.7501C64.0714 60.2032 63.8908 60.6377 63.5693 60.9581C63.2478 61.2784 62.8118 61.4584 62.3571 61.4584H48.6429V64.8751H62.3571C63.7211 64.8751 65.0292 64.3351 65.9937 63.374C66.9582 62.4129 67.5 61.1093 67.5 59.7501C67.5 58.3909 66.9582 57.0873 65.9937 56.1262C65.0292 55.165 63.7211 54.6251 62.3571 54.6251H51.0669Z" fill="white"/>
</svg>
