<svg width="111" height="110" viewBox="0 0 111 110" fill="none" xmlns="http://www.w3.org/2000/svg">
<rect y="9.15527e-05" width="111" height="109.25" rx="14" fill="#904E55"/>
<path d="M55.2669 35.3694C54.4073 34.5095 53.2413 34.0263 52.0255 34.0261H35.5847C34.3688 34.0261 33.2026 34.5091 32.3428 35.3689C31.483 36.2287 31 37.3948 31 38.6108V55.0515C31.0003 56.2674 31.4835 57.4333 32.3433 58.2929L50.6821 76.6318C51.5419 77.4913 52.7078 77.9741 53.9235 77.9741C55.1392 77.9741 56.3052 77.4913 57.1649 76.6318L73.6057 60.191C74.4652 59.3312 74.948 58.1653 74.948 56.9496C74.948 55.7339 74.4652 54.568 73.6057 53.7082L55.2669 35.3694ZM42.4618 50.0726C41.2455 50.0722 40.0792 49.5888 39.2194 48.7286C38.3596 47.8683 37.8768 46.7018 37.8771 45.4856C37.8774 44.2693 38.3608 43.103 39.221 42.2432C40.0813 41.3834 41.2478 40.9005 42.4641 40.9008C43.6803 40.9011 44.8466 41.3846 45.7064 42.2448C46.5662 43.1051 47.0491 44.2716 47.0488 45.4878C47.0485 46.7041 46.565 47.8704 45.7048 48.7302C44.8446 49.59 43.678 50.0729 42.4618 50.0726Z" fill="white"/>
<path d="M74.8562 75.0723C81.6798 75.0723 87.2125 69.5443 87.2125 62.7236C87.2125 55.903 81.6798 50.375 74.8562 50.375C68.0327 50.375 62.5 55.903 62.5 62.7236C62.5 69.5443 68.0327 75.0723 74.8562 75.0723Z" fill="#35B56B" stroke="#904E55" stroke-width="2"/>
<path d="M75.7052 56.413C75.3146 56.0225 74.6815 56.0225 74.2909 56.413L67.927 62.7769C67.5365 63.1675 67.5365 63.8006 67.927 64.1912C68.3175 64.5817 68.9507 64.5817 69.3412 64.1912L74.998 58.5343L80.6549 64.1912C81.0454 64.5817 81.6786 64.5817 82.0691 64.1912C82.4596 63.8006 82.4596 63.1675 82.0691 62.7769L75.7052 56.413ZM75.998 69.4312V57.1201H73.998V69.4312H75.998Z" fill="white"/>
</svg>
