<svg width="111" height="110" viewBox="0 0 111 110" fill="none" xmlns="http://www.w3.org/2000/svg">
<rect x="0.5" width="110" height="109.25" rx="14" fill="#BA2D0B"/>
<path d="M35.3389 28.0671H59L66.5 34.4766L72.4731 39.9766V77.5794H35.3389V28.0671Z" fill="white"/>
<path d="M31.5 32.1409H34.242V78.4411H69.0259V81.1831H31.5V32.1409Z" fill="white"/>
<path d="M60.3535 28.623L59.5 27.7695L59.5 28.9766L59.5 40.9766L59.5 41.4766H60H72H73.2071L72.3536 40.623L60.3535 28.623Z" fill="white" stroke="#BA2D0B"/>
<path d="M38 44.0356C38 43.4507 38.4741 42.9766 39.059 42.9766C39.6439 42.9766 40.118 43.4507 40.118 44.0356V73.1531H69.2268C69.7203 73.1531 70.1203 73.5532 70.1203 74.0466C70.1203 74.5401 69.7203 74.9402 69.2268 74.9402H39C38.4477 74.9402 38 74.4925 38 73.9402V44.0356Z" fill="#BA2D0B"/>
<rect x="41.4473" y="64.9124" width="4.0738" height="6.89412" fill="#BA2D0B"/>
<rect x="48.1846" y="62.2488" width="4.0738" height="9.55775" fill="#BA2D0B"/>
<rect x="54.9219" y="58.175" width="4.0738" height="13.6316" fill="#BA2D0B"/>
<rect x="61.6597" y="60.0552" width="4.0738" height="11.7513" fill="#BA2D0B"/>
<path d="M41.9808 59.7787C41.7416 59.9165 41.6594 60.2223 41.7973 60.4615C41.9351 60.7008 42.2409 60.783 42.4801 60.6451L41.9808 59.7787ZM61.2021 49.6871C61.2738 49.4204 61.1157 49.1462 60.849 49.0745L56.5033 47.9063C56.2366 47.8346 55.9623 47.9926 55.8907 48.2593C55.819 48.526 55.977 48.8003 56.2437 48.872L60.1066 49.9104L59.0682 53.7732C58.9965 54.0399 59.1546 54.3142 59.4212 54.3859C59.6879 54.4576 59.9622 54.2995 60.0339 54.0328L61.2021 49.6871ZM42.4801 60.6451L60.9689 49.9905L60.4696 49.1241L41.9808 59.7787L42.4801 60.6451Z" fill="#BA2D0B"/>
</svg>
