<svg width="24" height="25" viewBox="0 0 24 25" fill="none" xmlns="http://www.w3.org/2000/svg">
<path d="M12.3326 9.07741C11.6382 9.00772 10.9396 9.15784 10.3324 9.50722C9.72524 9.8566 9.23916 10.3882 8.94074 11.0291C8.64232 11.6701 8.54615 12.3891 8.6654 13.0878C8.78464 13.7864 9.11348 14.4305 9.60687 14.9319C10.1003 15.4333 10.7341 15.7675 11.4216 15.8887C12.1091 16.0098 12.8167 15.9121 13.4474 15.6089C14.0781 15.3056 14.6012 14.8116 14.945 14.1946C15.2888 13.5776 15.4366 12.8676 15.368 12.162C15.2898 11.3709 14.9449 10.6317 14.3917 10.0695C13.8385 9.50737 13.111 9.15686 12.3326 9.07741ZM20.4816 12.5C20.4795 12.8738 20.4524 13.2471 20.4007 13.6172L22.7914 15.5228C22.8955 15.6105 22.9657 15.7328 22.9894 15.8681C23.0131 16.0034 22.9889 16.1428 22.921 16.2617L20.6593 20.2383C20.5906 20.356 20.4832 20.4453 20.3561 20.4904C20.229 20.5355 20.0903 20.5336 19.9644 20.485L17.5901 19.5134C17.4591 19.4604 17.3173 19.4413 17.1773 19.4577C17.0373 19.4741 16.9035 19.5255 16.7878 19.6074C16.4255 19.861 16.0447 20.0863 15.6488 20.2813C15.5243 20.3428 15.4167 20.4345 15.3353 20.5482C15.254 20.662 15.2014 20.7944 15.1824 20.9337L14.8265 23.5072C14.8031 23.6431 14.734 23.7666 14.631 23.8565C14.528 23.9463 14.3975 23.9971 14.2617 24H9.73828C9.60478 23.9977 9.47604 23.9492 9.37329 23.8625C9.27053 23.7759 9.19988 23.6562 9.17298 23.5233L8.81762 20.9536C8.79767 20.8127 8.74378 20.6791 8.66075 20.5645C8.57772 20.45 8.46812 20.358 8.34169 20.2969C7.94622 20.103 7.56673 19.8771 7.20687 19.6214C7.09164 19.5399 6.95827 19.4889 6.81878 19.4728C6.67929 19.4568 6.53807 19.4763 6.40783 19.5295L4.03401 20.5006C3.90821 20.5492 3.76954 20.5512 3.64243 20.5062C3.51531 20.4612 3.40792 20.372 3.33915 20.2544L1.07743 16.2778C1.00943 16.159 0.985132 16.0195 1.00886 15.8842C1.03258 15.7489 1.10279 15.6265 1.20699 15.5389L3.22757 13.9268C3.33827 13.8375 3.42527 13.7215 3.48068 13.5893C3.53609 13.4572 3.55815 13.3131 3.54486 13.1701C3.52582 12.946 3.51419 12.7225 3.51419 12.4984C3.51419 12.2743 3.52529 12.054 3.54486 11.8347C3.55669 11.6926 3.53355 11.5497 3.47752 11.4189C3.42148 11.2882 3.33432 11.1736 3.22387 11.0856L1.20434 9.47346C1.10184 9.38538 1.03311 9.26345 1.01019 9.12904C0.987279 8.99462 1.01164 8.85631 1.07902 8.73832L3.34074 4.76168C3.40942 4.64399 3.51678 4.55471 3.6439 4.50959C3.77102 4.46446 3.90973 4.46639 4.03559 4.51502L6.40995 5.48661C6.54088 5.53959 6.68271 5.55873 6.82271 5.54232C6.96272 5.52591 7.09653 5.47445 7.21215 5.39257C7.57452 5.13899 7.9553 4.91372 8.35121 4.71869C8.47568 4.65721 8.58334 4.56554 8.66468 4.45176C8.74603 4.33798 8.79855 4.2056 8.81762 4.06631L9.17351 1.49278C9.19689 1.35687 9.26598 1.23342 9.36899 1.14354C9.47201 1.05366 9.60254 1.00292 9.73828 1H14.2617C14.3952 1.00235 14.524 1.05084 14.6267 1.13748C14.7295 1.22412 14.8001 1.34375 14.827 1.47666L15.1824 4.04643C15.2023 4.18726 15.2562 4.32089 15.3393 4.43546C15.4223 4.55002 15.5319 4.64196 15.6583 4.70311C16.0538 4.89702 16.4333 5.12291 16.7931 5.3786C16.9084 5.46007 17.0417 5.51113 17.1812 5.52717C17.3207 5.54321 17.4619 5.52374 17.5922 5.47049L19.966 4.49944C20.0918 4.45076 20.2305 4.44875 20.3576 4.49378C20.4847 4.5388 20.5921 4.62796 20.6609 4.74556L22.9226 8.7222C22.9906 8.84101 23.0149 8.98048 22.9911 9.11579C22.9674 9.2511 22.8972 9.37347 22.793 9.4611L20.7724 11.0732C20.6612 11.1623 20.5737 11.2781 20.5179 11.4103C20.462 11.5424 20.4395 11.6867 20.4525 11.8299C20.4699 12.0524 20.4816 12.2759 20.4816 12.5Z" stroke="#87868B" stroke-width="1.5" stroke-linecap="round" stroke-linejoin="round"/>
</svg>
