<svg width="111" height="110" viewBox="0 0 111 110" fill="none" xmlns="http://www.w3.org/2000/svg">
<rect x="0.5" y="0.5" width="110" height="109.25" rx="14" fill="#7F38DC"/>
<path d="M53.5 29H49V23H28C26.35 23 25 24.35 25 26V42.5H28C28 44.99 30.01 47 32.5 47C34.99 47 37 44.99 37 42.5H46C46 44.99 48.01 47 50.5 47C52.99 47 55 44.99 55 42.5H58V35L53.5 29ZM32.5 44.75C31.255 44.75 30.25 43.745 30.25 42.5C30.25 41.255 31.255 40.25 32.5 40.25C33.745 40.25 34.75 41.255 34.75 42.5C34.75 43.745 33.745 44.75 32.5 44.75ZM52.75 31.25L55.69 35H49V31.25H52.75ZM50.5 44.75C49.255 44.75 48.25 43.745 48.25 42.5C48.25 41.255 49.255 40.25 50.5 40.25C51.745 40.25 52.75 41.255 52.75 42.5C52.75 43.745 51.745 44.75 50.5 44.75Z" fill="white"/>
<path d="M51.4541 37.1866L66.5578 37.6901C71.4954 37.8546 75.5296 41.686 75.9484 46.6085L76.0328 47.5998C76.2627 50.3018 75.0972 52.9341 72.9422 54.5801V54.5801C71.6498 55.5672 70.0854 56.1335 68.4607 56.2024L52.0349 56.8984C49.2088 57.0181 46.5683 58.3386 44.7771 60.5278L44.6796 60.647C41.3386 64.7304 41.847 70.7297 45.8275 74.1927V74.1927C47.6041 75.7384 49.8797 76.5897 52.2346 76.5897L65.4129 76.5897" stroke="white" stroke-width="2" stroke-linecap="round" stroke-dasharray="5 5"/>
<path d="M84.5011 83.5191C84.5011 83.7194 84.3926 84.0396 83.9078 84.4564C83.4263 84.8704 82.671 85.2885 81.6508 85.6595C79.6185 86.3985 76.7447 86.8751 73.522 86.8751C70.2994 86.8751 67.4256 86.3985 65.3933 85.6595C64.3731 85.2885 63.6178 84.8704 63.1363 84.4564C62.6515 84.0396 62.543 83.7194 62.543 83.5191C62.543 83.3188 62.6515 82.9986 63.1363 82.5818C63.6178 82.1679 64.3731 81.7497 65.3933 81.3787C67.4256 80.6397 70.2994 80.1631 73.522 80.1631C76.7447 80.1631 79.6185 80.6397 81.6508 81.3787C82.671 81.7497 83.4263 82.1679 83.9078 82.5818C84.3926 82.9986 84.5011 83.3188 84.5011 83.5191Z" fill="white" stroke="white" stroke-width="2"/>
<path d="M65.1649 71.1814C66.2108 75.7723 72.9151 84 72.9151 84C72.9151 84 79.7946 76.4653 80.8395 71.1814C81.8843 65.8975 77.6657 61.9487 72.9151 62.0005C68.2085 62.0518 64.119 66.5904 65.1649 71.1814Z" fill="#7F38DC" stroke="white" stroke-width="2"/>
<circle cx="73.5" cy="69.5" r="3" fill="#7F38DC" stroke="white"/>
</svg>
