<svg width="202" height="272" viewBox="0 0 202 272" fill="none" xmlns="http://www.w3.org/2000/svg">
<g filter="url(#filter0_d_1523_4598)">
<path d="M55.3261 74.4775L17.949 91.3479V159.401L93.8897 194L168.051 159.401V117.082L139.869 103.929L93.8897 125.375L120.291 138.528L93.8897 150.823L55.3261 133.953V74.4775Z" fill="white"/>
<path d="M17.949 49.3442V91.3788L93.2968 58.1768L121.181 70.7581L93.2968 83.3394V104.642V125.944L168.051 91.9176V49.0267L93.5935 15L17.949 49.3442Z" fill="#35B56B"/>
</g>
<path d="M14.704 223.512C15.712 222.019 17.0933 220.805 18.848 219.872C20.64 218.939 22.6747 218.472 24.952 218.472C27.6027 218.472 29.992 219.125 32.12 220.432C34.2853 221.739 35.984 223.605 37.216 226.032C38.4853 228.421 39.12 231.203 39.12 234.376C39.12 237.549 38.4853 240.368 37.216 242.832C35.984 245.259 34.2853 247.144 32.12 248.488C29.992 249.832 27.6027 250.504 24.952 250.504C22.6373 250.504 20.6027 250.056 18.848 249.16C17.1307 248.227 15.7493 247.032 14.704 245.576V250H6.864V208.56H14.704V223.512ZM31.112 234.376C31.112 232.509 30.72 230.904 29.936 229.56C29.1893 228.179 28.1813 227.133 26.912 226.424C25.68 225.715 24.336 225.36 22.88 225.36C21.4613 225.36 20.1173 225.733 18.848 226.48C17.616 227.189 16.608 228.235 15.824 229.616C15.0773 230.997 14.704 232.621 14.704 234.488C14.704 236.355 15.0773 237.979 15.824 239.36C16.608 240.741 17.616 241.805 18.848 242.552C20.1173 243.261 21.4613 243.616 22.88 243.616C24.336 243.616 25.68 243.243 26.912 242.496C28.1813 241.749 29.1893 240.685 29.936 239.304C30.72 237.923 31.112 236.28 31.112 234.376Z" fill="white"/>
<path d="M56.84 215.28C55.4587 215.28 54.3013 214.851 53.368 213.992C52.472 213.096 52.024 211.995 52.024 210.688C52.024 209.381 52.472 208.299 53.368 207.44C54.3013 206.544 55.4587 206.096 56.84 206.096C58.2213 206.096 59.36 206.544 60.256 207.44C61.1893 208.299 61.656 209.381 61.656 210.688C61.656 211.995 61.1893 213.096 60.256 213.992C59.36 214.851 58.2213 215.28 56.84 215.28ZM60.704 218.976V250H52.864V218.976H60.704Z" fill="white"/>
<path d="M84.704 208.56V250H76.864V208.56H84.704Z" fill="white"/>
<path d="M108.704 208.56V250H100.864V208.56H108.704Z" fill="white"/>
<path d="M128.84 215.28C127.459 215.28 126.301 214.851 125.368 213.992C124.472 213.096 124.024 211.995 124.024 210.688C124.024 209.381 124.472 208.299 125.368 207.44C126.301 206.544 127.459 206.096 128.84 206.096C130.221 206.096 131.36 206.544 132.256 207.44C133.189 208.299 133.656 209.381 133.656 210.688C133.656 211.995 133.189 213.096 132.256 213.992C131.36 214.851 130.221 215.28 128.84 215.28ZM132.704 218.976V250H124.864V218.976H132.704Z" fill="white"/>
<path d="M166.056 218.528C169.752 218.528 172.739 219.704 175.016 222.056C177.293 224.371 178.432 227.619 178.432 231.8V250H170.592V232.864C170.592 230.4 169.976 228.515 168.744 227.208C167.512 225.864 165.832 225.192 163.704 225.192C161.539 225.192 159.821 225.864 158.552 227.208C157.32 228.515 156.704 230.4 156.704 232.864V250H148.864V218.976H156.704V222.84C157.749 221.496 159.075 220.451 160.68 219.704C162.323 218.92 164.115 218.528 166.056 218.528Z" fill="white"/>
<circle cx="5" cy="5" r="5" transform="matrix(1 0 0 -1 52 216)" fill="#35B56B"/>
<circle cx="5" cy="5" r="5" transform="matrix(1 0 0 -1 124 216)" fill="#35B56B"/>
<defs>
<filter id="filter0_d_1523_4598" x="0.948975" y="0" width="200.102" height="229" filterUnits="userSpaceOnUse" color-interpolation-filters="sRGB">
<feFlood flood-opacity="0" result="BackgroundImageFix"/>
<feColorMatrix in="SourceAlpha" type="matrix" values="0 0 0 0 0 0 0 0 0 0 0 0 0 0 0 0 0 0 127 0" result="hardAlpha"/>
<feOffset dx="8" dy="10"/>
<feGaussianBlur stdDeviation="12.5"/>
<feComposite in2="hardAlpha" operator="out"/>
<feColorMatrix type="matrix" values="0 0 0 0 0.749167 0 0 0 0 0.749167 0 0 0 0 0.749167 0 0 0 0.6 0"/>
<feBlend mode="normal" in2="BackgroundImageFix" result="effect1_dropShadow_1523_4598"/>
<feBlend mode="normal" in="SourceGraphic" in2="effect1_dropShadow_1523_4598" result="shape"/>
</filter>
</defs>
</svg>
