<svg width="236" height="187" viewBox="0 0 236 187" fill="none" xmlns="http://www.w3.org/2000/svg">
<path d="M114.524 186.81C143.925 186.81 167.759 162.976 167.759 133.575C167.759 104.174 143.925 80.3401 114.524 80.3401C85.1228 80.3401 61.2886 104.174 61.2886 133.575C61.2886 162.976 85.1228 186.81 114.524 186.81Z" fill="#35B56B"/>
<path d="M140.732 111.127C141.403 111.676 131.46 125.056 118.527 140.998C115.762 144.353 113.118 147.566 110.678 150.515L109.6 151.816L108.441 150.637C98.3352 140.226 91.4215 132.478 91.9095 131.99C92.3976 131.502 100.125 138.396 110.556 148.522L108.34 148.644C110.739 145.655 113.321 142.401 116.046 139.026C128.999 123.084 140.041 110.599 140.732 111.168V111.127Z" fill="white"/>
<path d="M190.154 112.122C188.567 106.53 181.308 107.079 181.308 107.079L181.512 110.963C185.721 110.231 188.323 115.172 188.323 115.172L190.154 112.142V112.122Z" fill="#35B56B"/>
<path d="M35.9471 123.854C34.361 118.262 27.1017 118.811 27.1017 118.811L27.305 122.695C31.5142 121.963 34.117 126.884 34.117 126.884L35.9471 123.854Z" fill="#E0E0E0"/>
<path d="M120.869 46.5052C129.308 49.0673 134.554 39.3272 134.554 39.3272L129.43 36.3991C126.929 42.357 118.51 41.6657 118.51 41.6657L120.89 46.4849L120.869 46.5052Z" fill="#E0E0E0"/>
<path d="M74.1005 56.9755C70.1759 57.3822 69.7083 62.3234 69.7083 62.3234L72.3314 62.6284C72.3314 59.741 75.9305 58.5413 75.9305 58.5413L74.1005 56.9755Z" fill="#35B56B"/>
<path d="M235.821 92.9889C236.39 89.0847 231.733 87.4173 231.733 87.4173L230.778 89.8777C233.584 90.5894 233.828 94.3716 233.828 94.3716L235.8 92.9889H235.821Z" fill="#E0E0E0"/>
<path d="M96.9758 5.57157C97.5452 1.6674 92.8886 0 92.8886 0L91.9329 2.46044C94.739 3.17214 94.9831 6.9543 94.9831 6.9543L96.9555 5.57157H96.9758Z" fill="#35B56B"/>
<path d="M0.0442267 68.5451C-0.667471 74.6657 7.44588 76.1501 7.44588 76.1501L8.90995 72.1442C4.05007 71.6969 3.33837 65.983 3.33837 65.983L0.0442267 68.5654V68.5451Z" fill="#35B56B"/>
<path d="M180.534 46.3604C184.479 46.5841 185.74 41.8056 185.74 41.8056L183.198 41.0735C182.73 43.9407 178.989 44.51 178.989 44.51L180.534 46.3604Z" fill="#35B56B"/>
<path d="M202.049 62.425C202.049 62.608 200.585 62.7504 198.796 62.7504C197.006 62.7504 195.542 62.608 195.542 62.425C195.542 62.242 197.006 62.0997 198.796 62.0997C200.585 62.0997 202.049 62.242 202.049 62.425Z" fill="#E0E0E0"/>
<path d="M205.506 53.5797C205.689 53.5797 205.832 55.0641 205.832 56.8739C205.832 58.6836 205.689 60.168 205.506 60.168C205.323 60.168 205.181 58.6836 205.181 56.8739C205.181 55.0641 205.323 53.5797 205.506 53.5797Z" fill="#E0E0E0"/>
<path d="M209.185 62.2212C209.185 62.0382 210.649 61.8958 212.438 61.8958C214.228 61.8958 215.692 62.0382 215.692 62.2212C215.692 62.4042 214.228 62.5465 212.438 62.5465C210.649 62.5465 209.185 62.4042 209.185 62.2212Z" fill="#E0E0E0"/>
<path d="M205.729 71.0666C205.546 71.0666 205.404 69.5822 205.404 67.7725C205.404 65.9627 205.546 64.4783 205.729 64.4783C205.912 64.4783 206.055 65.9627 206.055 67.7725C206.055 69.5822 205.912 71.0666 205.729 71.0666Z" fill="#E0E0E0"/>
<path d="M210.976 67.2646C210.834 67.3866 210.224 66.8579 209.573 66.0852C208.943 65.3125 208.536 64.6008 208.658 64.4991C208.8 64.3771 209.41 64.9058 210.061 65.6785C210.691 66.4512 211.098 67.1629 210.976 67.2646Z" fill="#E0E0E0"/>
<path d="M210.671 57.2397C210.793 57.3617 210.366 58.0124 209.695 58.6834C209.024 59.3544 208.394 59.8018 208.272 59.6798C208.15 59.5578 208.577 58.9071 209.248 58.2361C209.919 57.565 210.549 57.1177 210.671 57.2397Z" fill="#E0E0E0"/>
<path d="M203.23 59.802C203.108 59.9443 202.518 59.619 201.888 59.0903C201.257 58.5616 200.83 58.0329 200.952 57.8906C201.074 57.7482 201.664 58.0736 202.294 58.6023C202.925 59.131 203.352 59.6597 203.23 59.802Z" fill="#E0E0E0"/>
<path d="M202.924 64.2147C203.046 64.3367 202.68 64.9671 202.07 65.6178C201.46 66.2685 200.87 66.7158 200.748 66.5938C200.626 66.4718 200.992 65.8415 201.602 65.1908C202.212 64.5401 202.802 64.0927 202.924 64.2147Z" fill="#E0E0E0"/>
<path d="M24.8887 44.3068C24.8887 44.4898 23.4247 44.6321 21.6352 44.6321C19.8458 44.6321 18.3818 44.4898 18.3818 44.3068C18.3818 44.1237 19.8458 43.9814 21.6352 43.9814C23.4247 43.9814 24.8887 44.1237 24.8887 44.3068Z" fill="#35B56B"/>
<path d="M28.3461 35.4615C28.5291 35.4615 28.6715 36.9459 28.6715 38.7556C28.6715 40.5654 28.5291 42.0498 28.3461 42.0498C28.1631 42.0498 28.0208 40.5654 28.0208 38.7556C28.0208 36.9459 28.1631 35.4615 28.3461 35.4615Z" fill="#35B56B"/>
<path d="M32.0245 44.0835C32.0245 43.9005 33.4886 43.7582 35.278 43.7582C37.0674 43.7582 38.5315 43.9005 38.5315 44.0835C38.5315 44.2665 37.0674 44.4089 35.278 44.4089C33.4886 44.4089 32.0245 44.2665 32.0245 44.0835Z" fill="#35B56B"/>
<path d="M28.5691 52.9488C28.3861 52.9488 28.2437 51.4644 28.2437 49.6547C28.2437 47.8449 28.3861 46.3605 28.5691 46.3605C28.7521 46.3605 28.8944 47.8449 28.8944 49.6547C28.8944 51.4644 28.7521 52.9488 28.5691 52.9488Z" fill="#35B56B"/>
<path d="M33.8346 49.1464C33.6923 49.2684 33.0823 48.7397 32.4316 47.967C31.8012 47.1943 31.3945 46.4826 31.5165 46.381C31.6589 46.259 32.2689 46.7876 32.9196 47.5603C33.55 48.333 33.9567 49.0448 33.8346 49.1464Z" fill="#35B56B"/>
<path d="M33.53 39.1216C33.652 39.2436 33.2249 39.8943 32.5539 40.5653C31.8829 41.2363 31.2525 41.6837 31.1305 41.5617C31.0085 41.4397 31.4355 40.789 32.1066 40.118C32.7776 39.4469 33.4079 38.9996 33.53 39.1216Z" fill="#35B56B"/>
<path d="M26.0686 41.664C25.9466 41.8063 25.3569 41.481 24.7265 40.9523C24.0962 40.4236 23.6692 39.8949 23.7912 39.7526C23.9132 39.6102 24.5029 39.9356 25.1332 40.4643C25.7636 40.993 26.1906 41.5217 26.0686 41.664Z" fill="#35B56B"/>
<path d="M25.7828 46.0966C25.9048 46.2186 25.5388 46.849 24.9288 47.4997C24.3188 48.1504 23.7291 48.5977 23.6071 48.4757C23.4851 48.3537 23.8511 47.7234 24.4611 47.0727C25.0711 46.422 25.6608 45.9746 25.7828 46.0966Z" fill="#35B56B"/>
</svg>
