<svg width="111" height="110" viewBox="0 0 111 110" fill="none" xmlns="http://www.w3.org/2000/svg">
<rect x="0.5" y="0.250183" width="110" height="109.25" rx="14" fill="#B6174B"/>
<path d="M26.0134 43.3753H28.8513" stroke="white" stroke-width="1.5" stroke-linecap="round"/>
<path d="M17.5 50.3753H19.3919" stroke="white" stroke-width="1.5" stroke-linecap="round"/>
<path d="M22.2297 54.3753H24.1216" stroke="white" stroke-width="1.5" stroke-linecap="round"/>
<path d="M23.1758 48.3753H27.9055" stroke="white" stroke-width="1.5" stroke-linecap="round"/>
<rect x="26.9595" y="50.77" width="8.66287" height="7.63158" fill="white"/>
<rect x="36.3445" y="50.77" width="8.66287" height="7.63158" fill="white"/>
<rect x="45.7288" y="50.77" width="8.66287" height="7.63158" fill="white"/>
<rect x="41.3977" y="42.3753" width="8.66287" height="7.63158" fill="white"/>
<rect x="32.0125" y="42.3753" width="8.66287" height="7.63158" fill="white"/>
<path d="M28.1892 39.9766C28.1892 40.5288 28.6369 40.9766 29.1892 40.9766C29.7415 40.9766 30.1892 40.5288 30.1892 39.9766H28.1892ZM67.7944 35.3813L66.7944 35.3753L67.7944 35.3813ZM30.1892 39.9766V38.3101H28.1892V39.9766H30.1892ZM33.2713 35.3753H66.7944V33.3753H33.2713V35.3753ZM66.7944 35.3753L66.6351 61.8693L68.635 61.8813L68.7944 35.3873L66.7944 35.3753ZM30.5432 37.174L30.9207 36.6271L29.2747 35.491L28.8972 36.0379L30.5432 37.174ZM31.6021 36.0112L32.3067 35.6233L31.3421 33.8713L30.6375 34.2592L31.6021 36.0112ZM30.9207 36.6271C31.097 36.3717 31.3302 36.1609 31.6021 36.0112L30.6375 34.2592C30.0938 34.5585 29.6273 34.9802 29.2747 35.491L30.9207 36.6271ZM66.7944 35.3753L68.7944 35.3873C68.801 34.2781 67.9037 33.3753 66.7944 33.3753V35.3753ZM33.2713 33.3753C32.5967 33.3753 31.933 33.5459 31.3421 33.8713L32.3067 35.6233C32.6022 35.4606 32.934 35.3753 33.2713 35.3753V33.3753ZM30.1892 38.3101C30.1892 37.9042 30.3127 37.508 30.5432 37.174L28.8972 36.0379C28.4362 36.7059 28.1892 37.4984 28.1892 38.3101H30.1892Z" fill="white"/>
<path d="M71.8918 48.3753V54.3753H77.4998" stroke="white" stroke-width="1.5" stroke-linecap="round"/>
<path d="M30.3242 61.8753C30.3242 61.323 29.8765 60.8753 29.3242 60.8753C28.7719 60.8753 28.3242 61.323 28.3242 61.8753H30.3242ZM29.3242 69.3753H28.3242V70.3753H29.3242V69.3753ZM28.3242 61.8753V69.3753H30.3242V61.8753H28.3242ZM29.3242 70.3753H32.635V68.3753H29.3242V70.3753Z" fill="white"/>
<path d="M81.7703 69.3753C81.7703 72.1898 79.6253 74.3753 77.0946 74.3753C74.5639 74.3753 72.4189 72.1898 72.4189 69.3753C72.4189 66.5608 74.5639 64.3753 77.0946 64.3753C79.6253 64.3753 81.7703 66.5608 81.7703 69.3753Z" stroke="white" stroke-width="2"/>
<path d="M42.9866 69.3753C42.9866 72.1898 40.8416 74.3753 38.3109 74.3753C35.7803 74.3753 33.6353 72.1898 33.6353 69.3753C33.6353 66.5608 35.7803 64.3753 38.3109 64.3753C40.8416 64.3753 42.9866 66.5608 42.9866 69.3753Z" stroke="white" stroke-width="2"/>
<path d="M66.6353 61.8753C66.6353 62.4276 67.083 62.8753 67.6353 62.8753C68.1875 62.8753 68.6353 62.4276 68.6353 61.8753H66.6353ZM67.6353 44.3753V43.3753H66.6353V44.3753H67.6353ZM87.5001 69.3753V70.3753H88.5001V69.3753H87.5001ZM87.477 58.3019L86.5233 58.6026L87.477 58.3019ZM83.6272 54.1868L84.5312 53.7592L83.6272 54.1868ZM83.913 54.4446L84.2453 53.5014L83.913 54.4446ZM85.1407 54.8772L85.4731 53.9341L85.1407 54.8772ZM87.0048 56.8045L87.9585 56.5038L87.0048 56.8045ZM79.2574 44.9477L78.3534 45.3753L79.2574 44.9477ZM68.6353 61.8753V44.3753H66.6353V61.8753H68.6353ZM67.6353 45.3753H78.3534V43.3753H67.6353V45.3753ZM78.3534 45.3753L82.7232 54.6143L84.5312 53.7592L80.1613 44.5201L78.3534 45.3753ZM87.5001 68.3753H82.7704V70.3753H87.5001V68.3753ZM86.5001 58.4522V69.3753H88.5001V58.4522H86.5001ZM83.5806 55.3877L84.8084 55.8204L85.4731 53.9341L84.2453 53.5014L83.5806 55.3877ZM86.0511 57.1052L86.5233 58.6026L88.4307 58.0012L87.9585 56.5038L86.0511 57.1052ZM88.5001 58.4522C88.5001 58.2992 88.4767 58.1471 88.4307 58.0012L86.5233 58.6026C86.5079 58.5539 86.5001 58.5032 86.5001 58.4522H88.5001ZM82.7232 54.6143C82.8944 54.9762 83.2031 55.2547 83.5806 55.3877L84.2453 53.5014C84.3712 53.5458 84.4741 53.6386 84.5312 53.7592L82.7232 54.6143ZM84.8084 55.8204C85.4016 56.0294 85.862 56.5054 86.0511 57.1052L87.9585 56.5038C87.5802 55.304 86.6596 54.3521 85.4731 53.9341L84.8084 55.8204ZM78.3534 45.3753H78.3534L80.1613 44.5201C79.8307 43.8211 79.1267 43.3753 78.3534 43.3753V45.3753Z" fill="white"/>
<path d="M43.0002 69.3753H72.0002" stroke="white" stroke-width="2"/>
<path d="M32.6353 59.3753C32.083 59.3753 31.6353 59.823 31.6353 60.3753C31.6353 60.9276 32.083 61.3753 32.6353 61.3753V59.3753ZM32.6353 61.3753H66.6893V59.3753H32.6353V61.3753Z" fill="white"/>
</svg>
