<svg width="111" height="110" viewBox="0 0 111 110" fill="none" xmlns="http://www.w3.org/2000/svg">
<rect x="0.5" y="0.250183" width="110" height="109.25" rx="14" fill="#D1603D"/>
<rect x="50.5239" y="28.5897" width="9.99802" height="11.2881" fill="white"/>
<rect x="70.665" y="32.8483" width="9.99802" height="11.2881" transform="rotate(46.3139 70.665 32.8483)" fill="white"/>
<rect x="81.6211" y="50.1184" width="9.99802" height="11.2881" transform="rotate(90.2846 81.6211 50.1184)" fill="white"/>
<rect x="77.4653" y="69.6949" width="9.99802" height="11.2881" transform="rotate(134.166 77.4653 69.6949)" fill="white"/>
<rect x="60.5229" y="81.16" width="9.99802" height="11.2881" transform="rotate(179.995 60.5229 81.16)" fill="white"/>
<rect x="40.9941" y="77.0706" width="9.99802" height="11.2881" transform="rotate(-133.827 40.9941 77.0706)" fill="white"/>
<rect x="29.5" y="59.9013" width="9.99802" height="11.2881" transform="rotate(-89.4501 29.5 59.9013)" fill="white"/>
<rect x="32.6128" y="39.5616" width="9.99802" height="11.2881" transform="rotate(-45.4255 32.6128 39.5616)" fill="white"/>
<circle cx="55.6845" cy="55.0361" r="20.6411" fill="white"/>
<circle cx="55.5231" cy="54.8749" r="13.3844" fill="#D1603D"/>
<circle cx="55.6843" cy="55.0361" r="9.6755" fill="white"/>
<path d="M55.5229 58.4224L53.5878 56.6485L51.939 58.737C51.5105 59.2798 51.5924 60.0653 52.1237 60.5081C52.6651 60.9593 53.4698 60.8861 53.921 60.3447L55.5229 58.4224Z" fill="#D1603D"/>
<path d="M58.2278 51.7425L57.4639 52.7247C57.3637 52.8535 57.1933 52.9051 57.0385 52.8535C56.9003 52.8074 56.7479 52.8434 56.6449 52.9465L55.8454 53.7459L57.9418 55.681L58.7239 54.6381C58.8376 54.4866 58.8558 54.2839 58.7711 54.1145L58.7369 54.0461C58.6462 53.8645 58.6742 53.6461 58.8079 53.4933L59.5087 52.6923C59.6341 52.549 59.8331 52.495 60.0137 52.5552L60.0569 52.5696C60.1482 52.6 60.2477 52.5929 60.3337 52.5499C60.4501 52.4917 60.5887 52.5004 60.697 52.5725L60.8405 52.6682C60.9349 52.7311 60.9676 52.8545 60.9169 52.9559C60.8736 53.0425 60.8906 53.147 60.9591 53.2155L61.0319 53.2883C61.189 53.4454 61.4483 53.4285 61.5837 53.2525L62.8289 51.6337C62.8895 51.555 62.8707 51.4416 62.7882 51.3865L62.6971 51.3258C62.5486 51.2268 62.3586 51.215 62.199 51.2948C62.1591 51.3147 62.1116 51.3117 62.0745 51.287L61.869 51.15C61.7402 51.0641 61.6847 50.9025 61.7337 50.7556C61.7805 50.6153 61.7322 50.4609 61.6139 50.3722L60.0865 49.2266C59.9552 49.1281 59.784 49.1003 59.6284 49.1522L59.4973 49.1959C59.4287 49.2188 59.3559 49.2265 59.284 49.2185L58.7493 49.1591C58.2315 49.1016 57.7117 49.2483 57.3005 49.5682L56.4905 50.1982L58.0286 50.6177C58.1505 50.6509 58.2116 50.7875 58.155 50.9005C58.1229 50.9648 58.1277 51.0414 58.1675 51.1012L58.2469 51.2203C58.3536 51.3803 58.3459 51.5907 58.2278 51.7425Z" fill="#D1603D"/>
<path d="M49.7362 52.0424L48.8686 51.2711C48.8021 51.212 48.701 51.215 48.6381 51.2779C48.6066 51.3094 48.5889 51.3522 48.5889 51.3967V51.9167C48.5889 52.1644 48.6535 52.4078 48.7764 52.6229L48.9317 52.8947C49.1304 53.2424 49.4074 53.5392 49.7407 53.7613C50.0444 53.9638 50.3876 54.0996 50.7477 54.1596L50.7637 54.1622C51.0323 54.207 51.3062 54.2102 51.5758 54.1717L51.853 54.1321C52.1357 54.0917 52.4221 54.1751 52.639 54.361L53.3965 55.0102C53.4142 55.0254 53.4193 55.0507 53.4089 55.0716C53.228 55.4334 53.3058 55.8709 53.6003 56.1481L58.0389 60.3256C58.3842 60.6506 58.8615 60.7956 59.3292 60.7177C59.4785 60.6928 59.6233 60.6457 59.7587 60.578L59.8281 60.5433C60.0706 60.422 60.2736 60.2341 60.4131 60.0015L60.4202 59.9896C60.59 59.7067 60.6535 59.3726 60.5992 59.0471C60.5491 58.7466 60.4016 58.4709 60.1793 58.2625L55.8203 54.1759C55.5344 53.9079 55.132 53.8034 54.7519 53.8985C54.73 53.9039 54.7069 53.8975 54.691 53.8816L54.0082 53.1988C53.7391 52.9296 53.5879 52.5647 53.5879 52.1841V51.9979C53.5879 51.7661 53.5687 51.5348 53.5306 51.3062L53.4748 50.9712C53.4429 50.7795 53.3824 50.5937 53.2955 50.42C53.1694 50.1677 52.99 49.9458 52.7698 49.7696L52.5927 49.6279C52.3972 49.4715 52.1797 49.3448 51.9472 49.2518L51.6694 49.1407C51.5519 49.0937 51.4265 49.0695 51.3 49.0695H50.8573C50.7518 49.0695 50.6554 49.1291 50.6083 49.2234C50.5574 49.3253 50.5736 49.4478 50.6492 49.5329L51.4005 50.3781C51.6593 50.6692 51.7575 51.0694 51.6631 51.4472C51.5575 51.8696 51.2277 52.1994 50.8053 52.305C50.4275 52.3994 50.0273 52.3012 49.7362 52.0424Z" fill="#D1603D"/>
</svg>
