<svg width="22" height="14" viewBox="0 0 22 14" fill="none" xmlns="http://www.w3.org/2000/svg">
<path d="M1.62012 2.25C2.03433 2.25 2.37012 1.91421 2.37012 1.5C2.37012 1.08579 2.03433 0.75 1.62012 0.75C1.2059 0.75 0.870117 1.08579 0.870117 1.5C0.870117 1.91421 1.2059 2.25 1.62012 2.25Z" fill="#5669FF" stroke="#5669FF" stroke-linecap="round" stroke-linejoin="round"/>
<path d="M6.37012 1.5H21.1301" stroke="#5669FF" stroke-linecap="round" stroke-linejoin="round"/>
<path d="M1.62012 7.75C2.03433 7.75 2.37012 7.41421 2.37012 7C2.37012 6.58579 2.03433 6.25 1.62012 6.25C1.2059 6.25 0.870117 6.58579 0.870117 7C0.870117 7.41421 1.2059 7.75 1.62012 7.75Z" fill="#5669FF" stroke="#5669FF" stroke-linecap="round" stroke-linejoin="round"/>
<path d="M6.37012 7H21.1301" stroke="#5669FF" stroke-linecap="round" stroke-linejoin="round"/>
<path d="M1.62012 13.25C2.03433 13.25 2.37012 12.9142 2.37012 12.5C2.37012 12.0858 2.03433 11.75 1.62012 11.75C1.2059 11.75 0.870117 12.0858 0.870117 12.5C0.870117 12.9142 1.2059 13.25 1.62012 13.25Z" fill="#5669FF" stroke="#5669FF" stroke-linecap="round" stroke-linejoin="round"/>
<path d="M6.37012 12.5H21.1301" stroke="#5669FF" stroke-linecap="round" stroke-linejoin="round"/>
</svg>
