<svg width="25" height="24" viewBox="0 0 25 24" fill="none" xmlns="http://www.w3.org/2000/svg">
<path d="M22.171 2.98058C23.3423 4.24593 24 5.95904 24 7.74489C24 9.53074 23.3423 11.2438 22.171 12.5092L12.4972 23L2.82341 12.5085C1.95329 11.5663 1.36086 10.3688 1.12029 9.06605C0.879716 7.76329 1.00169 6.41312 1.47095 5.18459C1.94021 3.95606 2.73589 2.90375 3.75838 2.15941C4.78087 1.41507 5.98473 1.01178 7.21925 1.00002C8.86991 1.01032 10.4499 1.72196 11.6151 2.97992C11.9552 3.3422 12.2515 3.74907 12.4972 4.19096C12.7429 3.74931 13.0393 3.34265 13.3793 2.98058C13.9535 2.35352 14.6379 1.85556 15.3926 1.51567C16.1473 1.17578 16.9573 1.00074 17.7755 1.00074C18.5936 1.00074 19.4036 1.17578 20.1583 1.51567C20.913 1.85556 21.5968 2.35352 22.171 2.98058Z" stroke="#87868B" stroke-width="1.5" stroke-linecap="round" stroke-linejoin="round"/>
</svg>
