<svg width="40" height="40" viewBox="0 0 40 40" fill="none" xmlns="http://www.w3.org/2000/svg">
<rect width="40" height="40" rx="9" fill="#F2F2F2"/>
<path d="M14.9079 25.4985C12.9417 22.4339 11.9584 20.9012 11.9296 19.3637C11.9008 17.8262 12.836 16.8832 14.7078 14.9982L16.6933 12.9988C18.5652 11.1139 19.5013 10.1712 20.6936 10.5383C21.886 10.9055 22.8693 12.4369 24.8354 15.5015C26.8015 18.5662 27.7849 20.0989 27.8137 21.6364C27.8425 23.1739 26.9073 24.1169 25.0355 26.0018L23.05 28.0012C21.1781 29.8862 20.242 30.8289 19.0497 30.4617C17.8573 30.0946 16.874 28.5632 14.9079 25.4985Z" stroke="#87868B" stroke-width="1.5"/>
<path d="M20.9645 24.7505L18.979 26.7499M22.95 22.7511L22.2055 23.5008M13.8652 23.8732L23.7928 13.8761" stroke="#87868B" stroke-width="1.5" stroke-linecap="round"/>
<line x1="9" y1="30.9853" x2="31" y2="30.9853" stroke="#87868B"/>
</svg>
