<svg width="20" height="20" viewBox="0 0 20 20" fill="none" xmlns="http://www.w3.org/2000/svg">
<path d="M13.0357 11.7857C12.8936 11.7857 12.7573 11.8421 12.6569 11.9426C12.5564 12.0431 12.5 12.1793 12.5 12.3214C12.5 12.4635 12.5564 12.5998 12.6569 12.7002C12.7573 12.8007 12.8936 12.8571 13.0357 12.8571H15.5357C15.6778 12.8571 15.814 12.8007 15.9145 12.7002C16.015 12.5998 16.0714 12.4635 16.0714 12.3214C16.0714 12.1793 16.015 12.0431 15.9145 11.9426C15.814 11.8421 15.6778 11.7857 15.5357 11.7857H13.0357ZM1.4314 6.24998C1.4314 5.53958 1.7136 4.85828 2.21593 4.35595C2.71826 3.85362 3.39957 3.57141 4.10997 3.57141H15.8928C16.6032 3.57141 17.2845 3.85362 17.7869 4.35595C18.2892 4.85828 18.5714 5.53958 18.5714 6.24998V13.75C18.5714 14.4604 18.2892 15.1417 17.7869 15.644C17.2845 16.1463 16.6032 16.4286 15.8928 16.4286H4.11068C3.40028 16.4286 2.71898 16.1463 2.21665 15.644C1.71432 15.1417 1.43211 14.4604 1.43211 13.75L1.4314 6.24998ZM4.10997 4.64284C3.68373 4.64284 3.27494 4.81216 2.97355 5.11356C2.67215 5.41496 2.50283 5.82374 2.50283 6.24998V6.7857H17.5V6.24998C17.5 5.82374 17.3306 5.41496 17.0292 5.11356C16.7278 4.81216 16.3191 4.64284 15.8928 4.64284H4.10997ZM2.50283 13.75C2.50283 14.1762 2.67215 14.585 2.97355 14.8864C3.27494 15.1878 3.68373 15.3571 4.10997 15.3571H15.8928C16.3191 15.3571 16.7278 15.1878 17.0292 14.8864C17.3306 14.585 17.5 14.1762 17.5 13.75V7.85713H2.50354L2.50283 13.75Z" fill="black"/>
</svg>
